# MagicaVoxel @ Ephtracy

# material
mtllib ArC am3(R).mtl
usemtl palette

# normals
vn -1 0 0
vn 1 0 0
vn 0 0 1
vn 0 0 -1
vn 0 -1 0
vn 0 1 0

# texcoords
vt 0.751953 0.5
vt 0.755859 0.5
vt 0.771484 0.5
vt 0.775391 0.5
vt 0.912109 0.5
vt 0.919922 0.5
vt 0.923828 0.5
vt 0.935547 0.5
vt 0.951172 0.5

# verts
v -7 7 1
v -7 7 -0
v -7 7 -1
v -7 8 1
v -7 8 -0
v -7 8 -1
v -3 9 1
v -3 9 -1
v -3 10 2
v -3 10 1
v -3 10 -0
v -3 10 -1
v -3 10 -2
v -3 10 -3
v -3 11 1
v -3 11 -0
v -3 11 -1
v -3 11 -2
v -3 11 -3
v -3 12 1
v -3 12 -1
v -3 12 -2
v -3 12 -3
v -3 13 2
v -3 13 1
v -3 13 -1
v -3 13 -2
v -2 0 1
v -2 0 -0
v -2 0 -1
v -2 1 1
v -2 1 -0
v -2 1 -1
v -2 2 1
v -2 2 -0
v -2 2 -1
v -2 3 -0
v -2 3 -1
v -2 4 1
v -2 4 -1
v -2 5 1
v -2 5 -0
v -2 5 -1
v -2 6 2
v -2 6 1
v -2 6 -0
v -2 6 -1
v -2 6 -2
v -2 7 2
v -2 7 1
v -2 7 -0
v -2 7 -1
v -2 7 -2
v -2 8 2
v -2 8 1
v -2 8 -0
v -2 8 -2
v -2 9 2
v -2 9 1
v -2 9 -1
v -2 9 -2
v -2 10 2
v -2 10 1
v -2 10 -1
v -2 10 -2
v -2 11 3
v -2 11 2
v -2 12 -2
v -2 12 -3
v -2 13 3
v -2 13 2
v -2 13 1
v -2 13 -1
v -2 13 -2
v -2 13 -3
v -2 14 2
v -2 14 1
v -2 14 -1
v -2 14 -2
v -1 5 -1
v -1 5 -2
v -1 6 -1
v -1 6 -2
v -1 10 3
v -1 10 2
v -1 11 3
v -1 11 2
v -1 13 3
v -1 13 2
v -1 13 -2
v -1 13 -3
v -1 14 3
v -1 14 2
v -1 14 -2
v -1 14 -3
v 1 0 1
v 1 0 -0
v 1 0 -1
v 1 1 1
v 1 1 -0
v 1 1 -1
v 1 2 1
v 1 2 -0
v 1 2 -1
v 1 3 -0
v 1 3 -1
v 1 6 2
v 1 6 1
v 1 7 2
v 1 7 1
v 1 7 -1
v 1 7 -2
v 1 8 2
v 1 8 1
v 1 8 -1
v 1 8 -2
v 3 7 -0
v 3 7 -1
v 3 8 -0
v 3 8 -1
v 4 7 1
v 4 7 -0
v 4 8 1
v 4 8 -0
v -4 7 1
v -4 7 -0
v -4 8 1
v -4 8 -0
v -3 7 -0
v -3 7 -1
v -3 8 -0
v -3 8 -1
v -1 0 1
v -1 0 -0
v -1 0 -1
v -1 1 1
v -1 1 -0
v -1 1 -1
v -1 2 1
v -1 2 -0
v -1 2 -1
v -1 3 -0
v -1 3 -1
v -1 6 2
v -1 6 1
v -1 7 2
v -1 7 1
v -1 7 -1
v -1 7 -2
v -1 8 2
v -1 8 1
v -1 8 -1
v -1 8 -2
v 1 5 -1
v 1 5 -2
v 1 6 -1
v 1 6 -2
v 1 10 3
v 1 10 2
v 1 11 3
v 1 11 2
v 1 13 3
v 1 13 2
v 1 13 -2
v 1 13 -3
v 1 14 3
v 1 14 2
v 1 14 -2
v 1 14 -3
v 2 0 1
v 2 0 -0
v 2 0 -1
v 2 1 1
v 2 1 -0
v 2 1 -1
v 2 2 1
v 2 2 -0
v 2 2 -1
v 2 3 -0
v 2 3 -1
v 2 4 1
v 2 4 -1
v 2 5 1
v 2 5 -1
v 2 6 2
v 2 6 1
v 2 6 -1
v 2 6 -2
v 2 7 2
v 2 7 1
v 2 7 -0
v 2 7 -1
v 2 7 -2
v 2 8 2
v 2 8 1
v 2 8 -0
v 2 8 -2
v 2 9 2
v 2 9 1
v 2 9 -1
v 2 9 -2
v 2 10 2
v 2 10 1
v 2 10 -1
v 2 10 -2
v 2 11 3
v 2 11 2
v 2 12 -2
v 2 12 -3
v 2 13 3
v 2 13 2
v 2 13 1
v 2 13 -1
v 2 13 -2
v 2 13 -3
v 2 14 2
v 2 14 1
v 2 14 -1
v 2 14 -2
v 3 9 1
v 3 9 -1
v 3 10 2
v 3 10 1
v 3 10 -0
v 3 10 -1
v 3 10 -2
v 3 10 -3
v 3 11 1
v 3 11 -0
v 3 11 -1
v 3 11 -2
v 3 11 -3
v 3 12 1
v 3 12 -1
v 3 12 -2
v 3 12 -3
v 3 13 2
v 3 13 1
v 3 13 -1
v 3 13 -2
v 7 7 1
v 7 7 -0
v 7 7 -1
v 7 8 1
v 7 8 -0
v 7 8 -1
v -2 11 3
v -2 13 3
v -1 10 3
v -1 11 3
v -1 12 3
v -1 13 3
v -1 14 3
v 1 10 3
v 1 11 3
v 1 12 3
v 1 13 3
v 1 14 3
v 2 11 3
v 2 13 3
v -3 10 2
v -3 13 2
v -2 6 2
v -2 7 2
v -2 8 2
v -2 9 2
v -2 10 2
v -2 11 2
v -2 13 2
v -2 14 2
v -1 6 2
v -1 7 2
v -1 8 2
v -1 9 2
v -1 10 2
v -1 11 2
v -1 13 2
v -1 14 2
v 1 6 2
v 1 7 2
v 1 8 2
v 1 9 2
v 1 10 2
v 1 11 2
v 1 13 2
v 1 14 2
v 2 6 2
v 2 7 2
v 2 8 2
v 2 9 2
v 2 10 2
v 2 11 2
v 2 13 2
v 2 14 2
v 3 10 2
v 3 13 2
v -7 7 1
v -7 8 1
v -6 7 1
v -6 8 1
v -4 7 1
v -4 8 1
v -3 9 1
v -3 10 1
v -2 0 1
v -2 1 1
v -2 2 1
v -2 4 1
v -2 5 1
v -2 6 1
v -2 9 1
v -2 10 1
v -1 0 1
v -1 1 1
v -1 2 1
v -1 4 1
v -1 5 1
v -1 6 1
v -1 7 1
v -1 8 1
v 1 0 1
v 1 1 1
v 1 2 1
v 1 4 1
v 1 5 1
v 1 6 1
v 1 7 1
v 1 8 1
v 2 0 1
v 2 1 1
v 2 2 1
v 2 4 1
v 2 5 1
v 2 6 1
v 2 9 1
v 2 10 1
v 3 9 1
v 3 10 1
v 4 7 1
v 4 8 1
v 6 7 1
v 6 8 1
v 7 7 1
v 7 8 1
v -4 7 -0
v -4 8 -0
v -3 7 -0
v -3 8 -0
v -2 2 -0
v -2 3 -0
v -1 2 -0
v -1 3 -0
v 1 2 -0
v 1 3 -0
v 2 2 -0
v 2 3 -0
v 3 7 -0
v 3 8 -0
v 4 7 -0
v 4 8 -0
v -7 7 -1
v -7 8 -1
v -6 7 -1
v -6 8 -1
v -5 7 -1
v -5 8 -1
v -4 7 -1
v -4 8 -1
v -3 7 -1
v -3 8 -1
v -3 9 -1
v -3 10 -1
v -2 0 -1
v -2 1 -1
v -2 2 -1
v -2 3 -1
v -2 4 -1
v -2 5 -1
v -2 6 -1
v -2 9 -1
v -2 10 -1
v -1 0 -1
v -1 1 -1
v -1 2 -1
v -1 3 -1
v -1 4 -1
v -1 5 -1
v -1 6 -1
v -1 7 -1
v -1 8 -1
v 1 0 -1
v 1 1 -1
v 1 2 -1
v 1 3 -1
v 1 4 -1
v 1 5 -1
v 1 6 -1
v 1 7 -1
v 1 8 -1
v 2 0 -1
v 2 1 -1
v 2 2 -1
v 2 3 -1
v 2 4 -1
v 2 5 -1
v 2 6 -1
v 2 9 -1
v 2 10 -1
v 3 7 -1
v 3 8 -1
v 3 9 -1
v 3 10 -1
v 4 7 -1
v 4 8 -1
v 5 7 -1
v 5 8 -1
v 6 7 -1
v 6 8 -1
v 7 7 -1
v 7 8 -1
v -3 12 -2
v -3 13 -2
v -2 6 -2
v -2 7 -2
v -2 8 -2
v -2 9 -2
v -2 10 -2
v -2 12 -2
v -2 13 -2
v -2 14 -2
v -1 5 -2
v -1 6 -2
v -1 7 -2
v -1 8 -2
v -1 9 -2
v -1 10 -2
v -1 13 -2
v -1 14 -2
v 1 5 -2
v 1 6 -2
v 1 7 -2
v 1 8 -2
v 1 9 -2
v 1 10 -2
v 1 13 -2
v 1 14 -2
v 2 6 -2
v 2 7 -2
v 2 8 -2
v 2 9 -2
v 2 10 -2
v 2 12 -2
v 2 13 -2
v 2 14 -2
v 3 12 -2
v 3 13 -2
v -3 10 -3
v -3 11 -3
v -3 12 -3
v -2 10 -3
v -2 11 -3
v -2 12 -3
v -2 13 -3
v -1 10 -3
v -1 11 -3
v -1 12 -3
v -1 13 -3
v -1 14 -3
v 1 10 -3
v 1 11 -3
v 1 12 -3
v 1 13 -3
v 1 14 -3
v 2 10 -3
v 2 11 -3
v 2 12 -3
v 2 13 -3
v 3 10 -3
v 3 11 -3
v 3 12 -3
v -2 0 1
v -1 0 1
v 1 0 1
v 2 0 1
v -2 0 -0
v -1 0 -0
v 1 0 -0
v 2 0 -0
v -2 0 -1
v -1 0 -1
v 1 0 -1
v 2 0 -1
v -2 4 1
v -1 4 1
v 1 4 1
v 2 4 1
v -1 4 -0
v 1 4 -0
v -2 4 -1
v -1 4 -1
v 1 4 -1
v 2 4 -1
v -1 5 -1
v 1 5 -1
v -1 5 -2
v 1 5 -2
v -2 6 2
v -1 6 2
v 1 6 2
v 2 6 2
v -2 6 1
v -1 6 1
v 1 6 1
v 2 6 1
v -2 6 -1
v -1 6 -1
v 1 6 -1
v 2 6 -1
v -2 6 -2
v -1 6 -2
v 1 6 -2
v 2 6 -2
v -7 7 1
v -6 7 1
v -4 7 1
v 4 7 1
v 6 7 1
v 7 7 1
v -7 7 -0
v -6 7 -0
v -5 7 -0
v -4 7 -0
v -3 7 -0
v 3 7 -0
v 4 7 -0
v 5 7 -0
v 6 7 -0
v 7 7 -0
v -7 7 -1
v -6 7 -1
v -5 7 -1
v -4 7 -1
v -3 7 -1
v 3 7 -1
v 4 7 -1
v 5 7 -1
v 6 7 -1
v 7 7 -1
v -2 9 2
v -1 9 2
v 1 9 2
v 2 9 2
v -3 9 1
v -2 9 1
v -1 9 1
v 1 9 1
v 2 9 1
v 3 9 1
v -3 9 -1
v -2 9 -1
v -1 9 -1
v 1 9 -1
v 2 9 -1
v 3 9 -1
v -2 9 -2
v -1 9 -2
v 1 9 -2
v 2 9 -2
v -1 10 3
v 1 10 3
v -3 10 2
v -2 10 2
v -1 10 2
v 1 10 2
v 2 10 2
v 3 10 2
v -3 10 1
v -2 10 1
v 2 10 1
v 3 10 1
v -3 10 -1
v -2 10 -1
v 2 10 -1
v 3 10 -1
v -3 10 -2
v -2 10 -2
v -1 10 -2
v 1 10 -2
v 2 10 -2
v 3 10 -2
v -3 10 -3
v -2 10 -3
v -1 10 -3
v 1 10 -3
v 2 10 -3
v 3 10 -3
v -2 11 3
v -1 11 3
v 1 11 3
v 2 11 3
v -2 11 2
v -1 11 2
v 1 11 2
v 2 11 2
v -2 2 1
v -1 2 1
v 1 2 1
v 2 2 1
v -2 2 -0
v -1 2 -0
v 1 2 -0
v 2 2 -0
v -2 3 -0
v -1 3 -0
v 1 3 -0
v 2 3 -0
v -2 3 -1
v -1 3 -1
v 1 3 -1
v 2 3 -1
v -1 7 -1
v 1 7 -1
v -1 7 -2
v 1 7 -2
v -2 8 2
v -1 8 2
v 1 8 2
v 2 8 2
v -7 8 1
v -6 8 1
v -4 8 1
v -2 8 1
v -1 8 1
v 1 8 1
v 2 8 1
v 4 8 1
v 6 8 1
v 7 8 1
v -7 8 -0
v -6 8 -0
v -5 8 -0
v -4 8 -0
v -3 8 -0
v -2 8 -0
v -1 8 -0
v 1 8 -0
v 2 8 -0
v 3 8 -0
v 4 8 -0
v 5 8 -0
v 6 8 -0
v 7 8 -0
v -7 8 -1
v -6 8 -1
v -5 8 -1
v -4 8 -1
v -3 8 -1
v -1 8 -1
v 1 8 -1
v 3 8 -1
v 4 8 -1
v 5 8 -1
v 6 8 -1
v 7 8 -1
v -2 8 -2
v -1 8 -2
v 1 8 -2
v 2 8 -2
v -3 12 -2
v -2 12 -2
v 2 12 -2
v 3 12 -2
v -3 12 -3
v -2 12 -3
v 2 12 -3
v 3 12 -3
v -2 13 3
v -1 13 3
v 1 13 3
v 2 13 3
v -3 13 2
v -2 13 2
v -1 13 2
v 1 13 2
v 2 13 2
v 3 13 2
v -3 13 1
v -2 13 1
v 2 13 1
v 3 13 1
v -3 13 -1
v -2 13 -1
v 2 13 -1
v 3 13 -1
v -3 13 -2
v -2 13 -2
v -1 13 -2
v 1 13 -2
v 2 13 -2
v 3 13 -2
v -2 13 -3
v -1 13 -3
v 1 13 -3
v 2 13 -3
v -1 14 3
v 1 14 3
v -2 14 2
v -1 14 2
v 1 14 2
v 2 14 2
v -2 14 1
v -1 14 1
v 1 14 1
v 2 14 1
v -1 14 -0
v 1 14 -0
v -2 14 -1
v -1 14 -1
v 1 14 -1
v 2 14 -1
v -2 14 -2
v -1 14 -2
v 1 14 -2
v 2 14 -2
v -1 14 -3
v 1 14 -3

# faces
f 4/4/1 2/4/1 1/4/1
f 5/9/1 3/9/1 2/9/1
f 5/4/1 2/4/1 4/4/1
f 6/9/1 3/9/1 5/9/1
f 10/3/1 8/3/1 7/3/1
f 11/3/1 8/3/1 10/3/1
f 12/3/1 8/3/1 11/3/1
f 15/5/1 10/5/1 9/5/1
f 15/6/1 11/6/1 10/6/1
f 16/9/1 13/9/1 12/9/1
f 16/6/1 11/6/1 15/6/1
f 16/9/1 12/9/1 11/9/1
f 17/9/1 13/9/1 16/9/1
f 18/4/1 14/4/1 13/4/1
f 18/9/1 13/9/1 17/9/1
f 19/4/1 14/4/1 18/4/1
f 20/8/1 17/8/1 16/8/1
f 20/5/1 15/5/1 9/5/1
f 20/8/1 16/8/1 15/8/1
f 21/3/1 19/3/1 18/3/1
f 21/8/1 17/8/1 20/8/1
f 21/3/1 18/3/1 17/3/1
f 22/3/1 19/3/1 21/3/1
f 23/3/1 19/3/1 22/3/1
f 24/5/1 20/5/1 9/5/1
f 25/2/1 21/2/1 20/2/1
f 25/5/1 20/5/1 24/5/1
f 26/5/1 22/5/1 21/5/1
f 26/2/1 21/2/1 25/2/1
f 27/5/1 22/5/1 26/5/1
f 31/4/1 29/4/1 28/4/1
f 32/3/1 30/3/1 29/3/1
f 32/4/1 29/4/1 31/4/1
f 33/3/1 30/3/1 32/3/1
f 34/2/1 32/2/1 31/2/1
f 35/9/1 33/9/1 32/9/1
f 35/2/1 32/2/1 34/2/1
f 36/9/1 33/9/1 35/9/1
f 37/5/1 36/5/1 35/5/1
f 38/5/1 36/5/1 37/5/1
f 41/5/1 40/5/1 39/5/1
f 42/5/1 40/5/1 41/5/1
f 43/5/1 40/5/1 42/5/1
f 45/7/1 42/7/1 41/7/1
f 46/9/1 43/9/1 42/9/1
f 46/7/1 42/7/1 45/7/1
f 47/9/1 43/9/1 46/9/1
f 49/2/1 45/2/1 44/2/1
f 50/5/1 47/5/1 46/5/1
f 50/2/1 45/2/1 49/2/1
f 50/5/1 46/5/1 45/5/1
f 51/5/1 47/5/1 50/5/1
f 52/4/1 48/4/1 47/4/1
f 52/5/1 47/5/1 51/5/1
f 53/4/1 48/4/1 52/4/1
f 54/4/1 50/4/1 49/4/1
f 55/5/1 51/5/1 50/5/1
f 55/4/1 50/4/1 54/4/1
f 56/3/1 52/3/1 51/3/1
f 56/5/1 51/5/1 55/5/1
f 56/3/1 53/3/1 52/3/1
f 57/3/1 53/3/1 56/3/1
f 62/6/1 59/6/1 58/6/1
f 63/6/1 59/6/1 62/6/1
f 64/6/1 61/6/1 60/6/1
f 65/6/1 61/6/1 64/6/1
f 70/3/1 67/3/1 66/3/1
f 71/3/1 67/3/1 70/3/1
f 74/8/1 69/8/1 68/8/1
f 75/8/1 69/8/1 74/8/1
f 76/6/1 72/6/1 71/6/1
f 77/8/1 73/8/1 72/8/1
f 77/6/1 72/6/1 76/6/1
f 78/3/1 74/3/1 73/3/1
f 78/8/1 73/8/1 77/8/1
f 79/3/1 74/3/1 78/3/1
f 82/5/1 81/5/1 80/5/1
f 83/5/1 81/5/1 82/5/1
f 86/2/1 85/2/1 84/2/1
f 87/2/1 85/2/1 86/2/1
f 92/4/1 89/4/1 88/4/1
f 93/4/1 89/4/1 92/4/1
f 94/4/1 91/4/1 90/4/1
f 95/4/1 91/4/1 94/4/1
f 99/4/1 97/4/1 96/4/1
f 100/3/1 98/3/1 97/3/1
f 100/4/1 97/4/1 99/4/1
f 101/3/1 98/3/1 100/3/1
f 102/2/1 100/2/1 99/2/1
f 103/9/1 101/9/1 100/9/1
f 103/2/1 100/2/1 102/2/1
f 104/9/1 101/9/1 103/9/1
f 105/5/1 104/5/1 103/5/1
f 106/5/1 104/5/1 105/5/1
f 109/2/1 108/2/1 107/2/1
f 110/2/1 108/2/1 109/2/1
f 113/4/1 110/4/1 109/4/1
f 114/4/1 110/4/1 113/4/1
f 115/3/1 112/3/1 111/3/1
f 116/3/1 112/3/1 115/3/1
f 119/5/1 118/5/1 117/5/1
f 120/5/1 118/5/1 119/5/1
f 123/3/1 122/3/1 121/3/1
f 124/3/1 122/3/1 123/3/1
f 125/3/2 126/3/2 127/3/2
f 127/3/2 126/3/2 128/3/2
f 129/5/2 130/5/2 131/5/2
f 131/5/2 130/5/2 132/5/2
f 133/4/2 134/4/2 136/4/2
f 134/3/2 135/3/2 137/3/2
f 136/4/2 134/4/2 137/4/2
f 137/3/2 135/3/2 138/3/2
f 136/2/2 137/2/2 139/2/2
f 137/9/2 138/9/2 140/9/2
f 139/2/2 137/2/2 140/2/2
f 140/9/2 138/9/2 141/9/2
f 140/5/2 141/5/2 142/5/2
f 142/5/2 141/5/2 143/5/2
f 144/2/2 145/2/2 146/2/2
f 146/2/2 145/2/2 147/2/2
f 146/4/2 147/4/2 150/4/2
f 150/4/2 147/4/2 151/4/2
f 148/3/2 149/3/2 152/3/2
f 152/3/2 149/3/2 153/3/2
f 154/5/2 155/5/2 156/5/2
f 156/5/2 155/5/2 157/5/2
f 158/2/2 159/2/2 160/2/2
f 160/2/2 159/2/2 161/2/2
f 162/4/2 163/4/2 166/4/2
f 166/4/2 163/4/2 167/4/2
f 164/4/2 165/4/2 168/4/2
f 168/4/2 165/4/2 169/4/2
f 170/4/2 171/4/2 173/4/2
f 171/3/2 172/3/2 174/3/2
f 173/4/2 171/4/2 174/4/2
f 174/3/2 172/3/2 175/3/2
f 173/2/2 174/2/2 176/2/2
f 174/9/2 175/9/2 177/9/2
f 176/2/2 174/2/2 177/2/2
f 177/9/2 175/9/2 178/9/2
f 177/5/2 178/5/2 179/5/2
f 179/5/2 178/5/2 180/5/2
f 181/5/2 182/5/2 183/5/2
f 183/5/2 182/5/2 184/5/2
f 183/7/2 184/7/2 186/7/2
f 186/7/2 184/7/2 187/7/2
f 185/2/2 186/2/2 189/2/2
f 186/5/2 187/5/2 190/5/2
f 189/2/2 186/2/2 190/2/2
f 190/5/2 187/5/2 191/5/2
f 187/4/2 188/4/2 192/4/2
f 191/5/2 187/5/2 192/5/2
f 192/4/2 188/4/2 193/4/2
f 189/4/2 190/4/2 194/4/2
f 190/5/2 191/5/2 195/5/2
f 194/4/2 190/4/2 195/4/2
f 191/3/2 192/3/2 196/3/2
f 195/5/2 191/5/2 196/5/2
f 192/3/2 193/3/2 196/3/2
f 196/3/2 193/3/2 197/3/2
f 198/6/2 199/6/2 202/6/2
f 202/6/2 199/6/2 203/6/2
f 200/6/2 201/6/2 204/6/2
f 204/6/2 201/6/2 205/6/2
f 206/3/2 207/3/2 210/3/2
f 210/3/2 207/3/2 211/3/2
f 208/8/2 209/8/2 214/8/2
f 214/8/2 209/8/2 215/8/2
f 211/6/2 212/6/2 216/6/2
f 212/8/2 213/8/2 217/8/2
f 216/6/2 212/6/2 217/6/2
f 213/3/2 214/3/2 218/3/2
f 217/8/2 213/8/2 218/8/2
f 218/3/2 214/3/2 219/3/2
f 220/3/2 221/3/2 223/3/2
f 223/3/2 221/3/2 224/3/2
f 224/3/2 221/3/2 225/3/2
f 222/5/2 223/5/2 228/5/2
f 223/6/2 224/6/2 228/6/2
f 225/9/2 226/9/2 229/9/2
f 228/6/2 224/6/2 229/6/2
f 224/9/2 225/9/2 229/9/2
f 229/9/2 226/9/2 230/9/2
f 226/4/2 227/4/2 231/4/2
f 230/9/2 226/9/2 231/9/2
f 231/4/2 227/4/2 232/4/2
f 229/8/2 230/8/2 233/8/2
f 222/5/2 228/5/2 233/5/2
f 228/8/2 229/8/2 233/8/2
f 231/3/2 232/3/2 234/3/2
f 233/8/2 230/8/2 234/8/2
f 230/3/2 231/3/2 234/3/2
f 234/3/2 232/3/2 235/3/2
f 235/3/2 232/3/2 236/3/2
f 222/5/2 233/5/2 237/5/2
f 233/2/2 234/2/2 238/2/2
f 237/5/2 233/5/2 238/5/2
f 234/5/2 235/5/2 239/5/2
f 238/2/2 234/2/2 239/2/2
f 239/5/2 235/5/2 240/5/2
f 241/4/2 242/4/2 244/4/2
f 242/9/2 243/9/2 245/9/2
f 244/4/2 242/4/2 245/4/2
f 245/9/2 243/9/2 246/9/2
f 250/3/3 248/3/3 247/3/3
f 251/3/3 248/3/3 250/3/3
f 252/3/3 248/3/3 251/3/3
f 254/2/3 250/2/3 249/2/3
f 254/2/3 251/2/3 250/2/3
f 255/2/3 251/2/3 254/2/3
f 256/4/3 253/4/3 252/4/3
f 256/2/3 251/2/3 255/2/3
f 256/4/3 252/4/3 251/4/3
f 257/4/3 253/4/3 256/4/3
f 258/4/3 253/4/3 257/4/3
f 259/3/3 256/3/3 255/3/3
f 259/3/3 257/3/3 256/3/3
f 260/3/3 257/3/3 259/3/3
f 267/5/3 262/5/3 261/5/3
f 268/5/3 262/5/3 267/5/3
f 269/5/3 262/5/3 268/5/3
f 271/2/3 264/2/3 263/2/3
f 272/4/3 265/4/3 264/4/3
f 272/2/3 264/2/3 271/2/3
f 273/4/3 265/4/3 272/4/3
f 274/6/3 267/6/3 266/6/3
f 274/6/3 268/6/3 267/6/3
f 275/6/3 268/6/3 274/6/3
f 276/6/3 268/6/3 275/6/3
f 277/6/3 270/6/3 269/6/3
f 278/6/3 270/6/3 277/6/3
f 282/8/3 275/8/3 274/8/3
f 283/8/3 275/8/3 282/8/3
f 287/2/3 280/2/3 279/2/3
f 288/4/3 281/4/3 280/4/3
f 288/2/3 280/2/3 287/2/3
f 289/4/3 281/4/3 288/4/3
f 290/6/3 283/6/3 282/6/3
f 290/6/3 284/6/3 283/6/3
f 291/6/3 284/6/3 290/6/3
f 292/6/3 284/6/3 291/6/3
f 293/6/3 286/6/3 285/6/3
f 294/6/3 286/6/3 293/6/3
f 295/5/3 292/5/3 291/5/3
f 295/5/3 293/5/3 292/5/3
f 296/5/3 293/5/3 295/5/3
f 299/4/3 298/4/3 297/4/3
f 300/4/3 298/4/3 299/4/3
f 301/3/3 300/3/3 299/3/3
f 302/3/3 300/3/3 301/3/3
f 311/3/3 304/3/3 303/3/3
f 312/3/3 304/3/3 311/3/3
f 313/4/3 306/4/3 305/4/3
f 314/2/3 307/2/3 306/2/3
f 314/4/3 306/4/3 313/4/3
f 315/2/3 307/2/3 314/2/3
f 316/5/3 309/5/3 308/5/3
f 317/7/3 310/7/3 309/7/3
f 317/5/3 309/5/3 316/5/3
f 318/7/3 310/7/3 317/7/3
f 324/4/3 317/4/3 316/4/3
f 325/2/3 318/2/3 317/2/3
f 325/4/3 317/4/3 324/4/3
f 326/9/3 319/9/3 318/9/3
f 326/2/3 318/2/3 325/2/3
f 327/3/3 320/3/3 319/3/3
f 327/9/3 319/9/3 326/9/3
f 328/3/3 320/3/3 327/3/3
f 329/4/3 322/4/3 321/4/3
f 330/2/3 323/2/3 322/2/3
f 330/4/3 322/4/3 329/4/3
f 331/2/3 323/2/3 330/2/3
f 332/5/3 325/5/3 324/5/3
f 333/7/3 326/7/3 325/7/3
f 333/5/3 325/5/3 332/5/3
f 334/7/3 326/7/3 333/7/3
f 337/3/3 336/3/3 335/3/3
f 338/3/3 336/3/3 337/3/3
f 341/3/3 340/3/3 339/3/3
f 342/3/3 340/3/3 341/3/3
f 343/4/3 342/4/3 341/4/3
f 344/4/3 342/4/3 343/4/3
f 347/5/3 346/5/3 345/5/3
f 348/5/3 346/5/3 347/5/3
f 351/5/3 350/5/3 349/5/3
f 352/5/3 350/5/3 351/5/3
f 355/5/3 354/5/3 353/5/3
f 356/5/3 354/5/3 355/5/3
f 359/5/3 358/5/3 357/5/3
f 360/5/3 358/5/3 359/5/3
f 361/9/4 362/9/4 363/9/4
f 363/9/4 362/9/4 364/9/4
f 363/2/4 364/2/4 365/2/4
f 365/2/4 364/2/4 366/2/4
f 365/6/4 366/6/4 367/6/4
f 367/6/4 366/6/4 368/6/4
f 367/5/4 368/5/4 369/5/4
f 369/5/4 368/5/4 370/5/4
f 371/3/4 372/3/4 380/3/4
f 380/3/4 372/3/4 381/3/4
f 373/3/4 374/3/4 382/3/4
f 374/9/4 375/9/4 383/9/4
f 382/3/4 374/3/4 383/3/4
f 375/5/4 376/5/4 384/5/4
f 383/9/4 375/9/4 384/9/4
f 384/5/4 376/5/4 385/5/4
f 377/5/4 378/5/4 386/5/4
f 378/9/4 379/9/4 387/9/4
f 386/5/4 378/5/4 387/5/4
f 387/9/4 379/9/4 388/9/4
f 386/1/4 387/1/4 395/1/4
f 395/1/4 387/1/4 396/1/4
f 389/8/4 390/8/4 398/8/4
f 398/8/4 390/8/4 399/8/4
f 391/3/4 392/3/4 400/3/4
f 392/9/4 393/9/4 401/9/4
f 400/3/4 392/3/4 401/3/4
f 393/5/4 394/5/4 402/5/4
f 401/9/4 393/9/4 402/9/4
f 402/5/4 394/5/4 403/5/4
f 395/5/4 396/5/4 404/5/4
f 396/7/4 397/7/4 405/7/4
f 404/5/4 396/5/4 405/5/4
f 405/7/4 397/7/4 406/7/4
f 407/3/4 408/3/4 411/3/4
f 411/3/4 408/3/4 412/3/4
f 409/5/4 410/5/4 413/5/4
f 413/5/4 410/5/4 414/5/4
f 413/6/4 414/6/4 415/6/4
f 415/6/4 414/6/4 416/6/4
f 415/2/4 416/2/4 417/2/4
f 417/2/4 416/2/4 418/2/4
f 417/9/4 418/9/4 419/9/4
f 419/9/4 418/9/4 420/9/4
f 421/5/4 422/5/4 428/5/4
f 428/5/4 422/5/4 429/5/4
f 423/4/4 424/4/4 432/4/4
f 424/3/4 425/3/4 433/3/4
f 432/4/4 424/4/4 433/4/4
f 433/3/4 425/3/4 434/3/4
f 426/6/4 427/6/4 435/6/4
f 435/6/4 427/6/4 436/6/4
f 429/3/4 430/3/4 437/3/4
f 437/3/4 430/3/4 438/3/4
f 431/5/4 432/5/4 439/5/4
f 432/2/4 433/2/4 440/2/4
f 439/5/4 432/5/4 440/5/4
f 440/2/4 433/2/4 441/2/4
f 435/4/4 436/4/4 443/4/4
f 443/4/4 436/4/4 444/4/4
f 440/4/4 441/4/4 447/4/4
f 441/3/4 442/3/4 448/3/4
f 447/4/4 441/4/4 448/4/4
f 448/3/4 442/3/4 449/3/4
f 443/6/4 444/6/4 450/6/4
f 450/6/4 444/6/4 451/6/4
f 445/3/4 446/3/4 453/3/4
f 453/3/4 446/3/4 454/3/4
f 452/5/4 453/5/4 455/5/4
f 455/5/4 453/5/4 456/5/4
f 457/4/4 458/4/4 460/4/4
f 458/3/4 459/3/4 461/3/4
f 460/4/4 458/4/4 461/4/4
f 461/3/4 459/3/4 462/3/4
f 460/3/4 461/3/4 464/3/4
f 461/2/4 462/2/4 465/2/4
f 464/3/4 461/3/4 465/3/4
f 462/8/4 463/8/4 466/8/4
f 465/2/4 462/2/4 466/2/4
f 466/8/4 463/8/4 467/8/4
f 464/2/4 465/2/4 469/2/4
f 465/2/4 466/2/4 469/2/4
f 469/2/4 466/2/4 470/2/4
f 467/4/4 468/4/4 471/4/4
f 470/2/4 466/2/4 471/2/4
f 466/4/4 467/4/4 471/4/4
f 471/4/4 468/4/4 472/4/4
f 472/4/4 468/4/4 473/4/4
f 469/3/4 470/3/4 474/3/4
f 470/2/4 471/2/4 475/2/4
f 474/3/4 470/3/4 475/3/4
f 471/8/4 472/8/4 476/8/4
f 475/2/4 471/2/4 476/2/4
f 476/8/4 472/8/4 477/8/4
f 474/4/4 475/4/4 478/4/4
f 475/3/4 476/3/4 479/3/4
f 478/4/4 475/4/4 479/4/4
f 479/3/4 476/3/4 480/3/4
f 485/4/5 482/4/5 481/4/5
f 486/4/5 482/4/5 485/4/5
f 487/4/5 484/4/5 483/4/5
f 488/4/5 484/4/5 487/4/5
f 489/3/5 486/3/5 485/3/5
f 490/3/5 486/3/5 489/3/5
f 491/3/5 488/3/5 487/3/5
f 492/3/5 488/3/5 491/3/5
f 497/5/5 494/5/5 493/5/5
f 497/4/5 495/4/5 494/4/5
f 498/5/5 496/5/5 495/5/5
f 498/4/5 495/4/5 497/4/5
f 499/5/5 497/5/5 493/5/5
f 500/1/5 498/1/5 497/1/5
f 500/5/5 497/5/5 499/5/5
f 501/5/5 496/5/5 498/5/5
f 501/1/5 498/1/5 500/1/5
f 502/5/5 496/5/5 501/5/5
f 505/5/5 504/5/5 503/5/5
f 506/5/5 504/5/5 505/5/5
f 511/2/5 508/2/5 507/2/5
f 512/2/5 508/2/5 511/2/5
f 513/2/5 510/2/5 509/2/5
f 514/2/5 510/2/5 513/2/5
f 519/4/5 516/4/5 515/4/5
f 520/4/5 516/4/5 519/4/5
f 521/4/5 518/4/5 517/4/5
f 522/4/5 518/4/5 521/4/5
f 529/4/5 524/4/5 523/4/5
f 530/3/5 525/3/5 524/3/5
f 530/4/5 524/4/5 529/4/5
f 531/3/5 525/3/5 530/3/5
f 532/3/5 525/3/5 531/3/5
f 535/3/5 527/3/5 526/3/5
f 536/3/5 527/3/5 535/3/5
f 537/4/5 528/4/5 527/4/5
f 537/3/5 527/3/5 536/3/5
f 538/4/5 528/4/5 537/4/5
f 539/9/5 530/9/5 529/9/5
f 540/2/5 531/2/5 530/2/5
f 540/9/5 530/9/5 539/9/5
f 541/6/5 532/6/5 531/6/5
f 541/2/5 531/2/5 540/2/5
f 542/5/5 533/5/5 532/5/5
f 542/6/5 532/6/5 541/6/5
f 543/5/5 533/5/5 542/5/5
f 544/5/5 535/5/5 534/5/5
f 545/6/5 536/6/5 535/6/5
f 545/5/5 535/5/5 544/5/5
f 546/2/5 537/2/5 536/2/5
f 546/6/5 536/6/5 545/6/5
f 547/9/5 538/9/5 537/9/5
f 547/2/5 537/2/5 546/2/5
f 548/9/5 538/9/5 547/9/5
f 554/6/5 550/6/5 549/6/5
f 555/8/5 551/8/5 550/8/5
f 555/6/5 550/6/5 554/6/5
f 556/6/5 552/6/5 551/6/5
f 556/8/5 551/8/5 555/8/5
f 557/6/5 552/6/5 556/6/5
f 559/3/5 554/3/5 553/3/5
f 560/5/5 555/5/5 554/5/5
f 560/3/5 554/3/5 559/3/5
f 560/5/5 556/5/5 555/5/5
f 560/5/5 557/5/5 556/5/5
f 561/5/5 557/5/5 560/5/5
f 562/5/5 557/5/5 561/5/5
f 563/3/5 558/3/5 557/3/5
f 563/5/5 557/5/5 562/5/5
f 564/3/5 558/3/5 563/3/5
f 565/6/5 561/6/5 560/6/5
f 566/4/5 562/4/5 561/4/5
f 566/6/5 561/6/5 565/6/5
f 567/6/5 563/6/5 562/6/5
f 567/4/5 562/4/5 566/4/5
f 568/6/5 563/6/5 567/6/5
f 573/2/5 570/2/5 569/2/5
f 574/2/5 570/2/5 573/2/5
f 577/5/5 572/5/5 571/5/5
f 578/5/5 572/5/5 577/5/5
f 579/5/5 576/5/5 575/5/5
f 580/5/5 576/5/5 579/5/5
f 585/9/5 582/9/5 581/9/5
f 586/9/5 582/9/5 585/9/5
f 589/9/5 584/9/5 583/9/5
f 590/9/5 584/9/5 589/9/5
f 591/4/5 586/4/5 585/4/5
f 592/3/5 587/3/5 586/3/5
f 592/4/5 586/4/5 591/4/5
f 593/2/5 588/2/5 587/2/5
f 593/3/5 587/3/5 592/3/5
f 594/3/5 589/3/5 588/3/5
f 594/2/5 588/2/5 593/2/5
f 595/4/5 590/4/5 589/4/5
f 595/3/5 589/3/5 594/3/5
f 596/4/5 590/4/5 595/4/5
f 601/3/5 598/3/5 597/3/5
f 602/3/5 598/3/5 601/3/5
f 603/3/5 600/3/5 599/3/5
f 604/3/5 600/3/5 603/3/5
f 605/2/6 606/2/6 609/2/6
f 609/2/6 606/2/6 610/2/6
f 607/2/6 608/2/6 611/2/6
f 611/2/6 608/2/6 612/2/6
f 613/5/6 614/5/6 617/5/6
f 617/5/6 614/5/6 618/5/6
f 615/5/6 616/5/6 619/5/6
f 619/5/6 616/5/6 620/5/6
f 621/2/6 622/2/6 623/2/6
f 623/2/6 622/2/6 624/2/6
f 625/4/6 626/4/6 632/4/6
f 632/4/6 626/4/6 633/4/6
f 627/4/6 628/4/6 634/4/6
f 634/4/6 628/4/6 635/4/6
f 629/4/6 630/4/6 639/4/6
f 630/3/6 631/3/6 640/3/6
f 639/4/6 630/4/6 640/4/6
f 640/3/6 631/3/6 641/3/6
f 641/3/6 631/3/6 642/3/6
f 632/5/6 633/5/6 644/5/6
f 633/3/6 634/3/6 645/3/6
f 644/5/6 633/5/6 645/5/6
f 634/5/6 635/5/6 646/5/6
f 645/3/6 634/3/6 646/3/6
f 646/5/6 635/5/6 647/5/6
f 636/3/6 637/3/6 649/3/6
f 649/3/6 637/3/6 650/3/6
f 637/4/6 638/4/6 651/4/6
f 650/3/6 637/3/6 651/3/6
f 651/4/6 638/4/6 652/4/6
f 639/9/6 640/9/6 653/9/6
f 640/2/6 641/2/6 654/2/6
f 653/9/6 640/9/6 654/9/6
f 641/6/6 642/6/6 655/6/6
f 654/2/6 641/2/6 655/2/6
f 642/5/6 643/5/6 656/5/6
f 655/6/6 642/6/6 656/6/6
f 656/5/6 643/5/6 657/5/6
f 644/3/6 645/3/6 658/3/6
f 645/8/6 646/8/6 658/8/6
f 646/3/6 647/3/6 659/3/6
f 658/8/6 646/8/6 659/8/6
f 648/5/6 649/5/6 660/5/6
f 649/6/6 650/6/6 661/6/6
f 660/5/6 649/5/6 661/5/6
f 650/2/6 651/2/6 662/2/6
f 661/6/6 650/6/6 662/6/6
f 651/9/6 652/9/6 663/9/6
f 662/2/6 651/2/6 663/2/6
f 663/9/6 652/9/6 664/9/6
f 644/3/6 658/3/6 665/3/6
f 665/3/6 658/3/6 666/3/6
f 659/3/6 647/3/6 667/3/6
f 667/3/6 647/3/6 668/3/6
f 669/3/6 670/3/6 673/3/6
f 673/3/6 670/3/6 674/3/6
f 671/3/6 672/3/6 675/3/6
f 675/3/6 672/3/6 676/3/6
f 677/3/6 678/3/6 682/3/6
f 682/3/6 678/3/6 683/3/6
f 679/3/6 680/3/6 684/3/6
f 684/3/6 680/3/6 685/3/6
f 681/5/6 682/5/6 687/5/6
f 687/5/6 682/5/6 688/5/6
f 685/5/6 686/5/6 689/5/6
f 689/5/6 686/5/6 690/5/6
f 687/2/6 688/2/6 691/2/6
f 691/2/6 688/2/6 692/2/6
f 689/2/6 690/2/6 693/2/6
f 693/2/6 690/2/6 694/2/6
f 691/5/6 692/5/6 695/5/6
f 695/5/6 692/5/6 696/5/6
f 693/5/6 694/5/6 699/5/6
f 699/5/6 694/5/6 700/5/6
f 696/8/6 697/8/6 701/8/6
f 701/8/6 697/8/6 702/8/6
f 698/8/6 699/8/6 703/8/6
f 703/8/6 699/8/6 704/8/6
f 705/4/6 706/4/6 708/4/6
f 708/4/6 706/4/6 709/4/6
f 707/6/6 708/6/6 711/6/6
f 708/4/6 709/4/6 712/4/6
f 711/6/6 708/6/6 712/6/6
f 709/6/6 710/6/6 713/6/6
f 712/4/6 709/4/6 713/4/6
f 713/6/6 710/6/6 714/6/6
f 711/8/6 712/8/6 715/8/6
f 712/8/6 713/8/6 715/8/6
f 713/8/6 714/8/6 715/8/6
f 715/8/6 714/8/6 716/8/6
f 711/8/6 715/8/6 717/8/6
f 715/2/6 716/2/6 718/2/6
f 717/8/6 715/8/6 718/8/6
f 716/8/6 714/8/6 719/8/6
f 718/2/6 716/2/6 719/2/6
f 719/8/6 714/8/6 720/8/6
f 717/3/6 718/3/6 721/3/6
f 718/2/6 719/2/6 722/2/6
f 721/3/6 718/3/6 722/3/6
f 719/3/6 720/3/6 723/3/6
f 722/2/6 719/2/6 723/2/6
f 723/3/6 720/3/6 724/3/6
f 722/4/6 723/4/6 725/4/6
f 725/4/6 723/4/6 726/4/6
