# MagicaVoxel @ Ephtracy

# material
mtllib “Ω¡∆µØ“©œ‰.mtl
usemtl palette

# normals
vn -1 0 0
vn 1 0 0
vn 0 0 1
vn 0 0 -1
vn 0 -1 0
vn 0 1 0

# texcoords
vt 0.130859 0.5
vt 0.373047 0.5
vt 0.427734 0.5
vt 0.591797 0.5
vt 0.916016 0.5
vt 0.958984 0.5
vt 0.986328 0.5

# verts
v -7.5 0 1.5
v -7.5 0 -5.5
v -7.5 1 0.5
v -7.5 1 -4.5
v -7.5 12 0.5
v -7.5 12 -4.5
v -7.5 13 1.5
v -7.5 13 -5.5
v -6.5 0 2.5
v -6.5 0 1.5
v -6.5 13 2.5
v -6.5 13 1.5
v -6.5 13 -5.5
v -6.5 14 1.5
v -6.5 14 -5.5
v -1.5 1 2.5
v -1.5 1 0.5
v -1.5 5 0.5
v -1.5 6 0.5
v -1.5 7 0.5
v -1.5 8 0.5
v -1.5 12 2.5
v -1.5 12 0.5
v 3.5 1 2.5
v 3.5 1 0.5
v 3.5 5 0.5
v 3.5 6 0.5
v 3.5 7 0.5
v 3.5 8 0.5
v 3.5 12 2.5
v 3.5 12 0.5
v -5.5 1 2.5
v -5.5 1 0.5
v -5.5 5 0.5
v -5.5 6 0.5
v -5.5 7 0.5
v -5.5 8 0.5
v -5.5 12 2.5
v -5.5 12 0.5
v -0.5 1 2.5
v -0.5 1 0.5
v -0.5 5 0.5
v -0.5 6 0.5
v -0.5 7 0.5
v -0.5 8 0.5
v -0.5 12 2.5
v -0.5 12 0.5
v 4.5 0 2.5
v 4.5 0 1.5
v 4.5 13 2.5
v 4.5 13 1.5
v 4.5 13 -5.5
v 4.5 14 1.5
v 4.5 14 -5.5
v 5.5 0 1.5
v 5.5 0 -5.5
v 5.5 1 0.5
v 5.5 1 -0.5
v 5.5 1 -1.5
v 5.5 1 -2.5
v 5.5 1 -3.5
v 5.5 1 -4.5
v 5.5 5 0.5
v 5.5 5 -0.5
v 5.5 5 -1.5
v 5.5 5 -2.5
v 5.5 5 -3.5
v 5.5 5 -4.5
v 5.5 6 -0.5
v 5.5 6 -3.5
v 5.5 7 0.5
v 5.5 7 -0.5
v 5.5 7 -1.5
v 5.5 7 -2.5
v 5.5 7 -3.5
v 5.5 7 -4.5
v 5.5 8 -0.5
v 5.5 8 -1.5
v 5.5 8 -2.5
v 5.5 8 -3.5
v 5.5 9 -0.5
v 5.5 9 -1.5
v 5.5 9 -2.5
v 5.5 9 -3.5
v 5.5 10 0.5
v 5.5 10 -0.5
v 5.5 10 -1.5
v 5.5 10 -2.5
v 5.5 10 -3.5
v 5.5 10 -4.5
v 5.5 11 -0.5
v 5.5 11 -3.5
v 5.5 12 0.5
v 5.5 12 -4.5
v 5.5 13 1.5
v 5.5 13 -5.5
v -6.5 0 2.5
v -6.5 13 2.5
v -5.5 1 2.5
v -5.5 12 2.5
v -1.5 1 2.5
v -1.5 12 2.5
v -0.5 1 2.5
v -0.5 12 2.5
v 3.5 1 2.5
v 3.5 12 2.5
v 4.5 0 2.5
v 4.5 13 2.5
v -7.5 0 1.5
v -7.5 13 1.5
v -6.5 0 1.5
v -6.5 13 1.5
v -6.5 14 1.5
v -2.5 13 1.5
v -2.5 14 1.5
v -0.5 13 1.5
v -0.5 14 1.5
v 0.5 13 1.5
v 0.5 14 1.5
v 4.5 0 1.5
v 4.5 13 1.5
v 4.5 14 1.5
v 5.5 0 1.5
v 5.5 13 1.5
v -5.5 1 0.5
v -5.5 5 0.5
v -5.5 6 0.5
v -5.5 7 0.5
v -5.5 8 0.5
v -5.5 12 0.5
v -1.5 1 0.5
v -1.5 5 0.5
v -1.5 6 0.5
v -1.5 7 0.5
v -1.5 8 0.5
v -1.5 12 0.5
v -0.5 1 0.5
v -0.5 5 0.5
v -0.5 6 0.5
v -0.5 7 0.5
v -0.5 8 0.5
v -0.5 12 0.5
v 3.5 1 0.5
v 3.5 5 0.5
v 3.5 6 0.5
v 3.5 7 0.5
v 3.5 8 0.5
v 3.5 12 0.5
v -7.5 0 -5.5
v -7.5 13 -5.5
v -6.5 13 -5.5
v -6.5 14 -5.5
v -5.5 1 -5.5
v -5.5 12 -5.5
v -2.5 13 -5.5
v -2.5 14 -5.5
v -1.5 1 -5.5
v -1.5 12 -5.5
v -0.5 1 -5.5
v -0.5 12 -5.5
v -0.5 13 -5.5
v -0.5 14 -5.5
v 0.5 13 -5.5
v 0.5 14 -5.5
v 3.5 1 -5.5
v 3.5 12 -5.5
v 4.5 13 -5.5
v 4.5 14 -5.5
v 5.5 0 -5.5
v 5.5 13 -5.5
v -6.5 0 2.5
v 4.5 0 2.5
v -7.5 0 1.5
v -6.5 0 1.5
v 4.5 0 1.5
v 5.5 0 1.5
v -7.5 0 -5.5
v 5.5 0 -5.5
v -5.5 12 2.5
v -1.5 12 2.5
v -0.5 12 2.5
v 3.5 12 2.5
v -5.5 12 0.5
v -1.5 12 0.5
v -0.5 12 0.5
v 3.5 12 0.5
v -5.5 1 2.5
v -1.5 1 2.5
v -0.5 1 2.5
v 3.5 1 2.5
v -5.5 1 0.5
v -1.5 1 0.5
v -0.5 1 0.5
v 3.5 1 0.5
v -6.5 13 2.5
v 4.5 13 2.5
v -7.5 13 1.5
v -6.5 13 1.5
v -2.5 13 1.5
v -0.5 13 1.5
v 0.5 13 1.5
v 4.5 13 1.5
v 5.5 13 1.5
v -7.5 13 -5.5
v -6.5 13 -5.5
v 4.5 13 -5.5
v 5.5 13 -5.5
v -6.5 14 1.5
v -2.5 14 1.5
v -0.5 14 1.5
v 0.5 14 1.5
v 4.5 14 1.5
v -5.5 14 0.5
v -2.5 14 0.5
v -1.5 14 0.5
v -0.5 14 0.5
v 0.5 14 0.5
v 1.5 14 0.5
v 3.5 14 0.5
v -4.5 14 -0.5
v -2.5 14 -0.5
v -0.5 14 -0.5
v 1.5 14 -0.5
v -3.5 14 -1.5
v -1.5 14 -1.5
v -0.5 14 -1.5
v 3.5 14 -1.5
v -3.5 14 -2.5
v -1.5 14 -2.5
v -0.5 14 -2.5
v 3.5 14 -2.5
v -4.5 14 -3.5
v -2.5 14 -3.5
v -0.5 14 -3.5
v 2.5 14 -3.5
v -5.5 14 -4.5
v -2.5 14 -4.5
v -1.5 14 -4.5
v -0.5 14 -4.5
v 0.5 14 -4.5
v 2.5 14 -4.5
v 3.5 14 -4.5
v -6.5 14 -5.5
v -2.5 14 -5.5
v -0.5 14 -5.5
v 0.5 14 -5.5
v 4.5 14 -5.5

# faces
f 3/7/1 2/7/1 1/7/1
f 4/7/1 2/7/1 3/7/1
f 5/7/1 3/7/1 1/7/1
f 5/1/1 4/1/1 3/1/1
f 6/7/1 2/7/1 4/7/1
f 6/1/1 4/1/1 5/1/1
f 7/7/1 5/7/1 1/7/1
f 7/7/1 6/7/1 5/7/1
f 8/7/1 2/7/1 6/7/1
f 8/7/1 6/7/1 7/7/1
f 11/7/1 10/7/1 9/7/1
f 12/7/1 10/7/1 11/7/1
f 14/7/1 13/7/1 12/7/1
f 15/7/1 13/7/1 14/7/1
f 18/7/1 17/7/1 16/7/1
f 19/7/1 18/7/1 16/7/1
f 20/7/1 19/7/1 16/7/1
f 21/7/1 20/7/1 16/7/1
f 22/7/1 21/7/1 16/7/1
f 23/7/1 21/7/1 22/7/1
f 26/7/1 25/7/1 24/7/1
f 27/7/1 26/7/1 24/7/1
f 28/7/1 27/7/1 24/7/1
f 29/7/1 28/7/1 24/7/1
f 30/7/1 29/7/1 24/7/1
f 31/7/1 29/7/1 30/7/1
f 32/7/2 33/7/2 34/7/2
f 32/7/2 34/7/2 35/7/2
f 32/7/2 35/7/2 36/7/2
f 32/7/2 36/7/2 37/7/2
f 32/7/2 37/7/2 38/7/2
f 38/7/2 37/7/2 39/7/2
f 40/7/2 41/7/2 42/7/2
f 40/7/2 42/7/2 43/7/2
f 40/7/2 43/7/2 44/7/2
f 40/7/2 44/7/2 45/7/2
f 40/7/2 45/7/2 46/7/2
f 46/7/2 45/7/2 47/7/2
f 48/7/2 49/7/2 50/7/2
f 50/7/2 49/7/2 51/7/2
f 51/7/2 52/7/2 53/7/2
f 53/7/2 52/7/2 54/7/2
f 55/7/2 56/7/2 57/7/2
f 57/7/2 56/7/2 58/7/2
f 58/7/2 56/7/2 59/7/2
f 59/7/2 56/7/2 60/7/2
f 60/7/2 56/7/2 61/7/2
f 61/7/2 56/7/2 62/7/2
f 55/7/2 57/7/2 63/7/2
f 57/3/2 58/3/2 63/3/2
f 58/4/2 59/4/2 64/4/2
f 63/3/2 58/3/2 64/3/2
f 59/3/2 60/3/2 65/3/2
f 64/4/2 59/4/2 65/4/2
f 60/4/2 61/4/2 66/4/2
f 65/3/2 60/3/2 66/3/2
f 61/3/2 62/3/2 67/3/2
f 66/4/2 61/4/2 67/4/2
f 62/7/2 56/7/2 68/7/2
f 67/3/2 62/3/2 68/3/2
f 66/4/2 67/4/2 69/4/2
f 65/4/2 66/4/2 69/4/2
f 67/4/2 68/4/2 69/4/2
f 64/4/2 65/4/2 69/4/2
f 63/4/2 64/4/2 69/4/2
f 69/4/2 68/4/2 70/4/2
f 55/7/2 63/7/2 71/7/2
f 63/4/2 69/4/2 71/4/2
f 69/6/2 70/6/2 72/6/2
f 71/4/2 69/4/2 72/4/2
f 72/6/2 70/6/2 73/6/2
f 73/6/2 70/6/2 74/6/2
f 70/4/2 68/4/2 75/4/2
f 74/6/2 70/6/2 75/6/2
f 68/7/2 56/7/2 76/7/2
f 75/4/2 68/4/2 76/4/2
f 71/6/2 72/6/2 77/6/2
f 72/4/2 73/4/2 77/4/2
f 73/6/2 74/6/2 78/6/2
f 77/4/2 73/4/2 78/4/2
f 74/4/2 75/4/2 79/4/2
f 78/6/2 74/6/2 79/6/2
f 75/6/2 76/6/2 80/6/2
f 79/4/2 75/4/2 80/4/2
f 77/6/2 78/6/2 81/6/2
f 71/6/2 77/6/2 81/6/2
f 78/4/2 79/4/2 82/4/2
f 81/6/2 78/6/2 82/6/2
f 79/6/2 80/6/2 83/6/2
f 82/4/2 79/4/2 83/4/2
f 80/6/2 76/6/2 84/6/2
f 83/6/2 80/6/2 84/6/2
f 55/7/2 71/7/2 85/7/2
f 71/6/2 81/6/2 85/6/2
f 81/4/2 82/4/2 86/4/2
f 85/6/2 81/6/2 86/6/2
f 82/6/2 83/6/2 87/6/2
f 86/4/2 82/4/2 87/4/2
f 83/4/2 84/4/2 88/4/2
f 87/6/2 83/6/2 88/6/2
f 84/6/2 76/6/2 89/6/2
f 88/4/2 84/4/2 89/4/2
f 76/7/2 56/7/2 90/7/2
f 89/6/2 76/6/2 90/6/2
f 85/4/2 86/4/2 91/4/2
f 87/6/2 88/6/2 91/6/2
f 88/6/2 89/6/2 91/6/2
f 86/6/2 87/6/2 91/6/2
f 89/4/2 90/4/2 92/4/2
f 91/6/2 89/6/2 92/6/2
f 55/7/2 85/7/2 93/7/2
f 85/4/2 91/4/2 93/4/2
f 91/4/2 92/4/2 93/4/2
f 90/7/2 56/7/2 94/7/2
f 93/4/2 92/4/2 94/4/2
f 92/4/2 90/4/2 94/4/2
f 55/7/2 93/7/2 95/7/2
f 93/7/2 94/7/2 95/7/2
f 94/7/2 56/7/2 96/7/2
f 95/7/2 94/7/2 96/7/2
f 99/7/3 98/7/3 97/7/3
f 100/7/3 98/7/3 99/7/3
f 101/7/3 99/7/3 97/7/3
f 102/7/3 98/7/3 100/7/3
f 103/7/3 101/7/3 97/7/3
f 103/7/3 102/7/3 101/7/3
f 104/7/3 98/7/3 102/7/3
f 104/7/3 102/7/3 103/7/3
f 105/7/3 103/7/3 97/7/3
f 106/7/3 98/7/3 104/7/3
f 107/7/3 105/7/3 97/7/3
f 107/7/3 106/7/3 105/7/3
f 108/7/3 98/7/3 106/7/3
f 108/7/3 106/7/3 107/7/3
f 111/7/3 110/7/3 109/7/3
f 112/7/3 110/7/3 111/7/3
f 114/7/3 113/7/3 112/7/3
f 115/7/3 113/7/3 114/7/3
f 116/5/3 115/5/3 114/5/3
f 117/5/3 115/5/3 116/5/3
f 118/4/3 117/4/3 116/4/3
f 119/4/3 117/4/3 118/4/3
f 121/7/3 119/7/3 118/7/3
f 122/7/3 119/7/3 121/7/3
f 123/7/3 121/7/3 120/7/3
f 124/7/3 121/7/3 123/7/3
f 131/1/3 126/1/3 125/1/3
f 132/7/3 127/7/3 126/7/3
f 132/1/3 126/1/3 131/1/3
f 133/2/3 128/2/3 127/2/3
f 133/7/3 127/7/3 132/7/3
f 134/7/3 129/7/3 128/7/3
f 134/2/3 128/2/3 133/2/3
f 135/1/3 130/1/3 129/1/3
f 135/7/3 129/7/3 134/7/3
f 136/1/3 130/1/3 135/1/3
f 143/4/3 138/4/3 137/4/3
f 144/7/3 139/7/3 138/7/3
f 144/4/3 138/4/3 143/4/3
f 145/2/3 140/2/3 139/2/3
f 145/7/3 139/7/3 144/7/3
f 146/7/3 141/7/3 140/7/3
f 146/2/3 140/2/3 145/2/3
f 147/4/3 142/4/3 141/4/3
f 147/7/3 141/7/3 146/7/3
f 148/4/3 142/4/3 147/4/3
f 149/7/4 150/7/4 151/7/4
f 149/7/4 151/7/4 153/7/4
f 151/7/4 152/7/4 153/7/4
f 153/7/4 152/7/4 154/7/4
f 154/7/4 152/7/4 155/7/4
f 155/7/4 152/7/4 156/7/4
f 149/7/4 153/7/4 157/7/4
f 153/1/4 154/1/4 157/1/4
f 154/7/4 155/7/4 158/7/4
f 157/1/4 154/1/4 158/1/4
f 149/7/4 157/7/4 159/7/4
f 157/7/4 158/7/4 159/7/4
f 158/7/4 155/7/4 160/7/4
f 159/7/4 158/7/4 160/7/4
f 155/5/4 156/5/4 161/5/4
f 160/7/4 155/7/4 161/7/4
f 161/5/4 156/5/4 162/5/4
f 160/7/4 161/7/4 163/7/4
f 161/4/4 162/4/4 163/4/4
f 163/4/4 162/4/4 164/4/4
f 159/1/4 160/1/4 165/1/4
f 149/7/4 159/7/4 165/7/4
f 163/7/4 164/7/4 166/7/4
f 165/1/4 160/1/4 166/1/4
f 160/7/4 163/7/4 166/7/4
f 165/7/4 166/7/4 167/7/4
f 166/7/4 164/7/4 167/7/4
f 167/7/4 164/7/4 168/7/4
f 149/7/4 165/7/4 169/7/4
f 165/7/4 167/7/4 169/7/4
f 169/7/4 167/7/4 170/7/4
f 174/7/5 172/7/5 171/7/5
f 175/7/5 172/7/5 174/7/5
f 177/7/5 174/7/5 173/7/5
f 177/7/5 176/7/5 175/7/5
f 177/7/5 175/7/5 174/7/5
f 178/7/5 176/7/5 177/7/5
f 183/7/5 180/7/5 179/7/5
f 184/7/5 180/7/5 183/7/5
f 185/7/5 182/7/5 181/7/5
f 186/7/5 182/7/5 185/7/5
f 187/7/6 188/7/6 191/7/6
f 191/7/6 188/7/6 192/7/6
f 189/7/6 190/7/6 193/7/6
f 193/7/6 190/7/6 194/7/6
f 195/7/6 196/7/6 198/7/6
f 198/7/6 196/7/6 199/7/6
f 199/7/6 196/7/6 200/7/6
f 200/7/6 196/7/6 201/7/6
f 201/7/6 196/7/6 202/7/6
f 197/7/6 198/7/6 204/7/6
f 204/7/6 198/7/6 205/7/6
f 202/7/6 203/7/6 206/7/6
f 206/7/6 203/7/6 207/7/6
f 208/7/6 209/7/6 213/7/6
f 209/5/6 210/5/6 214/5/6
f 213/7/6 209/7/6 214/7/6
f 214/5/6 210/5/6 215/5/6
f 210/4/6 211/4/6 216/4/6
f 215/5/6 210/5/6 216/5/6
f 211/7/6 212/7/6 217/7/6
f 216/4/6 211/4/6 217/4/6
f 217/7/6 212/7/6 218/7/6
f 218/7/6 212/7/6 219/7/6
f 213/1/6 214/1/6 220/1/6
f 214/5/6 215/5/6 221/5/6
f 220/1/6 214/1/6 221/1/6
f 215/1/6 216/1/6 222/1/6
f 216/3/6 217/3/6 222/3/6
f 217/3/6 218/3/6 222/3/6
f 218/4/6 219/4/6 223/4/6
f 222/3/6 218/3/6 223/3/6
f 220/5/6 221/5/6 224/5/6
f 221/5/6 215/5/6 225/5/6
f 224/5/6 221/5/6 225/5/6
f 215/1/6 222/1/6 225/1/6
f 222/4/6 223/4/6 226/4/6
f 225/1/6 222/1/6 226/1/6
f 219/7/6 212/7/6 227/7/6
f 226/4/6 223/4/6 227/4/6
f 223/4/6 219/4/6 227/4/6
f 220/5/6 224/5/6 228/5/6
f 225/1/6 226/1/6 228/1/6
f 224/1/6 225/1/6 228/1/6
f 228/1/6 226/1/6 229/1/6
f 226/3/6 227/3/6 230/3/6
f 229/1/6 226/1/6 230/1/6
f 227/7/6 212/7/6 231/7/6
f 230/3/6 227/3/6 231/3/6
f 213/1/6 220/1/6 232/1/6
f 228/5/6 229/5/6 232/5/6
f 220/5/6 228/5/6 232/5/6
f 232/5/6 229/5/6 233/5/6
f 229/1/6 230/1/6 234/1/6
f 230/4/6 231/4/6 234/4/6
f 234/4/6 231/4/6 235/4/6
f 208/7/6 213/7/6 236/7/6
f 232/1/6 233/1/6 236/1/6
f 213/1/6 232/1/6 236/1/6
f 233/5/6 229/5/6 237/5/6
f 236/1/6 233/1/6 237/1/6
f 229/1/6 234/1/6 238/1/6
f 237/5/6 229/5/6 238/5/6
f 234/3/6 235/3/6 239/3/6
f 238/1/6 234/1/6 239/1/6
f 239/3/6 235/3/6 240/3/6
f 235/4/6 231/4/6 241/4/6
f 240/3/6 235/3/6 241/3/6
f 231/7/6 212/7/6 242/7/6
f 241/4/6 231/4/6 242/4/6
f 208/7/6 236/7/6 243/7/6
f 236/7/6 237/7/6 243/7/6
f 237/5/6 238/5/6 244/5/6
f 243/7/6 237/7/6 244/7/6
f 238/5/6 239/5/6 244/5/6
f 239/4/6 240/4/6 245/4/6
f 244/5/6 239/5/6 245/5/6
f 240/7/6 241/7/6 246/7/6
f 245/4/6 240/4/6 246/4/6
f 241/7/6 242/7/6 246/7/6
f 242/7/6 212/7/6 247/7/6
f 246/7/6 242/7/6 247/7/6
