# MagicaVoxel @ Ephtracy

# material
mtllib ǽ3.mtl
usemtl palette

# normals
vn -1 0 0
vn 1 0 0
vn 0 0 1
vn 0 0 -1
vn 0 -1 0
vn 0 1 0

# texcoords
vt 0.958984 0.5
vt 0.962891 0.5

# verts
v -3.5 0 7.5
v -3.5 0 -7.5
v -3.5 11 7.5
v -3.5 11 -7.5
v -3.5 44 7.5
v -3.5 44 -7.5
v -3.5 50 7.5
v -3.5 50 -7.5
v -1.5 11 7.5
v -1.5 11 -7.5
v -1.5 12 7.5
v -1.5 12 0.5
v -1.5 12 -0.5
v -1.5 12 -7.5
v -1.5 36 7.5
v -1.5 36 0.5
v -1.5 36 -0.5
v -1.5 36 -7.5
v -1.5 37 7.5
v -1.5 37 0.5
v -1.5 37 -0.5
v -1.5 37 -7.5
v -1.5 43 7.5
v -1.5 43 0.5
v -1.5 43 -0.5
v -1.5 43 -7.5
v -1.5 44 7.5
v -1.5 44 -7.5
v 1.5 11 7.5
v 1.5 11 -7.5
v 1.5 12 7.5
v 1.5 12 0.5
v 1.5 12 -0.5
v 1.5 12 -7.5
v 1.5 36 7.5
v 1.5 36 0.5
v 1.5 36 -0.5
v 1.5 36 -7.5
v 1.5 37 7.5
v 1.5 37 0.5
v 1.5 37 -0.5
v 1.5 37 -7.5
v 1.5 43 7.5
v 1.5 43 0.5
v 1.5 43 -0.5
v 1.5 43 -7.5
v 1.5 44 7.5
v 1.5 44 -7.5
v 3.5 0 7.5
v 3.5 0 -7.5
v 3.5 11 7.5
v 3.5 11 -7.5
v 3.5 44 7.5
v 3.5 44 -7.5
v 3.5 50 7.5
v 3.5 50 -7.5
v -3.5 0 7.5
v -3.5 11 7.5
v -3.5 44 7.5
v -3.5 50 7.5
v -1.5 11 7.5
v -1.5 12 7.5
v -1.5 36 7.5
v -1.5 37 7.5
v -1.5 43 7.5
v -1.5 44 7.5
v 1.5 11 7.5
v 1.5 12 7.5
v 1.5 36 7.5
v 1.5 37 7.5
v 1.5 43 7.5
v 1.5 44 7.5
v 3.5 0 7.5
v 3.5 11 7.5
v 3.5 44 7.5
v 3.5 50 7.5
v -1.5 12 0.5
v -1.5 36 0.5
v -1.5 37 0.5
v -1.5 43 0.5
v 1.5 12 0.5
v 1.5 36 0.5
v 1.5 37 0.5
v 1.5 43 0.5
v -1.5 12 -0.5
v -1.5 36 -0.5
v -1.5 37 -0.5
v -1.5 43 -0.5
v 1.5 12 -0.5
v 1.5 36 -0.5
v 1.5 37 -0.5
v 1.5 43 -0.5
v -3.5 0 -7.5
v -3.5 11 -7.5
v -3.5 44 -7.5
v -3.5 50 -7.5
v -1.5 11 -7.5
v -1.5 12 -7.5
v -1.5 36 -7.5
v -1.5 37 -7.5
v -1.5 43 -7.5
v -1.5 44 -7.5
v 1.5 11 -7.5
v 1.5 12 -7.5
v 1.5 36 -7.5
v 1.5 37 -7.5
v 1.5 43 -7.5
v 1.5 44 -7.5
v 3.5 0 -7.5
v 3.5 11 -7.5
v 3.5 44 -7.5
v 3.5 50 -7.5
v -3.5 0 7.5
v 3.5 0 7.5
v -3.5 0 -7.5
v 3.5 0 -7.5
v -1.5 36 7.5
v 1.5 36 7.5
v -1.5 36 0.5
v 1.5 36 0.5
v -1.5 36 -0.5
v 1.5 36 -0.5
v -1.5 36 -7.5
v 1.5 36 -7.5
v -1.5 43 7.5
v 1.5 43 7.5
v -1.5 43 0.5
v 1.5 43 0.5
v -1.5 43 -0.5
v 1.5 43 -0.5
v -1.5 43 -7.5
v 1.5 43 -7.5
v -3.5 44 7.5
v -1.5 44 7.5
v 1.5 44 7.5
v 3.5 44 7.5
v -3.5 44 -7.5
v -1.5 44 -7.5
v 1.5 44 -7.5
v 3.5 44 -7.5
v -3.5 11 7.5
v -1.5 11 7.5
v 1.5 11 7.5
v 3.5 11 7.5
v -3.5 11 -7.5
v -1.5 11 -7.5
v 1.5 11 -7.5
v 3.5 11 -7.5
v -1.5 12 7.5
v 1.5 12 7.5
v -1.5 12 0.5
v 1.5 12 0.5
v -1.5 12 -0.5
v 1.5 12 -0.5
v -1.5 12 -7.5
v 1.5 12 -7.5
v -1.5 37 7.5
v 1.5 37 7.5
v -1.5 37 0.5
v 1.5 37 0.5
v -1.5 37 -0.5
v 1.5 37 -0.5
v -1.5 37 -7.5
v 1.5 37 -7.5
v -3.5 50 7.5
v 3.5 50 7.5
v -3.5 50 -7.5
v 3.5 50 -7.5

# faces
f 3/1/1 2/1/1 1/1/1
f 4/1/1 2/1/1 3/1/1
f 7/1/1 6/1/1 5/1/1
f 8/1/1 6/1/1 7/1/1
f 11/2/1 10/2/1 9/2/1
f 12/2/1 10/2/1 11/2/1
f 13/2/1 10/2/1 12/2/1
f 14/2/1 10/2/1 13/2/1
f 16/2/1 13/2/1 12/2/1
f 17/2/1 13/2/1 16/2/1
f 19/2/1 16/2/1 15/2/1
f 19/2/1 18/2/1 17/2/1
f 19/2/1 17/2/1 16/2/1
f 20/2/1 18/2/1 19/2/1
f 21/2/1 18/2/1 20/2/1
f 22/2/1 18/2/1 21/2/1
f 24/2/1 21/2/1 20/2/1
f 25/2/1 21/2/1 24/2/1
f 27/2/1 24/2/1 23/2/1
f 27/2/1 26/2/1 25/2/1
f 27/2/1 25/2/1 24/2/1
f 28/2/1 26/2/1 27/2/1
f 29/2/2 30/2/2 31/2/2
f 31/2/2 30/2/2 32/2/2
f 32/2/2 30/2/2 33/2/2
f 33/2/2 30/2/2 34/2/2
f 32/2/2 33/2/2 36/2/2
f 36/2/2 33/2/2 37/2/2
f 35/2/2 36/2/2 39/2/2
f 37/2/2 38/2/2 39/2/2
f 36/2/2 37/2/2 39/2/2
f 39/2/2 38/2/2 40/2/2
f 40/2/2 38/2/2 41/2/2
f 41/2/2 38/2/2 42/2/2
f 40/2/2 41/2/2 44/2/2
f 44/2/2 41/2/2 45/2/2
f 43/2/2 44/2/2 47/2/2
f 45/2/2 46/2/2 47/2/2
f 44/2/2 45/2/2 47/2/2
f 47/2/2 46/2/2 48/2/2
f 49/1/2 50/1/2 51/1/2
f 51/1/2 50/1/2 52/1/2
f 53/1/2 54/1/2 55/1/2
f 55/1/2 54/1/2 56/1/2
f 61/1/3 58/1/3 57/1/3
f 66/1/3 60/1/3 59/1/3
f 67/1/3 61/1/3 57/1/3
f 67/2/3 62/2/3 61/2/3
f 68/2/3 62/2/3 67/2/3
f 69/2/3 64/2/3 63/2/3
f 70/2/3 64/2/3 69/2/3
f 71/2/3 66/2/3 65/2/3
f 72/1/3 60/1/3 66/1/3
f 72/2/3 66/2/3 71/2/3
f 73/1/3 67/1/3 57/1/3
f 74/1/3 67/1/3 73/1/3
f 75/1/3 60/1/3 72/1/3
f 76/1/3 60/1/3 75/1/3
f 81/2/3 78/2/3 77/2/3
f 82/2/3 78/2/3 81/2/3
f 83/2/3 80/2/3 79/2/3
f 84/2/3 80/2/3 83/2/3
f 85/2/4 86/2/4 89/2/4
f 89/2/4 86/2/4 90/2/4
f 87/2/4 88/2/4 91/2/4
f 91/2/4 88/2/4 92/2/4
f 93/1/4 94/1/4 97/1/4
f 95/1/4 96/1/4 102/1/4
f 93/1/4 97/1/4 103/1/4
f 97/2/4 98/2/4 103/2/4
f 103/2/4 98/2/4 104/2/4
f 99/2/4 100/2/4 105/2/4
f 105/2/4 100/2/4 106/2/4
f 101/2/4 102/2/4 107/2/4
f 102/1/4 96/1/4 108/1/4
f 107/2/4 102/2/4 108/2/4
f 93/1/4 103/1/4 109/1/4
f 109/1/4 103/1/4 110/1/4
f 108/1/4 96/1/4 111/1/4
f 111/1/4 96/1/4 112/1/4
f 115/1/5 114/1/5 113/1/5
f 116/1/5 114/1/5 115/1/5
f 119/2/5 118/2/5 117/2/5
f 120/2/5 118/2/5 119/2/5
f 123/2/5 122/2/5 121/2/5
f 124/2/5 122/2/5 123/2/5
f 127/2/5 126/2/5 125/2/5
f 128/2/5 126/2/5 127/2/5
f 131/2/5 130/2/5 129/2/5
f 132/2/5 130/2/5 131/2/5
f 137/1/5 134/1/5 133/1/5
f 138/1/5 134/1/5 137/1/5
f 139/1/5 136/1/5 135/1/5
f 140/1/5 136/1/5 139/1/5
f 141/1/6 142/1/6 145/1/6
f 145/1/6 142/1/6 146/1/6
f 143/1/6 144/1/6 147/1/6
f 147/1/6 144/1/6 148/1/6
f 149/2/6 150/2/6 151/2/6
f 151/2/6 150/2/6 152/2/6
f 153/2/6 154/2/6 155/2/6
f 155/2/6 154/2/6 156/2/6
f 157/2/6 158/2/6 159/2/6
f 159/2/6 158/2/6 160/2/6
f 161/2/6 162/2/6 163/2/6
f 163/2/6 162/2/6 164/2/6
f 165/1/6 166/1/6 167/1/6
f 167/1/6 166/1/6 168/1/6
