# MagicaVoxel @ Ephtracy

# material
mtllib ¸ß¿Æ¼¼°å.mtl
usemtl palette

# normals
vn -1 0 0
vn 1 0 0
vn 0 0 1
vn 0 0 -1
vn 0 -1 0
vn 0 1 0

# texcoords
vt 0.564453 0.5
vt 0.970703 0.5
vt 0.978516 0.5
vt 0.982422 0.5

# verts
v -7.5 12 5.5
v -7.5 12 -4.5
v -7.5 14 5.5
v -7.5 14 4.5
v -7.5 14 0.5
v -7.5 14 -4.5
v -7.5 15 5.5
v -7.5 15 4.5
v -7.5 15 0.5
v -7.5 15 -4.5
v -5.5 12 7.5
v -5.5 12 5.5
v -5.5 12 -4.5
v -5.5 12 -7.5
v -5.5 14 7.5
v -5.5 14 5.5
v -5.5 14 3.5
v -5.5 14 -2.5
v -5.5 14 -4.5
v -5.5 14 -7.5
v -5.5 15 7.5
v -5.5 15 5.5
v -5.5 15 3.5
v -5.5 15 -2.5
v -5.5 15 -4.5
v -5.5 15 -7.5
v -3.5 14 7.5
v -3.5 14 3.5
v -3.5 14 -2.5
v -3.5 14 -4.5
v -3.5 14 -7.5
v -3.5 15 7.5
v -3.5 15 3.5
v -3.5 15 -2.5
v -3.5 15 -4.5
v -3.5 15 -7.5
v -6.5 14 4.5
v -6.5 14 0.5
v -6.5 14 -3.5
v -6.5 15 4.5
v -6.5 15 0.5
v -6.5 15 -3.5
v -4.5 14 7.5
v -4.5 14 4.5
v -4.5 14 -3.5
v -4.5 14 -7.5
v -4.5 15 7.5
v -4.5 15 4.5
v -4.5 15 -3.5
v -4.5 15 -7.5
v 6.5 12 5.5
v 6.5 12 -4.5
v 6.5 14 5.5
v 6.5 14 2.5
v 6.5 14 -1.5
v 6.5 14 -4.5
v 6.5 15 5.5
v 6.5 15 2.5
v 6.5 15 -1.5
v 6.5 15 -4.5
v 7.5 12 7.5
v 7.5 12 5.5
v 7.5 12 -4.5
v 7.5 12 -7.5
v 7.5 14 7.5
v 7.5 14 6.5
v 7.5 14 5.5
v 7.5 14 -4.5
v 7.5 14 -5.5
v 7.5 14 -7.5
v 7.5 15 7.5
v 7.5 15 6.5
v 7.5 15 5.5
v 7.5 15 -4.5
v 7.5 15 -5.5
v 7.5 15 -7.5
v -5.5 12 7.5
v -5.5 14 7.5
v -5.5 15 7.5
v -4.5 13 7.5
v -4.5 14 7.5
v -4.5 15 7.5
v -3.5 13 7.5
v -3.5 14 7.5
v -3.5 15 7.5
v -2.5 14 7.5
v -2.5 15 7.5
v 6.5 14 7.5
v 6.5 15 7.5
v 7.5 12 7.5
v 7.5 14 7.5
v 7.5 15 7.5
v -7.5 12 5.5
v -7.5 14 5.5
v -7.5 15 5.5
v -5.5 12 5.5
v -5.5 14 5.5
v -5.5 15 5.5
v -5.5 14 3.5
v -5.5 15 3.5
v -3.5 14 3.5
v -3.5 15 3.5
v -6.5 14 -3.5
v -6.5 15 -3.5
v -4.5 14 -3.5
v -4.5 15 -3.5
v 6.5 12 -4.5
v 6.5 14 -4.5
v 6.5 15 -4.5
v 7.5 12 -4.5
v 7.5 14 -4.5
v 7.5 15 -4.5
v 6.5 12 5.5
v 6.5 14 5.5
v 6.5 15 5.5
v 7.5 12 5.5
v 7.5 14 5.5
v 7.5 15 5.5
v -6.5 14 4.5
v -6.5 15 4.5
v -4.5 14 4.5
v -4.5 15 4.5
v -5.5 14 -2.5
v -5.5 15 -2.5
v -3.5 14 -2.5
v -3.5 15 -2.5
v -7.5 12 -4.5
v -7.5 14 -4.5
v -7.5 15 -4.5
v -5.5 12 -4.5
v -5.5 14 -4.5
v -5.5 15 -4.5
v -5.5 12 -7.5
v -5.5 14 -7.5
v -5.5 15 -7.5
v -4.5 13 -7.5
v -4.5 14 -7.5
v -4.5 15 -7.5
v -3.5 13 -7.5
v -3.5 14 -7.5
v -3.5 15 -7.5
v -2.5 14 -7.5
v -2.5 15 -7.5
v 6.5 14 -7.5
v 6.5 15 -7.5
v 7.5 12 -7.5
v 7.5 14 -7.5
v 7.5 15 -7.5
v -5.5 12 7.5
v 7.5 12 7.5
v -7.5 12 5.5
v -5.5 12 5.5
v 6.5 12 5.5
v 7.5 12 5.5
v -7.5 12 -4.5
v -5.5 12 -4.5
v 6.5 12 -4.5
v 7.5 12 -4.5
v -5.5 12 -7.5
v 7.5 12 -7.5
v -4.5 14 7.5
v -3.5 14 7.5
v -6.5 14 4.5
v -4.5 14 4.5
v -5.5 14 3.5
v -3.5 14 3.5
v -6.5 14 0.5
v -5.5 14 -2.5
v -3.5 14 -2.5
v -6.5 14 -3.5
v -4.5 14 -3.5
v -3.5 14 -4.5
v -4.5 14 -7.5
v -3.5 14 -7.5
v -5.5 15 7.5
v -4.5 15 7.5
v -3.5 15 7.5
v -2.5 15 7.5
v 6.5 15 7.5
v 7.5 15 7.5
v 5.5 15 6.5
v 6.5 15 6.5
v 7.5 15 6.5
v -7.5 15 5.5
v -5.5 15 5.5
v 6.5 15 5.5
v 7.5 15 5.5
v -7.5 15 4.5
v -6.5 15 4.5
v -4.5 15 4.5
v -5.5 15 3.5
v -3.5 15 3.5
v -4.5 15 2.5
v -2.5 15 2.5
v 5.5 15 2.5
v 6.5 15 2.5
v -7.5 15 0.5
v -6.5 15 0.5
v -4.5 15 -1.5
v -2.5 15 -1.5
v 5.5 15 -1.5
v 6.5 15 -1.5
v -5.5 15 -2.5
v -3.5 15 -2.5
v -2.5 15 -2.5
v -6.5 15 -3.5
v -4.5 15 -3.5
v -7.5 15 -4.5
v -5.5 15 -4.5
v -3.5 15 -4.5
v -2.5 15 -4.5
v 6.5 15 -4.5
v 7.5 15 -4.5
v 5.5 15 -5.5
v 6.5 15 -5.5
v 7.5 15 -5.5
v -5.5 15 -7.5
v -4.5 15 -7.5
v -3.5 15 -7.5
v -2.5 15 -7.5
v 6.5 15 -7.5
v 7.5 15 -7.5

# faces
f 3/4/1 2/4/1 1/4/1
f 4/4/1 2/4/1 3/4/1
f 5/4/1 2/4/1 4/4/1
f 6/4/1 2/4/1 5/4/1
f 7/3/1 4/3/1 3/3/1
f 8/2/1 5/2/1 4/2/1
f 8/3/1 4/3/1 7/3/1
f 9/3/1 6/3/1 5/3/1
f 9/2/1 5/2/1 8/2/1
f 10/3/1 6/3/1 9/3/1
f 15/4/1 12/4/1 11/4/1
f 16/4/1 12/4/1 15/4/1
f 19/4/1 14/4/1 13/4/1
f 20/4/1 14/4/1 19/4/1
f 21/3/1 16/3/1 15/3/1
f 22/3/1 16/3/1 21/3/1
f 23/3/1 18/3/1 17/3/1
f 24/3/1 18/3/1 23/3/1
f 25/3/1 20/3/1 19/3/1
f 26/3/1 20/3/1 25/3/1
f 32/3/1 28/3/1 27/3/1
f 33/3/1 28/3/1 32/3/1
f 34/2/1 30/2/1 29/2/1
f 35/3/1 31/3/1 30/3/1
f 35/2/1 30/2/1 34/2/1
f 36/3/1 31/3/1 35/3/1
f 37/2/2 38/2/2 40/2/2
f 38/3/2 39/3/2 41/3/2
f 40/2/2 38/2/2 41/2/2
f 41/3/2 39/3/2 42/3/2
f 43/3/2 44/3/2 47/3/2
f 47/3/2 44/3/2 48/3/2
f 45/3/2 46/3/2 49/3/2
f 49/3/2 46/3/2 50/3/2
f 51/4/2 52/4/2 53/4/2
f 53/4/2 52/4/2 54/4/2
f 54/4/2 52/4/2 55/4/2
f 55/4/2 52/4/2 56/4/2
f 53/3/2 54/3/2 57/3/2
f 54/2/2 55/2/2 58/2/2
f 57/3/2 54/3/2 58/3/2
f 55/3/2 56/3/2 59/3/2
f 58/2/2 55/2/2 59/2/2
f 59/3/2 56/3/2 60/3/2
f 61/4/2 62/4/2 65/4/2
f 65/4/2 62/4/2 66/4/2
f 66/4/2 62/4/2 67/4/2
f 63/4/2 64/4/2 68/4/2
f 68/4/2 64/4/2 69/4/2
f 69/4/2 64/4/2 70/4/2
f 65/2/2 66/2/2 71/2/2
f 66/3/2 67/3/2 72/3/2
f 71/2/2 66/2/2 72/2/2
f 72/3/2 67/3/2 73/3/2
f 68/3/2 69/3/2 74/3/2
f 69/2/2 70/2/2 75/2/2
f 74/3/2 69/3/2 75/3/2
f 75/2/2 70/2/2 76/2/2
f 80/4/3 78/4/3 77/4/3
f 81/3/3 79/3/3 78/3/3
f 81/4/3 78/4/3 80/4/3
f 82/3/3 79/3/3 81/3/3
f 83/4/3 80/4/3 77/4/3
f 83/1/3 81/1/3 80/1/3
f 84/1/3 81/1/3 83/1/3
f 86/4/3 84/4/3 83/4/3
f 86/3/3 85/3/3 84/3/3
f 87/3/3 85/3/3 86/3/3
f 88/4/3 86/4/3 83/4/3
f 88/4/3 87/4/3 86/4/3
f 89/4/3 87/4/3 88/4/3
f 90/4/3 83/4/3 77/4/3
f 90/4/3 88/4/3 83/4/3
f 91/2/3 89/2/3 88/2/3
f 91/4/3 88/4/3 90/4/3
f 92/2/3 89/2/3 91/2/3
f 96/4/3 94/4/3 93/4/3
f 97/3/3 95/3/3 94/3/3
f 97/4/3 94/4/3 96/4/3
f 98/3/3 95/3/3 97/3/3
f 101/3/3 100/3/3 99/3/3
f 102/3/3 100/3/3 101/3/3
f 105/3/3 104/3/3 103/3/3
f 106/3/3 104/3/3 105/3/3
f 110/4/3 108/4/3 107/4/3
f 111/3/3 109/3/3 108/3/3
f 111/4/3 108/4/3 110/4/3
f 112/3/3 109/3/3 111/3/3
f 113/4/4 114/4/4 116/4/4
f 114/3/4 115/3/4 117/3/4
f 116/4/4 114/4/4 117/4/4
f 117/3/4 115/3/4 118/3/4
f 119/3/4 120/3/4 121/3/4
f 121/3/4 120/3/4 122/3/4
f 123/3/4 124/3/4 125/3/4
f 125/3/4 124/3/4 126/3/4
f 127/4/4 128/4/4 130/4/4
f 128/3/4 129/3/4 131/3/4
f 130/4/4 128/4/4 131/4/4
f 131/3/4 129/3/4 132/3/4
f 133/4/4 134/4/4 136/4/4
f 134/3/4 135/3/4 137/3/4
f 136/4/4 134/4/4 137/4/4
f 137/3/4 135/3/4 138/3/4
f 133/4/4 136/4/4 139/4/4
f 136/1/4 137/1/4 139/1/4
f 139/1/4 137/1/4 140/1/4
f 139/4/4 140/4/4 142/4/4
f 140/3/4 141/3/4 142/3/4
f 142/3/4 141/3/4 143/3/4
f 139/4/4 142/4/4 144/4/4
f 142/4/4 143/4/4 144/4/4
f 144/4/4 143/4/4 145/4/4
f 133/4/4 139/4/4 146/4/4
f 139/4/4 144/4/4 146/4/4
f 144/2/4 145/2/4 147/2/4
f 146/4/4 144/4/4 147/4/4
f 147/2/4 145/2/4 148/2/4
f 152/4/5 150/4/5 149/4/5
f 153/4/5 150/4/5 152/4/5
f 154/4/5 150/4/5 153/4/5
f 155/4/5 152/4/5 151/4/5
f 155/4/5 153/4/5 152/4/5
f 156/4/5 153/4/5 155/4/5
f 157/4/5 153/4/5 156/4/5
f 159/4/5 158/4/5 157/4/5
f 159/4/5 157/4/5 156/4/5
f 160/4/5 158/4/5 159/4/5
f 161/1/6 162/1/6 164/1/6
f 163/1/6 164/1/6 165/1/6
f 164/1/6 162/1/6 166/1/6
f 165/1/6 164/1/6 166/1/6
f 163/1/6 165/1/6 167/1/6
f 167/1/6 165/1/6 168/1/6
f 167/1/6 168/1/6 170/1/6
f 168/1/6 169/1/6 170/1/6
f 170/1/6 169/1/6 171/1/6
f 171/1/6 169/1/6 172/1/6
f 171/1/6 172/1/6 173/1/6
f 173/1/6 172/1/6 174/1/6
f 178/4/6 179/4/6 181/4/6
f 179/2/6 180/2/6 182/2/6
f 181/4/6 179/4/6 182/4/6
f 182/2/6 180/2/6 183/2/6
f 175/3/6 176/3/6 185/3/6
f 181/3/6 182/3/6 186/3/6
f 182/3/6 183/3/6 186/3/6
f 186/3/6 183/3/6 187/3/6
f 184/3/6 185/3/6 188/3/6
f 188/3/6 185/3/6 189/3/6
f 185/3/6 176/3/6 190/3/6
f 189/3/6 185/3/6 190/3/6
f 177/3/6 178/3/6 192/3/6
f 191/3/6 192/3/6 193/3/6
f 178/4/6 181/4/6 194/4/6
f 193/3/6 192/3/6 194/3/6
f 192/3/6 178/3/6 194/3/6
f 181/3/6 186/3/6 195/3/6
f 194/4/6 181/4/6 195/4/6
f 195/3/6 186/3/6 196/3/6
f 188/2/6 189/2/6 197/2/6
f 197/2/6 189/2/6 198/2/6
f 191/3/6 193/3/6 199/3/6
f 193/4/6 194/4/6 199/4/6
f 194/4/6 195/4/6 199/4/6
f 199/4/6 195/4/6 200/4/6
f 195/2/6 196/2/6 201/2/6
f 200/4/6 195/4/6 201/4/6
f 201/2/6 196/2/6 202/2/6
f 199/3/6 200/3/6 203/3/6
f 191/3/6 199/3/6 203/3/6
f 203/3/6 200/3/6 204/3/6
f 200/4/6 201/4/6 205/4/6
f 204/3/6 200/3/6 205/3/6
f 197/3/6 198/3/6 206/3/6
f 197/3/6 206/3/6 208/3/6
f 206/3/6 207/3/6 208/3/6
f 208/3/6 207/3/6 209/3/6
f 204/2/6 205/2/6 210/2/6
f 205/4/6 201/4/6 211/4/6
f 210/2/6 205/2/6 211/2/6
f 201/3/6 202/3/6 212/3/6
f 201/3/6 212/3/6 214/3/6
f 212/3/6 213/3/6 214/3/6
f 211/4/6 201/4/6 214/4/6
f 214/3/6 213/3/6 215/3/6
f 215/3/6 213/3/6 216/3/6
f 209/3/6 207/3/6 217/3/6
f 217/3/6 207/3/6 218/3/6
f 210/3/6 211/3/6 219/3/6
f 211/4/6 214/4/6 220/4/6
f 219/3/6 211/3/6 220/3/6
f 214/4/6 215/4/6 220/4/6
f 215/2/6 216/2/6 221/2/6
f 220/4/6 215/4/6 221/4/6
f 221/2/6 216/2/6 222/2/6
