# MagicaVoxel @ Ephtracy

# material
mtllib Ö±Éý»úÎ²Òí.mtl
usemtl palette

# normals
vn -1 0 0
vn 1 0 0
vn 0 0 1
vn 0 0 -1
vn 0 -1 0
vn 0 1 0

# texcoords
vt 0.373047 0.5
vt 0.966797 0.5
vt 0.994141 0.5

# verts
v -3 4 -15
v -3 4 -16
v -3 5 -12
v -3 5 -13
v -3 5 -14
v -3 5 -15
v -3 5 -16
v -3 6 -12
v -3 6 -13
v -3 6 -14
v -3 6 -15
v -3 6 -16
v -3 7 -13
v -3 7 -14
v -3 7 -15
v -3 7 -16
v -3 7 -17
v -3 8 -13
v -3 8 -14
v -3 8 -15
v -3 8 -16
v -3 8 -17
v -3 9 -13
v -3 9 -14
v -2 4 -15
v -2 4 -16
v -2 5 -12
v -2 5 -13
v -2 5 -14
v -2 5 -15
v -2 5 -16
v -2 6 -12
v -2 6 -13
v -2 6 -14
v -2 6 -15
v -2 6 -16
v -2 7 -13
v -2 7 -14
v -2 7 -15
v -2 7 -16
v -2 7 -17
v -2 8 -13
v -2 8 -14
v -2 8 -15
v -2 8 -16
v -2 8 -17
v -2 9 -13
v -2 9 -14
v -1 6 -14
v -1 6 -15
v -1 7 -14
v -1 7 -15
v -3 5 -12
v -3 6 -12
v -2 5 -12
v -2 6 -12
v -3 6 -13
v -3 7 -13
v -3 8 -13
v -3 9 -13
v -2 6 -13
v -2 7 -13
v -2 8 -13
v -2 9 -13
v -3 5 -14
v -3 6 -14
v -3 7 -14
v -3 8 -14
v -2 5 -14
v -2 6 -14
v -2 7 -14
v -2 8 -14
v -1 6 -14
v -1 7 -14
v -3 4 -15
v -3 5 -15
v -2 4 -15
v -2 5 -15
v -3 7 -16
v -3 8 -16
v -2 7 -16
v -2 8 -16
v -3 5 -13
v -3 6 -13
v -2 5 -13
v -2 6 -13
v -3 8 -14
v -3 9 -14
v -2 8 -14
v -2 9 -14
v -3 5 -15
v -3 6 -15
v -3 7 -15
v -3 8 -15
v -2 5 -15
v -2 6 -15
v -2 7 -15
v -2 8 -15
v -1 6 -15
v -1 7 -15
v -3 4 -16
v -3 5 -16
v -3 6 -16
v -3 7 -16
v -2 4 -16
v -2 5 -16
v -2 6 -16
v -2 7 -16
v -3 7 -17
v -3 8 -17
v -2 7 -17
v -2 8 -17
v -3 4 -15
v -2 4 -15
v -3 4 -16
v -2 4 -16
v -3 5 -12
v -2 5 -12
v -3 5 -13
v -2 5 -13
v -3 5 -14
v -2 5 -14
v -3 5 -15
v -2 5 -15
v -3 6 -13
v -2 6 -13
v -3 6 -14
v -2 6 -14
v -1 6 -14
v -3 6 -15
v -2 6 -15
v -1 6 -15
v -3 6 -16
v -2 6 -16
v -3 7 -16
v -2 7 -16
v -3 7 -17
v -2 7 -17
v -3 8 -13
v -2 8 -13
v -3 8 -14
v -2 8 -14
v -3 5 -15
v -2 5 -15
v -3 5 -16
v -2 5 -16
v -3 6 -12
v -2 6 -12
v -3 6 -13
v -2 6 -13
v -3 7 -13
v -2 7 -13
v -3 7 -14
v -2 7 -14
v -1 7 -14
v -3 7 -15
v -2 7 -15
v -1 7 -15
v -3 7 -16
v -2 7 -16
v -3 8 -14
v -2 8 -14
v -3 8 -15
v -2 8 -15
v -3 8 -16
v -2 8 -16
v -3 8 -17
v -2 8 -17
v -3 9 -13
v -2 9 -13
v -3 9 -14
v -2 9 -14

# faces
f 6/1/1 2/1/1 1/1/1
f 7/1/1 2/1/1 6/1/1
f 8/1/1 4/1/1 3/1/1
f 9/1/1 4/1/1 8/1/1
f 10/3/1 6/3/1 5/3/1
f 11/3/1 6/3/1 10/3/1
f 13/3/1 10/3/1 9/3/1
f 14/2/1 11/2/1 10/2/1
f 14/3/1 10/3/1 13/3/1
f 15/3/1 12/3/1 11/3/1
f 15/2/1 11/2/1 14/2/1
f 16/3/1 12/3/1 15/3/1
f 19/3/1 15/3/1 14/3/1
f 20/3/1 15/3/1 19/3/1
f 21/1/1 17/1/1 16/1/1
f 22/1/1 17/1/1 21/1/1
f 23/1/1 19/1/1 18/1/1
f 24/1/1 19/1/1 23/1/1
f 25/1/2 26/1/2 30/1/2
f 30/1/2 26/1/2 31/1/2
f 27/1/2 28/1/2 32/1/2
f 32/1/2 28/1/2 33/1/2
f 29/3/2 30/3/2 34/3/2
f 34/3/2 30/3/2 35/3/2
f 33/3/2 34/3/2 37/3/2
f 37/3/2 34/3/2 38/3/2
f 35/3/2 36/3/2 39/3/2
f 39/3/2 36/3/2 40/3/2
f 38/3/2 39/3/2 43/3/2
f 43/3/2 39/3/2 44/3/2
f 40/1/2 41/1/2 45/1/2
f 45/1/2 41/1/2 46/1/2
f 42/1/2 43/1/2 47/1/2
f 47/1/2 43/1/2 48/1/2
f 49/2/2 50/2/2 51/2/2
f 51/2/2 50/2/2 52/2/2
f 55/1/3 54/1/3 53/1/3
f 56/1/3 54/1/3 55/1/3
f 61/3/3 58/3/3 57/3/3
f 62/3/3 58/3/3 61/3/3
f 63/1/3 60/1/3 59/1/3
f 64/1/3 60/1/3 63/1/3
f 69/3/3 66/3/3 65/3/3
f 70/3/3 66/3/3 69/3/3
f 71/3/3 68/3/3 67/3/3
f 72/3/3 68/3/3 71/3/3
f 73/2/3 71/2/3 70/2/3
f 74/2/3 71/2/3 73/2/3
f 77/1/3 76/1/3 75/1/3
f 78/1/3 76/1/3 77/1/3
f 81/1/3 80/1/3 79/1/3
f 82/1/3 80/1/3 81/1/3
f 83/1/4 84/1/4 85/1/4
f 85/1/4 84/1/4 86/1/4
f 87/1/4 88/1/4 89/1/4
f 89/1/4 88/1/4 90/1/4
f 91/3/4 92/3/4 95/3/4
f 95/3/4 92/3/4 96/3/4
f 93/3/4 94/3/4 97/3/4
f 97/3/4 94/3/4 98/3/4
f 96/2/4 97/2/4 99/2/4
f 99/2/4 97/2/4 100/2/4
f 101/1/4 102/1/4 105/1/4
f 105/1/4 102/1/4 106/1/4
f 103/3/4 104/3/4 107/3/4
f 107/3/4 104/3/4 108/3/4
f 109/1/4 110/1/4 111/1/4
f 111/1/4 110/1/4 112/1/4
f 115/1/5 114/1/5 113/1/5
f 116/1/5 114/1/5 115/1/5
f 119/1/5 118/1/5 117/1/5
f 120/1/5 118/1/5 119/1/5
f 123/3/5 122/3/5 121/3/5
f 124/3/5 122/3/5 123/3/5
f 127/3/5 126/3/5 125/3/5
f 128/3/5 126/3/5 127/3/5
f 131/2/5 129/2/5 128/2/5
f 132/2/5 129/2/5 131/2/5
f 133/3/5 131/3/5 130/3/5
f 134/3/5 131/3/5 133/3/5
f 137/1/5 136/1/5 135/1/5
f 138/1/5 136/1/5 137/1/5
f 141/1/5 140/1/5 139/1/5
f 142/1/5 140/1/5 141/1/5
f 143/1/6 144/1/6 145/1/6
f 145/1/6 144/1/6 146/1/6
f 147/1/6 148/1/6 149/1/6
f 149/1/6 148/1/6 150/1/6
f 151/3/6 152/3/6 153/3/6
f 153/3/6 152/3/6 154/3/6
f 154/2/6 155/2/6 157/2/6
f 157/2/6 155/2/6 158/2/6
f 156/3/6 157/3/6 159/3/6
f 159/3/6 157/3/6 160/3/6
f 161/3/6 162/3/6 163/3/6
f 163/3/6 162/3/6 164/3/6
f 165/1/6 166/1/6 167/1/6
f 167/1/6 166/1/6 168/1/6
f 169/1/6 170/1/6 171/1/6
f 171/1/6 170/1/6 172/1/6
