# MagicaVoxel @ Ephtracy

# material
mtllib spear.mtl
usemtl palette

# normals
vn -1 0 0
vn 1 0 0
vn 0 0 1
vn 0 0 -1
vn 0 -1 0
vn 0 1 0

# texcoords
vt 0.00195313 0.5
vt 0.00585938 0.5
vt 0.00976563 0.5
vt 0.0175781 0.5
vt 0.0214844 0.5
vt 0.935547 0.5
vt 0.951172 0.5
vt 0.966797 0.5
vt 0.970703 0.5
vt 0.974609 0.5

# verts
v -2.5 19 0.5
v -2.5 19 -0.5
v -2.5 21 0.5
v -2.5 21 -0.5
v -2.5 22 0.5
v -2.5 22 -0.5
v -1.5 1 0.5
v -1.5 1 -0.5
v -1.5 2 0.5
v -1.5 2 -0.5
v -1.5 4 0.5
v -1.5 4 -0.5
v -1.5 18 0.5
v -1.5 18 -0.5
v -1.5 19 0.5
v -1.5 19 -0.5
v -1.5 22 0.5
v -1.5 22 -0.5
v -1.5 25 0.5
v -1.5 25 -0.5
v -0.5 0 0.5
v -0.5 0 -0.5
v -0.5 1 0.5
v -0.5 1 -0.5
v -0.5 4 0.5
v -0.5 4 -0.5
v -0.5 17 0.5
v -0.5 17 -0.5
v -0.5 18 0.5
v -0.5 18 -0.5
v -0.5 19 1.5
v -0.5 19 0.5
v -0.5 19 -0.5
v -0.5 19 -1.5
v -0.5 20 0.5
v -0.5 20 -0.5
v -0.5 21 1.5
v -0.5 21 0.5
v -0.5 21 -0.5
v -0.5 21 -1.5
v -0.5 25 0.5
v -0.5 25 -0.5
v -0.5 27 0.5
v -0.5 27 -0.5
v 0.5 0 0.5
v 0.5 0 -0.5
v 0.5 1 0.5
v 0.5 1 -0.5
v 0.5 4 0.5
v 0.5 4 -0.5
v 0.5 17 0.5
v 0.5 17 -0.5
v 0.5 18 0.5
v 0.5 18 -0.5
v 0.5 19 1.5
v 0.5 19 0.5
v 0.5 19 -0.5
v 0.5 19 -1.5
v 0.5 20 0.5
v 0.5 20 -0.5
v 0.5 21 1.5
v 0.5 21 0.5
v 0.5 21 -0.5
v 0.5 21 -1.5
v 0.5 25 0.5
v 0.5 25 -0.5
v 0.5 27 0.5
v 0.5 27 -0.5
v 1.5 1 0.5
v 1.5 1 -0.5
v 1.5 2 0.5
v 1.5 2 -0.5
v 1.5 4 0.5
v 1.5 4 -0.5
v 1.5 18 0.5
v 1.5 18 -0.5
v 1.5 19 0.5
v 1.5 19 -0.5
v 1.5 22 0.5
v 1.5 22 -0.5
v 1.5 25 0.5
v 1.5 25 -0.5
v 2.5 19 0.5
v 2.5 19 -0.5
v 2.5 21 0.5
v 2.5 21 -0.5
v 2.5 22 0.5
v 2.5 22 -0.5
v -0.5 19 1.5
v -0.5 21 1.5
v 0.5 19 1.5
v 0.5 21 1.5
v -2.5 19 0.5
v -2.5 21 0.5
v -2.5 22 0.5
v -1.5 1 0.5
v -1.5 2 0.5
v -1.5 4 0.5
v -1.5 18 0.5
v -1.5 19 0.5
v -1.5 20 0.5
v -1.5 21 0.5
v -1.5 22 0.5
v -1.5 25 0.5
v -0.5 0 0.5
v -0.5 1 0.5
v -0.5 2 0.5
v -0.5 3 0.5
v -0.5 4 0.5
v -0.5 17 0.5
v -0.5 18 0.5
v -0.5 19 0.5
v -0.5 20 0.5
v -0.5 21 0.5
v -0.5 22 0.5
v -0.5 23 0.5
v -0.5 24 0.5
v -0.5 25 0.5
v -0.5 27 0.5
v 0.5 0 0.5
v 0.5 1 0.5
v 0.5 2 0.5
v 0.5 3 0.5
v 0.5 4 0.5
v 0.5 17 0.5
v 0.5 18 0.5
v 0.5 19 0.5
v 0.5 20 0.5
v 0.5 21 0.5
v 0.5 22 0.5
v 0.5 23 0.5
v 0.5 24 0.5
v 0.5 25 0.5
v 0.5 27 0.5
v 1.5 1 0.5
v 1.5 2 0.5
v 1.5 4 0.5
v 1.5 18 0.5
v 1.5 19 0.5
v 1.5 20 0.5
v 1.5 21 0.5
v 1.5 22 0.5
v 1.5 25 0.5
v 2.5 19 0.5
v 2.5 21 0.5
v 2.5 22 0.5
v -2.5 19 -0.5
v -2.5 21 -0.5
v -2.5 22 -0.5
v -1.5 1 -0.5
v -1.5 2 -0.5
v -1.5 4 -0.5
v -1.5 18 -0.5
v -1.5 19 -0.5
v -1.5 20 -0.5
v -1.5 21 -0.5
v -1.5 22 -0.5
v -1.5 25 -0.5
v -0.5 0 -0.5
v -0.5 1 -0.5
v -0.5 2 -0.5
v -0.5 3 -0.5
v -0.5 4 -0.5
v -0.5 17 -0.5
v -0.5 18 -0.5
v -0.5 19 -0.5
v -0.5 20 -0.5
v -0.5 21 -0.5
v -0.5 22 -0.5
v -0.5 23 -0.5
v -0.5 24 -0.5
v -0.5 25 -0.5
v -0.5 27 -0.5
v 0.5 0 -0.5
v 0.5 1 -0.5
v 0.5 2 -0.5
v 0.5 3 -0.5
v 0.5 4 -0.5
v 0.5 17 -0.5
v 0.5 18 -0.5
v 0.5 19 -0.5
v 0.5 20 -0.5
v 0.5 21 -0.5
v 0.5 22 -0.5
v 0.5 23 -0.5
v 0.5 24 -0.5
v 0.5 25 -0.5
v 0.5 27 -0.5
v 1.5 1 -0.5
v 1.5 2 -0.5
v 1.5 4 -0.5
v 1.5 18 -0.5
v 1.5 19 -0.5
v 1.5 20 -0.5
v 1.5 21 -0.5
v 1.5 22 -0.5
v 1.5 25 -0.5
v 2.5 19 -0.5
v 2.5 21 -0.5
v 2.5 22 -0.5
v -0.5 19 -1.5
v -0.5 21 -1.5
v 0.5 19 -1.5
v 0.5 21 -1.5
v -0.5 0 0.5
v 0.5 0 0.5
v -0.5 0 -0.5
v 0.5 0 -0.5
v -1.5 1 0.5
v -0.5 1 0.5
v 0.5 1 0.5
v 1.5 1 0.5
v -1.5 1 -0.5
v -0.5 1 -0.5
v 0.5 1 -0.5
v 1.5 1 -0.5
v -1.5 18 0.5
v -0.5 18 0.5
v 0.5 18 0.5
v 1.5 18 0.5
v -1.5 18 -0.5
v -0.5 18 -0.5
v 0.5 18 -0.5
v 1.5 18 -0.5
v -0.5 19 1.5
v 0.5 19 1.5
v -2.5 19 0.5
v -1.5 19 0.5
v -0.5 19 0.5
v 0.5 19 0.5
v 1.5 19 0.5
v 2.5 19 0.5
v -2.5 19 -0.5
v -1.5 19 -0.5
v -0.5 19 -0.5
v 0.5 19 -0.5
v 1.5 19 -0.5
v 2.5 19 -0.5
v -0.5 19 -1.5
v 0.5 19 -1.5
v -1.5 4 0.5
v -0.5 4 0.5
v 0.5 4 0.5
v 1.5 4 0.5
v -1.5 4 -0.5
v -0.5 4 -0.5
v 0.5 4 -0.5
v 1.5 4 -0.5
v -0.5 21 1.5
v 0.5 21 1.5
v -0.5 21 0.5
v 0.5 21 0.5
v -0.5 21 -0.5
v 0.5 21 -0.5
v -0.5 21 -1.5
v 0.5 21 -1.5
v -2.5 22 0.5
v -1.5 22 0.5
v 1.5 22 0.5
v 2.5 22 0.5
v -2.5 22 -0.5
v -1.5 22 -0.5
v 1.5 22 -0.5
v 2.5 22 -0.5
v -1.5 25 0.5
v -0.5 25 0.5
v 0.5 25 0.5
v 1.5 25 0.5
v -1.5 25 -0.5
v -0.5 25 -0.5
v 0.5 25 -0.5
v 1.5 25 -0.5
v -0.5 27 0.5
v 0.5 27 0.5
v -0.5 27 -0.5
v 0.5 27 -0.5

# faces
f 3/3/1 2/3/1 1/3/1
f 4/3/1 2/3/1 3/3/1
f 5/2/1 4/2/1 3/2/1
f 6/2/1 4/2/1 5/2/1
f 9/8/1 8/8/1 7/8/1
f 10/8/1 8/8/1 9/8/1
f 11/2/1 10/2/1 9/2/1
f 12/2/1 10/2/1 11/2/1
f 15/10/1 14/10/1 13/10/1
f 16/10/1 14/10/1 15/10/1
f 19/1/1 18/1/1 17/1/1
f 20/1/1 18/1/1 19/1/1
f 23/8/1 22/8/1 21/8/1
f 24/8/1 22/8/1 23/8/1
f 27/6/1 26/6/1 25/6/1
f 28/6/1 26/6/1 27/6/1
f 29/3/1 28/3/1 27/3/1
f 30/3/1 28/3/1 29/3/1
f 35/6/1 32/6/1 31/6/1
f 36/6/1 34/6/1 33/6/1
f 37/6/1 35/6/1 31/6/1
f 38/6/1 35/6/1 37/6/1
f 39/6/1 34/6/1 36/6/1
f 40/6/1 34/6/1 39/6/1
f 43/1/1 42/1/1 41/1/1
f 44/1/1 42/1/1 43/1/1
f 45/8/2 46/8/2 47/8/2
f 47/8/2 46/8/2 48/8/2
f 49/6/2 50/6/2 51/6/2
f 51/6/2 50/6/2 52/6/2
f 51/3/2 52/3/2 53/3/2
f 53/3/2 52/3/2 54/3/2
f 55/6/2 56/6/2 59/6/2
f 57/6/2 58/6/2 60/6/2
f 55/6/2 59/6/2 61/6/2
f 61/6/2 59/6/2 62/6/2
f 60/6/2 58/6/2 63/6/2
f 63/6/2 58/6/2 64/6/2
f 65/1/2 66/1/2 67/1/2
f 67/1/2 66/1/2 68/1/2
f 69/8/2 70/8/2 71/8/2
f 71/8/2 70/8/2 72/8/2
f 71/2/2 72/2/2 73/2/2
f 73/2/2 72/2/2 74/2/2
f 75/10/2 76/10/2 77/10/2
f 77/10/2 76/10/2 78/10/2
f 79/1/2 80/1/2 81/1/2
f 81/1/2 80/1/2 82/1/2
f 83/3/2 84/3/2 85/3/2
f 85/3/2 84/3/2 86/3/2
f 85/2/2 86/2/2 87/2/2
f 87/2/2 86/2/2 88/2/2
f 91/6/3 90/6/3 89/6/3
f 92/6/3 90/6/3 91/6/3
f 100/3/3 94/3/3 93/3/3
f 101/3/3 94/3/3 100/3/3
f 102/2/3 95/2/3 94/2/3
f 102/3/3 94/3/3 101/3/3
f 103/2/3 95/2/3 102/2/3
f 106/8/3 97/8/3 96/8/3
f 107/2/3 98/2/3 97/2/3
f 107/8/3 97/8/3 106/8/3
f 108/2/3 98/2/3 107/2/3
f 109/2/3 98/2/3 108/2/3
f 111/10/3 100/10/3 99/10/3
f 112/7/3 101/7/3 100/7/3
f 112/10/3 100/10/3 111/10/3
f 113/1/3 104/1/3 103/1/3
f 113/7/3 101/7/3 112/7/3
f 113/1/3 102/1/3 101/1/3
f 113/1/3 103/1/3 102/1/3
f 114/1/3 104/1/3 113/1/3
f 115/1/3 104/1/3 114/1/3
f 116/1/3 104/1/3 115/1/3
f 117/1/3 104/1/3 116/1/3
f 118/1/3 104/1/3 117/1/3
f 120/8/3 106/8/3 105/8/3
f 121/1/3 107/1/3 106/1/3
f 121/8/3 106/8/3 120/8/3
f 122/3/3 108/3/3 107/3/3
f 122/1/3 107/1/3 121/1/3
f 123/6/3 110/6/3 109/6/3
f 123/3/3 108/3/3 122/3/3
f 123/6/3 109/6/3 108/6/3
f 124/6/3 110/6/3 123/6/3
f 125/3/3 111/3/3 110/3/3
f 125/6/3 110/6/3 124/6/3
f 126/1/3 112/1/3 111/1/3
f 126/3/3 111/3/3 125/3/3
f 127/1/3 112/1/3 126/1/3
f 129/5/3 115/5/3 114/5/3
f 130/3/3 116/3/3 115/3/3
f 130/5/3 115/5/3 129/5/3
f 131/9/3 117/9/3 116/9/3
f 131/3/3 116/3/3 130/3/3
f 132/1/3 119/1/3 118/1/3
f 132/9/3 117/9/3 131/9/3
f 132/1/3 118/1/3 117/1/3
f 133/1/3 119/1/3 132/1/3
f 134/1/3 119/1/3 133/1/3
f 135/8/3 122/8/3 121/8/3
f 136/2/3 124/2/3 123/2/3
f 136/8/3 122/8/3 135/8/3
f 136/2/3 123/2/3 122/2/3
f 137/2/3 124/2/3 136/2/3
f 138/10/3 127/10/3 126/10/3
f 139/7/3 128/7/3 127/7/3
f 139/10/3 127/10/3 138/10/3
f 140/1/3 131/1/3 130/1/3
f 140/7/3 128/7/3 139/7/3
f 140/1/3 133/1/3 132/1/3
f 140/1/3 129/1/3 128/1/3
f 140/1/3 132/1/3 131/1/3
f 140/1/3 130/1/3 129/1/3
f 141/1/3 133/1/3 140/1/3
f 142/1/3 133/1/3 141/1/3
f 143/1/3 133/1/3 142/1/3
f 144/3/3 141/3/3 140/3/3
f 144/3/3 140/3/3 139/3/3
f 145/2/3 142/2/3 141/2/3
f 145/3/3 141/3/3 144/3/3
f 146/2/3 142/2/3 145/2/3
f 147/3/4 148/3/4 154/3/4
f 154/3/4 148/3/4 155/3/4
f 148/2/4 149/2/4 156/2/4
f 155/3/4 148/3/4 156/3/4
f 156/2/4 149/2/4 157/2/4
f 150/8/4 151/8/4 160/8/4
f 151/2/4 152/2/4 161/2/4
f 160/8/4 151/8/4 161/8/4
f 161/2/4 152/2/4 162/2/4
f 162/2/4 152/2/4 163/2/4
f 153/10/4 154/10/4 165/10/4
f 154/7/4 155/7/4 166/7/4
f 165/10/4 154/10/4 166/10/4
f 157/1/4 158/1/4 167/1/4
f 166/7/4 155/7/4 167/7/4
f 155/1/4 156/1/4 167/1/4
f 156/1/4 157/1/4 167/1/4
f 167/1/4 158/1/4 168/1/4
f 168/1/4 158/1/4 169/1/4
f 169/1/4 158/1/4 170/1/4
f 170/1/4 158/1/4 171/1/4
f 171/1/4 158/1/4 172/1/4
f 159/8/4 160/8/4 174/8/4
f 160/1/4 161/1/4 175/1/4
f 174/8/4 160/8/4 175/8/4
f 161/3/4 162/3/4 176/3/4
f 175/1/4 161/1/4 176/1/4
f 163/6/4 164/6/4 177/6/4
f 176/3/4 162/3/4 177/3/4
f 162/6/4 163/6/4 177/6/4
f 177/6/4 164/6/4 178/6/4
f 164/3/4 165/3/4 179/3/4
f 178/6/4 164/6/4 179/6/4
f 165/1/4 166/1/4 180/1/4
f 179/3/4 165/3/4 180/3/4
f 180/1/4 166/1/4 181/1/4
f 168/5/4 169/5/4 183/5/4
f 169/3/4 170/3/4 184/3/4
f 183/5/4 169/5/4 184/5/4
f 170/9/4 171/9/4 185/9/4
f 184/3/4 170/3/4 185/3/4
f 172/1/4 173/1/4 186/1/4
f 185/9/4 171/9/4 186/9/4
f 171/1/4 172/1/4 186/1/4
f 186/1/4 173/1/4 187/1/4
f 187/1/4 173/1/4 188/1/4
f 175/8/4 176/8/4 189/8/4
f 177/2/4 178/2/4 190/2/4
f 189/8/4 176/8/4 190/8/4
f 176/2/4 177/2/4 190/2/4
f 190/2/4 178/2/4 191/2/4
f 180/10/4 181/10/4 192/10/4
f 181/7/4 182/7/4 193/7/4
f 192/10/4 181/10/4 193/10/4
f 184/1/4 185/1/4 194/1/4
f 193/7/4 182/7/4 194/7/4
f 186/1/4 187/1/4 194/1/4
f 182/1/4 183/1/4 194/1/4
f 185/1/4 186/1/4 194/1/4
f 183/1/4 184/1/4 194/1/4
f 194/1/4 187/1/4 195/1/4
f 195/1/4 187/1/4 196/1/4
f 196/1/4 187/1/4 197/1/4
f 194/3/4 195/3/4 198/3/4
f 193/3/4 194/3/4 198/3/4
f 195/2/4 196/2/4 199/2/4
f 198/3/4 195/3/4 199/3/4
f 199/2/4 196/2/4 200/2/4
f 201/6/4 202/6/4 203/6/4
f 203/6/4 202/6/4 204/6/4
f 207/8/5 206/8/5 205/8/5
f 208/8/5 206/8/5 207/8/5
f 213/8/5 210/8/5 209/8/5
f 214/8/5 210/8/5 213/8/5
f 215/8/5 212/8/5 211/8/5
f 216/8/5 212/8/5 215/8/5
f 221/10/5 218/10/5 217/10/5
f 222/10/5 218/10/5 221/10/5
f 223/10/5 220/10/5 219/10/5
f 224/10/5 220/10/5 223/10/5
f 229/6/5 226/6/5 225/6/5
f 230/6/5 226/6/5 229/6/5
f 233/3/5 228/3/5 227/3/5
f 234/3/5 228/3/5 233/3/5
f 237/3/5 232/3/5 231/3/5
f 238/3/5 232/3/5 237/3/5
f 239/6/5 236/6/5 235/6/5
f 240/6/5 236/6/5 239/6/5
f 241/2/6 242/2/6 245/2/6
f 245/2/6 242/2/6 246/2/6
f 243/2/6 244/2/6 247/2/6
f 247/2/6 244/2/6 248/2/6
f 249/6/6 250/6/6 251/6/6
f 251/6/6 250/6/6 252/6/6
f 253/6/6 254/6/6 255/6/6
f 255/6/6 254/6/6 256/6/6
f 257/2/6 258/2/6 261/2/6
f 261/2/6 258/2/6 262/2/6
f 259/2/6 260/2/6 263/2/6
f 263/2/6 260/2/6 264/2/6
f 265/1/6 266/1/6 269/1/6
f 269/1/6 266/1/6 270/1/6
f 267/1/6 268/1/6 271/1/6
f 271/1/6 268/1/6 272/1/6
f 273/1/6 274/1/6 275/1/6
f 275/1/6 274/1/6 276/1/6
