# MagicaVoxel @ Ephtracy

# material
mtllib Hammer.mtl
usemtl palette

# normals
vn -1 0 0
vn 1 0 0
vn 0 0 1
vn 0 0 -1
vn 0 -1 0
vn 0 1 0

# texcoords
vt 0.755859 0.5
vt 0.771484 0.5
vt 0.775391 0.5
vt 0.912109 0.5
vt 0.935547 0.5
vt 0.939453 0.5
vt 0.951172 0.5
vt 0.966797 0.5

# verts
v -3.5 17 0.5
v -3.5 17 -0.5
v -3.5 18 0.5
v -3.5 18 -0.5
v -3.5 20 0.5
v -3.5 20 -0.5
v -2.5 20 0.5
v -2.5 20 -0.5
v -2.5 21 0.5
v -2.5 21 -0.5
v -1.5 16 0.5
v -1.5 16 -0.5
v -1.5 17 0.5
v -1.5 17 -0.5
v -1.5 18 1.5
v -1.5 18 0.5
v -1.5 18 -0.5
v -1.5 18 -1.5
v -1.5 19 0.5
v -1.5 19 -0.5
v -1.5 20 1.5
v -1.5 20 0.5
v -1.5 20 -0.5
v -1.5 20 -1.5
v -1.5 21 0.5
v -1.5 21 -0.5
v -1.5 22 0.5
v -1.5 22 -0.5
v -0.5 17 1.5
v -0.5 17 0.5
v -0.5 17 -0.5
v -0.5 17 -1.5
v -0.5 18 1.5
v -0.5 18 0.5
v -0.5 18 -0.5
v -0.5 18 -1.5
v 0.5 0 0.5
v 0.5 0 -0.5
v 0.5 1 0.5
v 0.5 1 -0.5
v 0.5 2 0.5
v 0.5 2 -0.5
v 0.5 3 0.5
v 0.5 3 -0.5
v 0.5 15 0.5
v 0.5 15 -0.5
v 0.5 16 0.5
v 0.5 16 -0.5
v 1.5 20 1.5
v 1.5 20 0.5
v 1.5 20 -0.5
v 1.5 20 -1.5
v 1.5 21 1.5
v 1.5 21 0.5
v 1.5 21 -0.5
v 1.5 21 -1.5
v 2.5 16 1.5
v 2.5 16 0.5
v 2.5 16 -0.5
v 2.5 16 -1.5
v 2.5 17 2.5
v 2.5 17 1.5
v 2.5 17 0.5
v 2.5 17 -0.5
v 2.5 17 -1.5
v 2.5 17 -2.5
v 2.5 18 2.5
v 2.5 18 1.5
v 2.5 18 -1.5
v 2.5 18 -2.5
v 2.5 19 2.5
v 2.5 19 1.5
v 2.5 19 -1.5
v 2.5 19 -2.5
v 2.5 20 2.5
v 2.5 20 1.5
v 2.5 20 -1.5
v 2.5 20 -2.5
v 2.5 21 2.5
v 2.5 21 1.5
v 2.5 21 -1.5
v 2.5 21 -2.5
v 3.5 16 2.5
v 3.5 16 1.5
v 3.5 16 -1.5
v 3.5 16 -2.5
v 3.5 17 2.5
v 3.5 17 1.5
v 3.5 17 -1.5
v 3.5 17 -2.5
v -2.5 18 0.5
v -2.5 18 -0.5
v -2.5 19 0.5
v -2.5 19 -0.5
v -0.5 20 0.5
v -0.5 20 -0.5
v -0.5 21 0.5
v -0.5 21 -0.5
v 1.5 0 0.5
v 1.5 0 -0.5
v 1.5 1 0.5
v 1.5 1 -0.5
v 1.5 2 0.5
v 1.5 2 -0.5
v 1.5 3 0.5
v 1.5 3 -0.5
v 1.5 15 0.5
v 1.5 15 -0.5
v 2.5 15 0.5
v 2.5 15 -0.5
v 2.5 16 0.5
v 2.5 16 -0.5
v 4.5 21 0.5
v 4.5 21 -0.5
v 4.5 22 0.5
v 4.5 22 -0.5
v 5.5 16 2.5
v 5.5 16 1.5
v 5.5 16 -1.5
v 5.5 16 -2.5
v 5.5 17 2.5
v 5.5 17 1.5
v 5.5 17 -1.5
v 5.5 17 -2.5
v 5.5 20 2.5
v 5.5 20 1.5
v 5.5 20 -1.5
v 5.5 20 -2.5
v 5.5 21 2.5
v 5.5 21 1.5
v 5.5 21 -1.5
v 5.5 21 -2.5
v 2.5 17 2.5
v 2.5 18 2.5
v 2.5 19 2.5
v 2.5 20 2.5
v 2.5 21 2.5
v 3.5 16 2.5
v 3.5 17 2.5
v 3.5 18 2.5
v 3.5 19 2.5
v 4.5 16 2.5
v 4.5 17 2.5
v 4.5 18 2.5
v 4.5 19 2.5
v 4.5 20 2.5
v 4.5 21 2.5
v 5.5 16 2.5
v 5.5 17 2.5
v 5.5 20 2.5
v 5.5 21 2.5
v -1.5 18 1.5
v -1.5 20 1.5
v -0.5 17 1.5
v -0.5 18 1.5
v -0.5 19 1.5
v 0.5 19 1.5
v 0.5 20 1.5
v 1.5 17 1.5
v 1.5 18 1.5
v 1.5 19 1.5
v 1.5 20 1.5
v 1.5 21 1.5
v 2.5 16 1.5
v 2.5 17 1.5
v 2.5 18 1.5
v 2.5 19 1.5
v 2.5 20 1.5
v 2.5 21 1.5
v 3.5 16 1.5
v 3.5 17 1.5
v -3.5 17 0.5
v -3.5 18 0.5
v -3.5 20 0.5
v -2.5 18 0.5
v -2.5 19 0.5
v -2.5 20 0.5
v -2.5 21 0.5
v -1.5 16 0.5
v -1.5 17 0.5
v -1.5 18 0.5
v -1.5 19 0.5
v -1.5 20 0.5
v -1.5 21 0.5
v -1.5 22 0.5
v -0.5 16 0.5
v -0.5 17 0.5
v -0.5 18 0.5
v -0.5 20 0.5
v -0.5 21 0.5
v 0.5 0 0.5
v 0.5 1 0.5
v 0.5 2 0.5
v 0.5 3 0.5
v 0.5 15 0.5
v 0.5 16 0.5
v 0.5 17 0.5
v 1.5 0 0.5
v 1.5 1 0.5
v 1.5 2 0.5
v 1.5 3 0.5
v 1.5 15 0.5
v 1.5 16 0.5
v 1.5 17 0.5
v 1.5 21 0.5
v 2.5 15 0.5
v 2.5 16 0.5
v 2.5 17 0.5
v 2.5 21 0.5
v 2.5 22 0.5
v 4.5 21 0.5
v 4.5 22 0.5
v -3.5 17 -0.5
v -3.5 18 -0.5
v -3.5 20 -0.5
v -2.5 18 -0.5
v -2.5 19 -0.5
v -2.5 20 -0.5
v -2.5 21 -0.5
v -1.5 16 -0.5
v -1.5 17 -0.5
v -1.5 18 -0.5
v -1.5 19 -0.5
v -1.5 20 -0.5
v -1.5 21 -0.5
v -1.5 22 -0.5
v -0.5 16 -0.5
v -0.5 17 -0.5
v -0.5 18 -0.5
v -0.5 20 -0.5
v -0.5 21 -0.5
v 0.5 0 -0.5
v 0.5 1 -0.5
v 0.5 2 -0.5
v 0.5 3 -0.5
v 0.5 15 -0.5
v 0.5 16 -0.5
v 0.5 17 -0.5
v 1.5 0 -0.5
v 1.5 1 -0.5
v 1.5 2 -0.5
v 1.5 3 -0.5
v 1.5 15 -0.5
v 1.5 16 -0.5
v 1.5 17 -0.5
v 1.5 21 -0.5
v 2.5 15 -0.5
v 2.5 16 -0.5
v 2.5 17 -0.5
v 2.5 21 -0.5
v 2.5 22 -0.5
v 4.5 21 -0.5
v 4.5 22 -0.5
v -1.5 18 -1.5
v -1.5 20 -1.5
v -0.5 17 -1.5
v -0.5 18 -1.5
v -0.5 19 -1.5
v 0.5 19 -1.5
v 0.5 20 -1.5
v 1.5 17 -1.5
v 1.5 18 -1.5
v 1.5 19 -1.5
v 1.5 20 -1.5
v 1.5 21 -1.5
v 2.5 16 -1.5
v 2.5 17 -1.5
v 2.5 18 -1.5
v 2.5 19 -1.5
v 2.5 20 -1.5
v 2.5 21 -1.5
v 3.5 16 -1.5
v 3.5 17 -1.5
v 2.5 17 -2.5
v 2.5 18 -2.5
v 2.5 19 -2.5
v 2.5 20 -2.5
v 2.5 21 -2.5
v 3.5 16 -2.5
v 3.5 17 -2.5
v 3.5 18 -2.5
v 3.5 19 -2.5
v 4.5 16 -2.5
v 4.5 17 -2.5
v 4.5 18 -2.5
v 4.5 19 -2.5
v 4.5 20 -2.5
v 4.5 21 -2.5
v 5.5 16 -2.5
v 5.5 17 -2.5
v 5.5 20 -2.5
v 5.5 21 -2.5
v 0.5 0 0.5
v 1.5 0 0.5
v 0.5 0 -0.5
v 1.5 0 -0.5
v 1.5 15 0.5
v 2.5 15 0.5
v 1.5 15 -0.5
v 2.5 15 -0.5
v 3.5 16 2.5
v 4.5 16 2.5
v 5.5 16 2.5
v 2.5 16 1.5
v 3.5 16 1.5
v 4.5 16 1.5
v 5.5 16 1.5
v -1.5 16 0.5
v -0.5 16 0.5
v 0.5 16 0.5
v 2.5 16 0.5
v 3.5 16 0.5
v 4.5 16 0.5
v -1.5 16 -0.5
v -0.5 16 -0.5
v 0.5 16 -0.5
v 2.5 16 -0.5
v 3.5 16 -0.5
v 4.5 16 -0.5
v 2.5 16 -1.5
v 3.5 16 -1.5
v 4.5 16 -1.5
v 5.5 16 -1.5
v 3.5 16 -2.5
v 4.5 16 -2.5
v 5.5 16 -2.5
v 2.5 17 2.5
v 3.5 17 2.5
v -0.5 17 1.5
v 1.5 17 1.5
v 2.5 17 1.5
v 3.5 17 1.5
v -3.5 17 0.5
v -1.5 17 0.5
v -0.5 17 0.5
v 0.5 17 0.5
v 1.5 17 0.5
v 2.5 17 0.5
v -3.5 17 -0.5
v -1.5 17 -0.5
v -0.5 17 -0.5
v 0.5 17 -0.5
v 1.5 17 -0.5
v 2.5 17 -0.5
v -0.5 17 -1.5
v 1.5 17 -1.5
v 2.5 17 -1.5
v 3.5 17 -1.5
v 2.5 17 -2.5
v 3.5 17 -2.5
v -1.5 18 1.5
v -0.5 18 1.5
v -1.5 18 0.5
v -0.5 18 0.5
v -1.5 18 -0.5
v -0.5 18 -0.5
v -1.5 18 -1.5
v -0.5 18 -1.5
v -2.5 19 0.5
v -1.5 19 0.5
v -2.5 19 -0.5
v -1.5 19 -0.5
v -0.5 21 0.5
v 1.5 21 0.5
v -0.5 21 -0.5
v 1.5 21 -0.5
v -2.5 18 0.5
v -1.5 18 0.5
v -2.5 18 -0.5
v -1.5 18 -0.5
v -1.5 20 1.5
v 0.5 20 1.5
v 1.5 20 1.5
v -3.5 20 0.5
v -2.5 20 0.5
v -1.5 20 0.5
v -0.5 20 0.5
v 0.5 20 0.5
v 1.5 20 0.5
v -3.5 20 -0.5
v -2.5 20 -0.5
v -1.5 20 -0.5
v -0.5 20 -0.5
v 0.5 20 -0.5
v 1.5 20 -0.5
v -1.5 20 -1.5
v 0.5 20 -1.5
v 1.5 20 -1.5
v 2.5 21 2.5
v 4.5 21 2.5
v 5.5 21 2.5
v 1.5 21 1.5
v 2.5 21 1.5
v 4.5 21 1.5
v 5.5 21 1.5
v -2.5 21 0.5
v -1.5 21 0.5
v 1.5 21 0.5
v 2.5 21 0.5
v 4.5 21 0.5
v -2.5 21 -0.5
v -1.5 21 -0.5
v 1.5 21 -0.5
v 2.5 21 -0.5
v 4.5 21 -0.5
v 1.5 21 -1.5
v 2.5 21 -1.5
v 4.5 21 -1.5
v 5.5 21 -1.5
v 2.5 21 -2.5
v 4.5 21 -2.5
v 5.5 21 -2.5
v -1.5 22 0.5
v 2.5 22 0.5
v 4.5 22 0.5
v -1.5 22 -0.5
v 2.5 22 -0.5
v 4.5 22 -0.5

# faces
f 3/4/1 2/4/1 1/4/1
f 4/4/1 2/4/1 3/4/1
f 5/2/1 4/2/1 3/2/1
f 6/2/1 4/2/1 5/2/1
f 9/3/1 8/3/1 7/3/1
f 10/3/1 8/3/1 9/3/1
f 13/4/1 12/4/1 11/4/1
f 14/4/1 12/4/1 13/4/1
f 19/1/1 17/1/1 16/1/1
f 19/8/1 16/8/1 15/8/1
f 20/8/1 18/8/1 17/8/1
f 20/1/1 17/1/1 19/1/1
f 21/8/1 19/8/1 15/8/1
f 22/8/1 19/8/1 21/8/1
f 23/8/1 18/8/1 20/8/1
f 24/8/1 18/8/1 23/8/1
f 27/2/1 26/2/1 25/2/1
f 28/2/1 26/2/1 27/2/1
f 33/4/1 30/4/1 29/4/1
f 34/4/1 30/4/1 33/4/1
f 35/4/1 32/4/1 31/4/1
f 36/4/1 32/4/1 35/4/1
f 39/5/1 38/5/1 37/5/1
f 40/5/1 38/5/1 39/5/1
f 41/7/1 40/7/1 39/7/1
f 42/7/1 40/7/1 41/7/1
f 43/2/1 42/2/1 41/2/1
f 44/2/1 42/2/1 43/2/1
f 45/4/1 44/4/1 43/4/1
f 46/4/1 44/4/1 45/4/1
f 47/6/1 46/6/1 45/6/1
f 48/6/1 46/6/1 47/6/1
f 53/4/1 50/4/1 49/4/1
f 54/5/1 51/5/1 50/5/1
f 54/4/1 50/4/1 53/4/1
f 55/4/1 52/4/1 51/4/1
f 55/5/1 51/5/1 54/5/1
f 56/4/1 52/4/1 55/4/1
f 62/4/1 58/4/1 57/4/1
f 63/4/1 58/4/1 62/4/1
f 64/4/1 60/4/1 59/4/1
f 65/4/1 60/4/1 64/4/1
f 67/4/1 62/4/1 61/4/1
f 68/4/1 62/4/1 67/4/1
f 69/4/1 66/4/1 65/4/1
f 70/4/1 66/4/1 69/4/1
f 71/1/1 68/1/1 67/1/1
f 72/1/1 68/1/1 71/1/1
f 73/1/1 70/1/1 69/1/1
f 74/1/1 70/1/1 73/1/1
f 75/4/1 72/4/1 71/4/1
f 76/4/1 72/4/1 75/4/1
f 77/4/1 74/4/1 73/4/1
f 78/4/1 74/4/1 77/4/1
f 79/2/1 76/2/1 75/2/1
f 80/2/1 76/2/1 79/2/1
f 81/2/1 78/2/1 77/2/1
f 82/2/1 78/2/1 81/2/1
f 87/2/1 84/2/1 83/2/1
f 88/2/1 84/2/1 87/2/1
f 89/2/1 86/2/1 85/2/1
f 90/2/1 86/2/1 89/2/1
f 91/2/2 92/2/2 93/2/2
f 93/2/2 92/2/2 94/2/2
f 95/5/2 96/5/2 97/5/2
f 97/5/2 96/5/2 98/5/2
f 99/5/2 100/5/2 101/5/2
f 101/5/2 100/5/2 102/5/2
f 101/7/2 102/7/2 103/7/2
f 103/7/2 102/7/2 104/7/2
f 103/2/2 104/2/2 105/2/2
f 105/2/2 104/2/2 106/2/2
f 105/4/2 106/4/2 107/4/2
f 107/4/2 106/4/2 108/4/2
f 109/5/2 110/5/2 111/5/2
f 111/5/2 110/5/2 112/5/2
f 113/3/2 114/3/2 115/3/2
f 115/3/2 114/3/2 116/3/2
f 117/3/2 118/3/2 121/3/2
f 118/5/2 119/5/2 122/5/2
f 121/3/2 118/3/2 122/3/2
f 119/3/2 120/3/2 123/3/2
f 122/5/2 119/5/2 123/5/2
f 123/3/2 120/3/2 124/3/2
f 121/5/2 122/5/2 125/5/2
f 122/8/2 123/8/2 126/8/2
f 125/5/2 122/5/2 126/5/2
f 123/5/2 124/5/2 127/5/2
f 126/8/2 123/8/2 127/8/2
f 127/5/2 124/5/2 128/5/2
f 125/3/2 126/3/2 129/3/2
f 126/5/2 127/5/2 130/5/2
f 129/3/2 126/3/2 130/3/2
f 127/3/2 128/3/2 131/3/2
f 130/5/2 127/5/2 131/5/2
f 131/3/2 128/3/2 132/3/2
f 139/4/3 134/4/3 133/4/3
f 140/1/3 135/1/3 134/1/3
f 140/4/3 134/4/3 139/4/3
f 141/4/3 136/4/3 135/4/3
f 141/1/3 135/1/3 140/1/3
f 142/2/3 139/2/3 138/2/3
f 143/4/3 140/4/3 139/4/3
f 143/2/3 139/2/3 142/2/3
f 144/8/3 141/8/3 140/8/3
f 144/4/3 140/4/3 143/4/3
f 145/4/3 136/4/3 141/4/3
f 145/8/3 141/8/3 144/8/3
f 146/2/3 137/2/3 136/2/3
f 146/4/3 136/4/3 145/4/3
f 147/2/3 137/2/3 146/2/3
f 148/3/3 143/3/3 142/3/3
f 149/5/3 145/5/3 144/5/3
f 149/3/3 143/3/3 148/3/3
f 149/5/3 144/5/3 143/5/3
f 149/5/3 146/5/3 145/5/3
f 150/3/3 147/3/3 146/3/3
f 150/5/3 146/5/3 149/5/3
f 151/3/3 147/3/3 150/3/3
f 155/8/3 153/8/3 152/8/3
f 156/8/3 153/8/3 155/8/3
f 157/1/3 156/1/3 155/1/3
f 157/8/3 153/8/3 156/8/3
f 158/8/3 153/8/3 157/8/3
f 159/4/3 155/4/3 154/4/3
f 160/1/3 157/1/3 155/1/3
f 160/4/3 155/4/3 159/4/3
f 161/2/3 158/2/3 157/2/3
f 161/1/3 157/1/3 160/1/3
f 162/2/3 158/2/3 161/2/3
f 165/2/3 162/2/3 161/2/3
f 165/2/3 160/2/3 159/2/3
f 165/2/3 161/2/3 160/2/3
f 166/2/3 162/2/3 165/2/3
f 167/2/3 162/2/3 166/2/3
f 168/4/3 163/4/3 162/4/3
f 168/2/3 162/2/3 167/2/3
f 169/4/3 163/4/3 168/4/3
f 170/4/3 165/4/3 164/4/3
f 171/4/3 165/4/3 170/4/3
f 175/4/3 173/4/3 172/4/3
f 175/2/3 174/2/3 173/2/3
f 176/2/3 174/2/3 175/2/3
f 177/2/3 174/2/3 176/2/3
f 180/4/3 175/4/3 172/4/3
f 181/4/3 175/4/3 180/4/3
f 182/4/3 177/4/3 176/4/3
f 183/3/3 178/3/3 177/3/3
f 183/4/3 177/4/3 182/4/3
f 184/3/3 178/3/3 183/3/3
f 186/4/3 181/4/3 180/4/3
f 186/4/3 180/4/3 179/4/3
f 187/4/3 181/4/3 186/4/3
f 188/4/3 181/4/3 187/4/3
f 189/5/3 184/5/3 183/5/3
f 190/2/3 185/2/3 184/2/3
f 190/5/3 184/5/3 189/5/3
f 196/5/3 187/5/3 186/5/3
f 197/5/3 187/5/3 196/5/3
f 198/5/3 192/5/3 191/5/3
f 199/7/3 193/7/3 192/7/3
f 199/5/3 192/5/3 198/5/3
f 200/2/3 194/2/3 193/2/3
f 200/7/3 193/7/3 199/7/3
f 201/4/3 195/4/3 194/4/3
f 201/2/3 194/2/3 200/2/3
f 202/6/3 196/6/3 195/6/3
f 202/4/3 195/4/3 201/4/3
f 202/6/3 197/6/3 196/6/3
f 203/6/3 197/6/3 202/6/3
f 204/6/3 197/6/3 203/6/3
f 205/2/3 185/2/3 190/2/3
f 206/5/3 203/5/3 202/5/3
f 207/1/3 204/1/3 203/1/3
f 207/5/3 203/5/3 206/5/3
f 208/1/3 204/1/3 207/1/3
f 209/2/3 185/2/3 205/2/3
f 210/2/3 185/2/3 209/2/3
f 211/3/3 210/3/3 209/3/3
f 212/3/3 210/3/3 211/3/3
f 213/4/4 214/4/4 216/4/4
f 214/2/4 215/2/4 216/2/4
f 216/2/4 215/2/4 217/2/4
f 217/2/4 215/2/4 218/2/4
f 213/4/4 216/4/4 221/4/4
f 221/4/4 216/4/4 222/4/4
f 217/4/4 218/4/4 223/4/4
f 218/3/4 219/3/4 224/3/4
f 223/4/4 218/4/4 224/4/4
f 224/3/4 219/3/4 225/3/4
f 221/4/4 222/4/4 227/4/4
f 220/4/4 221/4/4 227/4/4
f 227/4/4 222/4/4 228/4/4
f 228/4/4 222/4/4 229/4/4
f 224/5/4 225/5/4 230/5/4
f 225/2/4 226/2/4 231/2/4
f 230/5/4 225/5/4 231/5/4
f 227/5/4 228/5/4 237/5/4
f 237/5/4 228/5/4 238/5/4
f 232/5/4 233/5/4 239/5/4
f 233/7/4 234/7/4 240/7/4
f 239/5/4 233/5/4 240/5/4
f 234/2/4 235/2/4 241/2/4
f 240/7/4 234/7/4 241/7/4
f 235/4/4 236/4/4 242/4/4
f 241/2/4 235/2/4 242/2/4
f 236/6/4 237/6/4 243/6/4
f 242/4/4 236/4/4 243/4/4
f 237/6/4 238/6/4 243/6/4
f 243/6/4 238/6/4 244/6/4
f 244/6/4 238/6/4 245/6/4
f 231/2/4 226/2/4 246/2/4
f 243/5/4 244/5/4 247/5/4
f 244/1/4 245/1/4 248/1/4
f 247/5/4 244/5/4 248/5/4
f 248/1/4 245/1/4 249/1/4
f 246/2/4 226/2/4 250/2/4
f 250/2/4 226/2/4 251/2/4
f 250/3/4 251/3/4 252/3/4
f 252/3/4 251/3/4 253/3/4
f 254/8/4 255/8/4 257/8/4
f 257/8/4 255/8/4 258/8/4
f 257/1/4 258/1/4 259/1/4
f 258/8/4 255/8/4 259/8/4
f 259/8/4 255/8/4 260/8/4
f 256/4/4 257/4/4 261/4/4
f 257/1/4 259/1/4 262/1/4
f 261/4/4 257/4/4 262/4/4
f 259/2/4 260/2/4 263/2/4
f 262/1/4 259/1/4 263/1/4
f 263/2/4 260/2/4 264/2/4
f 263/2/4 264/2/4 267/2/4
f 261/2/4 262/2/4 267/2/4
f 262/2/4 263/2/4 267/2/4
f 267/2/4 264/2/4 268/2/4
f 268/2/4 264/2/4 269/2/4
f 264/4/4 265/4/4 270/4/4
f 269/2/4 264/2/4 270/2/4
f 270/4/4 265/4/4 271/4/4
f 266/4/4 267/4/4 272/4/4
f 272/4/4 267/4/4 273/4/4
f 274/4/4 275/4/4 280/4/4
f 275/1/4 276/1/4 281/1/4
f 280/4/4 275/4/4 281/4/4
f 276/4/4 277/4/4 282/4/4
f 281/1/4 276/1/4 282/1/4
f 279/2/4 280/2/4 283/2/4
f 280/4/4 281/4/4 284/4/4
f 283/2/4 280/2/4 284/2/4
f 281/8/4 282/8/4 285/8/4
f 284/4/4 281/4/4 285/4/4
f 282/4/4 277/4/4 286/4/4
f 285/8/4 282/8/4 286/8/4
f 277/2/4 278/2/4 287/2/4
f 286/4/4 277/4/4 287/4/4
f 287/2/4 278/2/4 288/2/4
f 283/3/4 284/3/4 289/3/4
f 285/5/4 286/5/4 290/5/4
f 289/3/4 284/3/4 290/3/4
f 284/5/4 285/5/4 290/5/4
f 286/5/4 287/5/4 290/5/4
f 287/3/4 288/3/4 291/3/4
f 290/5/4 287/5/4 291/5/4
f 291/3/4 288/3/4 292/3/4
f 295/5/5 294/5/5 293/5/5
f 296/5/5 294/5/5 295/5/5
f 299/5/5 298/5/5 297/5/5
f 300/5/5 298/5/5 299/5/5
f 305/2/5 302/2/5 301/2/5
f 306/3/5 303/3/5 302/3/5
f 306/2/5 302/2/5 305/2/5
f 307/3/5 303/3/5 306/3/5
f 311/4/5 305/4/5 304/4/5
f 311/4/5 306/4/5 305/4/5
f 312/4/5 306/4/5 311/4/5
f 313/5/5 307/5/5 306/5/5
f 313/4/5 306/4/5 312/4/5
f 314/4/5 309/4/5 308/4/5
f 315/5/5 310/5/5 309/5/5
f 315/4/5 309/4/5 314/4/5
f 316/5/5 310/5/5 315/5/5
f 317/1/5 312/1/5 311/1/5
f 318/8/5 313/8/5 312/8/5
f 318/1/5 312/1/5 317/1/5
f 319/5/5 307/5/5 313/5/5
f 319/8/5 313/8/5 318/8/5
f 320/4/5 318/4/5 317/4/5
f 320/4/5 319/4/5 318/4/5
f 321/4/5 319/4/5 320/4/5
f 322/5/5 307/5/5 319/5/5
f 322/4/5 319/4/5 321/4/5
f 323/5/5 307/5/5 322/5/5
f 324/2/5 322/2/5 321/2/5
f 325/3/5 323/3/5 322/3/5
f 325/2/5 322/2/5 324/2/5
f 326/3/5 323/3/5 325/3/5
f 331/4/5 328/4/5 327/4/5
f 332/4/5 328/4/5 331/4/5
f 335/4/5 330/4/5 329/4/5
f 336/4/5 330/4/5 335/4/5
f 337/2/5 331/2/5 330/2/5
f 337/4/5 330/4/5 336/4/5
f 338/2/5 331/2/5 337/2/5
f 339/4/5 334/4/5 333/4/5
f 340/4/5 334/4/5 339/4/5
f 345/4/5 342/4/5 341/4/5
f 345/4/5 343/4/5 342/4/5
f 346/2/5 344/2/5 343/2/5
f 346/4/5 343/4/5 345/4/5
f 347/2/5 344/2/5 346/2/5
f 349/4/5 348/4/5 347/4/5
f 350/4/5 348/4/5 349/4/5
f 353/8/5 352/8/5 351/8/5
f 354/8/5 352/8/5 353/8/5
f 357/8/5 356/8/5 355/8/5
f 358/8/5 356/8/5 357/8/5
f 361/4/5 360/4/5 359/4/5
f 362/4/5 360/4/5 361/4/5
f 365/2/5 364/2/5 363/2/5
f 366/2/5 364/2/5 365/2/5
f 367/4/6 368/4/6 369/4/6
f 369/4/6 368/4/6 370/4/6
f 371/8/6 372/8/6 376/8/6
f 376/8/6 372/8/6 377/8/6
f 372/2/6 373/2/6 378/2/6
f 377/8/6 372/8/6 378/8/6
f 378/2/6 373/2/6 379/2/6
f 374/2/6 375/2/6 380/2/6
f 380/2/6 375/2/6 381/2/6
f 378/5/6 379/5/6 383/5/6
f 377/5/6 378/5/6 383/5/6
f 383/5/6 379/5/6 384/5/6
f 384/5/6 379/5/6 385/5/6
f 382/8/6 383/8/6 386/8/6
f 383/8/6 384/8/6 386/8/6
f 384/2/6 385/2/6 387/2/6
f 386/8/6 384/8/6 387/8/6
f 387/2/6 385/2/6 388/2/6
f 389/2/6 390/2/6 393/2/6
f 390/3/6 391/3/6 394/3/6
f 393/2/6 390/2/6 394/2/6
f 394/3/6 391/3/6 395/3/6
f 392/4/6 393/4/6 398/4/6
f 393/4/6 394/4/6 398/4/6
f 398/4/6 394/4/6 399/4/6
f 394/5/6 395/5/6 400/5/6
f 399/4/6 394/4/6 400/4/6
f 396/3/6 397/3/6 401/3/6
f 401/3/6 397/3/6 402/3/6
f 400/5/6 395/5/6 405/5/6
f 403/4/6 404/4/6 406/4/6
f 404/4/6 405/4/6 406/4/6
f 406/4/6 405/4/6 407/4/6
f 405/5/6 395/5/6 408/5/6
f 407/4/6 405/4/6 408/4/6
f 408/5/6 395/5/6 409/5/6
f 407/2/6 408/2/6 410/2/6
f 408/3/6 409/3/6 411/3/6
f 410/2/6 408/2/6 411/2/6
f 411/3/6 409/3/6 412/3/6
f 413/2/6 414/2/6 416/2/6
f 414/3/6 415/3/6 417/3/6
f 416/2/6 414/2/6 417/2/6
f 417/3/6 415/3/6 418/3/6
