# MagicaVoxel @ Ephtracy

# material
mtllib ฟํหก.mtl
usemtl palette

# normals
vn -1 0 0
vn 1 0 0
vn 0 0 1
vn 0 0 -1
vn 0 -1 0
vn 0 1 0

# texcoords
vt 0.724609 0.5
vt 0.880859 0.5
vt 0.884766 0.5
vt 0.888672 0.5
vt 0.986328 0.5
vt 0.990234 0.5

# verts
v -9 18 0.5
v -9 18 -0.5
v -9 19 0.5
v -9 19 -0.5
v -8 19 0.5
v -8 19 -0.5
v -8 20 0.5
v -8 20 -0.5
v -7 17 0.5
v -7 17 -0.5
v -7 18 0.5
v -7 18 -0.5
v -7 20 0.5
v -7 20 -0.5
v -7 21 0.5
v -7 21 -0.5
v -5 20 0.5
v -5 20 -0.5
v -5 21 0.5
v -5 21 -0.5
v -5 22 0.5
v -5 22 -0.5
v -4 17 1.5
v -4 17 0.5
v -4 17 -0.5
v -4 17 -1.5
v -4 18 1.5
v -4 18 0.5
v -4 18 -0.5
v -4 18 -1.5
v -4 19 1.5
v -4 19 0.5
v -4 19 -0.5
v -4 19 -1.5
v -3 15 0.5
v -3 15 -0.5
v -3 16 1.5
v -3 16 0.5
v -3 16 -0.5
v -3 16 -1.5
v -3 17 1.5
v -3 17 0.5
v -3 17 -0.5
v -3 17 -1.5
v -3 19 1.5
v -3 19 0.5
v -3 19 -0.5
v -3 19 -1.5
v -3 20 1.5
v -3 20 0.5
v -3 20 -0.5
v -3 20 -1.5
v -2 0 0.5
v -2 0 -0.5
v -2 1 0.5
v -2 1 -0.5
v -2 15 1.5
v -2 15 0.5
v -2 15 -0.5
v -2 15 -1.5
v -2 16 1.5
v -2 16 0.5
v -2 16 -0.5
v -2 16 -1.5
v -2 20 1.5
v -2 20 0.5
v -2 20 -0.5
v -2 20 -1.5
v -2 21 1.5
v -2 21 0.5
v -2 21 -0.5
v -2 21 -1.5
v 1 20 0.5
v 1 20 -0.5
v 1 21 0.5
v 1 21 -0.5
v 1 22 0.5
v 1 22 -0.5
v 3 17 0.5
v 3 17 -0.5
v 3 18 0.5
v 3 18 -0.5
v 3 20 0.5
v 3 20 -0.5
v 3 21 0.5
v 3 21 -0.5
v 4 21 0.5
v 4 21 -0.5
v 4 22 0.5
v 4 22 -0.5
v 6 17 0.5
v 6 17 -0.5
v 6 18 0.5
v 6 18 -0.5
v 8 17 0.5
v 8 17 -0.5
v 8 18 0.5
v 8 18 -0.5
v -6 17 0.5
v -6 17 -0.5
v -6 18 0.5
v -6 18 -0.5
v -6 20 0.5
v -6 20 -0.5
v -6 21 0.5
v -6 21 -0.5
v -4 21 0.5
v -4 21 -0.5
v -4 22 0.5
v -4 22 -0.5
v -3 20 0.5
v -3 20 -0.5
v -3 21 0.5
v -3 21 -0.5
v -1 0 0.5
v -1 0 -0.5
v -1 1 0.5
v -1 1 -0.5
v -1 15 1.5
v -1 15 0.5
v -1 15 -0.5
v -1 15 -1.5
v -1 16 1.5
v -1 16 0.5
v -1 16 -0.5
v -1 16 -1.5
v -1 20 1.5
v -1 20 0.5
v -1 20 -0.5
v -1 20 -1.5
v -1 21 1.5
v -1 21 0.5
v -1 21 -0.5
v -1 21 -1.5
v 0 15 0.5
v 0 15 -0.5
v 0 16 1.5
v 0 16 0.5
v 0 16 -0.5
v 0 16 -1.5
v 0 17 1.5
v 0 17 0.5
v 0 17 -0.5
v 0 17 -1.5
v 0 19 1.5
v 0 19 0.5
v 0 19 -0.5
v 0 19 -1.5
v 0 20 1.5
v 0 20 0.5
v 0 20 -0.5
v 0 20 -1.5
v 1 17 1.5
v 1 17 0.5
v 1 17 -0.5
v 1 17 -1.5
v 1 18 1.5
v 1 18 0.5
v 1 18 -0.5
v 1 18 -1.5
v 1 19 1.5
v 1 19 0.5
v 1 19 -0.5
v 1 19 -1.5
v 2 20 0.5
v 2 20 -0.5
v 2 21 0.5
v 2 21 -0.5
v 2 22 0.5
v 2 22 -0.5
v 4 17 0.5
v 4 17 -0.5
v 4 18 0.5
v 4 18 -0.5
v 5 21 0.5
v 5 21 -0.5
v 5 22 0.5
v 5 22 -0.5
v 7 17 0.5
v 7 17 -0.5
v 7 18 0.5
v 7 18 -0.5
v 7 20 0.5
v 7 20 -0.5
v 7 21 0.5
v 7 21 -0.5
v 8 19 0.5
v 8 19 -0.5
v 8 20 0.5
v 8 20 -0.5
v 9 17 0.5
v 9 17 -0.5
v 9 18 0.5
v 9 18 -0.5
v 9 19 0.5
v 9 19 -0.5
v -4 17 1.5
v -4 18 1.5
v -4 19 1.5
v -3 16 1.5
v -3 17 1.5
v -3 18 1.5
v -3 19 1.5
v -3 20 1.5
v -2 15 1.5
v -2 16 1.5
v -2 17 1.5
v -2 18 1.5
v -2 19 1.5
v -2 20 1.5
v -2 21 1.5
v -1 15 1.5
v -1 16 1.5
v -1 17 1.5
v -1 18 1.5
v -1 19 1.5
v -1 20 1.5
v -1 21 1.5
v 0 16 1.5
v 0 17 1.5
v 0 18 1.5
v 0 19 1.5
v 0 20 1.5
v 1 17 1.5
v 1 18 1.5
v 1 19 1.5
v -9 18 0.5
v -9 19 0.5
v -8 18 0.5
v -8 19 0.5
v -8 20 0.5
v -7 17 0.5
v -7 18 0.5
v -7 19 0.5
v -7 20 0.5
v -7 21 0.5
v -6 17 0.5
v -6 18 0.5
v -6 19 0.5
v -6 20 0.5
v -6 21 0.5
v -5 18 0.5
v -5 19 0.5
v -5 20 0.5
v -5 21 0.5
v -5 22 0.5
v -4 18 0.5
v -4 19 0.5
v -4 21 0.5
v -4 22 0.5
v -3 15 0.5
v -3 16 0.5
v -3 19 0.5
v -3 20 0.5
v -3 21 0.5
v -2 0 0.5
v -2 1 0.5
v -2 15 0.5
v -2 16 0.5
v -1 0 0.5
v -1 1 0.5
v -1 15 0.5
v -1 16 0.5
v 0 15 0.5
v 0 16 0.5
v 0 19 0.5
v 0 20 0.5
v 1 18 0.5
v 1 19 0.5
v 1 20 0.5
v 1 21 0.5
v 1 22 0.5
v 2 18 0.5
v 2 19 0.5
v 2 20 0.5
v 2 21 0.5
v 2 22 0.5
v 3 17 0.5
v 3 18 0.5
v 3 19 0.5
v 3 20 0.5
v 3 21 0.5
v 4 17 0.5
v 4 18 0.5
v 4 19 0.5
v 4 20 0.5
v 4 21 0.5
v 4 22 0.5
v 5 20 0.5
v 5 21 0.5
v 5 22 0.5
v 6 17 0.5
v 6 18 0.5
v 6 19 0.5
v 6 20 0.5
v 7 17 0.5
v 7 18 0.5
v 7 19 0.5
v 7 20 0.5
v 7 21 0.5
v 8 17 0.5
v 8 18 0.5
v 8 19 0.5
v 8 20 0.5
v 9 17 0.5
v 9 18 0.5
v 9 19 0.5
v -9 18 -0.5
v -9 19 -0.5
v -8 18 -0.5
v -8 19 -0.5
v -8 20 -0.5
v -7 17 -0.5
v -7 18 -0.5
v -7 19 -0.5
v -7 20 -0.5
v -7 21 -0.5
v -6 17 -0.5
v -6 18 -0.5
v -6 19 -0.5
v -6 20 -0.5
v -6 21 -0.5
v -5 18 -0.5
v -5 19 -0.5
v -5 20 -0.5
v -5 21 -0.5
v -5 22 -0.5
v -4 18 -0.5
v -4 19 -0.5
v -4 21 -0.5
v -4 22 -0.5
v -3 15 -0.5
v -3 16 -0.5
v -3 19 -0.5
v -3 20 -0.5
v -3 21 -0.5
v -2 0 -0.5
v -2 1 -0.5
v -2 15 -0.5
v -2 16 -0.5
v -1 0 -0.5
v -1 1 -0.5
v -1 15 -0.5
v -1 16 -0.5
v 0 15 -0.5
v 0 16 -0.5
v 0 19 -0.5
v 0 20 -0.5
v 1 18 -0.5
v 1 19 -0.5
v 1 20 -0.5
v 1 21 -0.5
v 1 22 -0.5
v 2 18 -0.5
v 2 19 -0.5
v 2 20 -0.5
v 2 21 -0.5
v 2 22 -0.5
v 3 17 -0.5
v 3 18 -0.5
v 3 19 -0.5
v 3 20 -0.5
v 3 21 -0.5
v 4 17 -0.5
v 4 18 -0.5
v 4 19 -0.5
v 4 20 -0.5
v 4 21 -0.5
v 4 22 -0.5
v 5 20 -0.5
v 5 21 -0.5
v 5 22 -0.5
v 6 17 -0.5
v 6 18 -0.5
v 6 19 -0.5
v 6 20 -0.5
v 7 17 -0.5
v 7 18 -0.5
v 7 19 -0.5
v 7 20 -0.5
v 7 21 -0.5
v 8 17 -0.5
v 8 18 -0.5
v 8 19 -0.5
v 8 20 -0.5
v 9 17 -0.5
v 9 18 -0.5
v 9 19 -0.5
v -4 17 -1.5
v -4 18 -1.5
v -4 19 -1.5
v -3 16 -1.5
v -3 17 -1.5
v -3 18 -1.5
v -3 19 -1.5
v -3 20 -1.5
v -2 15 -1.5
v -2 16 -1.5
v -2 17 -1.5
v -2 18 -1.5
v -2 19 -1.5
v -2 20 -1.5
v -2 21 -1.5
v -1 15 -1.5
v -1 16 -1.5
v -1 17 -1.5
v -1 18 -1.5
v -1 19 -1.5
v -1 20 -1.5
v -1 21 -1.5
v 0 16 -1.5
v 0 17 -1.5
v 0 18 -1.5
v 0 19 -1.5
v 0 20 -1.5
v 1 17 -1.5
v 1 18 -1.5
v 1 19 -1.5
v -2 0 0.5
v -1 0 0.5
v -2 0 -0.5
v -1 0 -0.5
v -2 15 1.5
v -1 15 1.5
v -3 15 0.5
v -2 15 0.5
v -1 15 0.5
v 0 15 0.5
v -3 15 -0.5
v -2 15 -0.5
v -1 15 -0.5
v 0 15 -0.5
v -2 15 -1.5
v -1 15 -1.5
v -3 16 1.5
v -2 16 1.5
v -1 16 1.5
v 0 16 1.5
v -3 16 0.5
v -2 16 0.5
v -1 16 0.5
v 0 16 0.5
v -3 16 -0.5
v -2 16 -0.5
v -1 16 -0.5
v 0 16 -0.5
v -3 16 -1.5
v -2 16 -1.5
v -1 16 -1.5
v 0 16 -1.5
v -4 17 1.5
v -3 17 1.5
v 0 17 1.5
v 1 17 1.5
v -7 17 0.5
v -6 17 0.5
v -4 17 0.5
v -3 17 0.5
v 0 17 0.5
v 1 17 0.5
v 3 17 0.5
v 4 17 0.5
v 6 17 0.5
v 7 17 0.5
v 8 17 0.5
v 9 17 0.5
v -7 17 -0.5
v -6 17 -0.5
v -4 17 -0.5
v -3 17 -0.5
v 0 17 -0.5
v 1 17 -0.5
v 3 17 -0.5
v 4 17 -0.5
v 6 17 -0.5
v 7 17 -0.5
v 8 17 -0.5
v 9 17 -0.5
v -4 17 -1.5
v -3 17 -1.5
v 0 17 -1.5
v 1 17 -1.5
v -9 18 0.5
v -8 18 0.5
v -7 18 0.5
v -6 18 0.5
v -5 18 0.5
v -4 18 0.5
v 1 18 0.5
v 2 18 0.5
v 3 18 0.5
v 4 18 0.5
v 6 18 0.5
v 7 18 0.5
v 8 18 0.5
v -9 18 -0.5
v -8 18 -0.5
v -7 18 -0.5
v -6 18 -0.5
v -5 18 -0.5
v -4 18 -0.5
v 1 18 -0.5
v 2 18 -0.5
v 3 18 -0.5
v 4 18 -0.5
v 6 18 -0.5
v 7 18 -0.5
v 8 18 -0.5
v -4 19 1.5
v -3 19 1.5
v 0 19 1.5
v 1 19 1.5
v -9 19 0.5
v -8 19 0.5
v -4 19 0.5
v -3 19 0.5
v 0 19 0.5
v 1 19 0.5
v 8 19 0.5
v 9 19 0.5
v -9 19 -0.5
v -8 19 -0.5
v -4 19 -0.5
v -3 19 -0.5
v 0 19 -0.5
v 1 19 -0.5
v 8 19 -0.5
v 9 19 -0.5
v -4 19 -1.5
v -3 19 -1.5
v 0 19 -1.5
v 1 19 -1.5
v -3 20 1.5
v -2 20 1.5
v -1 20 1.5
v 0 20 1.5
v -8 20 0.5
v -7 20 0.5
v -6 20 0.5
v -5 20 0.5
v -3 20 0.5
v -2 20 0.5
v -1 20 0.5
v 0 20 0.5
v 1 20 0.5
v 2 20 0.5
v 3 20 0.5
v 7 20 0.5
v 8 20 0.5
v -8 20 -0.5
v -7 20 -0.5
v -6 20 -0.5
v -5 20 -0.5
v -3 20 -0.5
v -2 20 -0.5
v -1 20 -0.5
v 0 20 -0.5
v 1 20 -0.5
v 2 20 -0.5
v 3 20 -0.5
v 7 20 -0.5
v 8 20 -0.5
v -3 20 -1.5
v -2 20 -1.5
v -1 20 -1.5
v 0 20 -1.5
v -2 21 1.5
v -1 21 1.5
v -7 21 0.5
v -6 21 0.5
v -4 21 0.5
v -3 21 0.5
v -2 21 0.5
v -1 21 0.5
v 3 21 0.5
v 4 21 0.5
v 5 21 0.5
v 7 21 0.5
v -7 21 -0.5
v -6 21 -0.5
v -4 21 -0.5
v -3 21 -0.5
v -2 21 -0.5
v -1 21 -0.5
v 3 21 -0.5
v 4 21 -0.5
v 5 21 -0.5
v 7 21 -0.5
v -2 21 -1.5
v -1 21 -1.5
v -5 22 0.5
v -4 22 0.5
v 1 22 0.5
v 2 22 0.5
v 4 22 0.5
v 5 22 0.5
v -5 22 -0.5
v -4 22 -0.5
v 1 22 -0.5
v 2 22 -0.5
v 4 22 -0.5
v 5 22 -0.5

# faces
f 3/1/1 2/1/1 1/1/1
f 4/1/1 2/1/1 3/1/1
f 7/6/1 6/6/1 5/6/1
f 8/6/1 6/6/1 7/6/1
f 11/1/1 10/1/1 9/1/1
f 12/1/1 10/1/1 11/1/1
f 15/3/1 14/3/1 13/3/1
f 16/3/1 14/3/1 15/3/1
f 19/6/1 18/6/1 17/6/1
f 20/6/1 18/6/1 19/6/1
f 21/5/1 20/5/1 19/5/1
f 22/5/1 20/5/1 21/5/1
f 27/6/1 24/6/1 23/6/1
f 28/3/1 25/3/1 24/3/1
f 28/6/1 24/6/1 27/6/1
f 29/6/1 26/6/1 25/6/1
f 29/3/1 25/3/1 28/3/1
f 30/6/1 26/6/1 29/6/1
f 31/5/1 28/5/1 27/5/1
f 32/5/1 28/5/1 31/5/1
f 33/5/1 30/5/1 29/5/1
f 34/5/1 30/5/1 33/5/1
f 38/5/1 36/5/1 35/5/1
f 39/5/1 36/5/1 38/5/1
f 41/6/1 38/6/1 37/6/1
f 41/6/1 40/6/1 39/6/1
f 41/6/1 39/6/1 38/6/1
f 42/6/1 40/6/1 41/6/1
f 43/6/1 40/6/1 42/6/1
f 44/6/1 40/6/1 43/6/1
f 49/6/1 46/6/1 45/6/1
f 50/6/1 46/6/1 49/6/1
f 51/6/1 48/6/1 47/6/1
f 52/6/1 48/6/1 51/6/1
f 55/1/1 54/1/1 53/1/1
f 56/1/1 54/1/1 55/1/1
f 58/6/1 56/6/1 55/6/1
f 59/6/1 56/6/1 58/6/1
f 61/6/1 58/6/1 57/6/1
f 62/6/1 58/6/1 61/6/1
f 63/6/1 60/6/1 59/6/1
f 64/6/1 60/6/1 63/6/1
f 69/5/1 66/5/1 65/5/1
f 70/1/1 67/1/1 66/1/1
f 70/5/1 66/5/1 69/5/1
f 71/5/1 68/5/1 67/5/1
f 71/1/1 67/1/1 70/1/1
f 72/5/1 68/5/1 71/5/1
f 75/6/1 74/6/1 73/6/1
f 76/6/1 74/6/1 75/6/1
f 77/3/1 76/3/1 75/3/1
f 78/3/1 76/3/1 77/3/1
f 81/4/1 80/4/1 79/4/1
f 82/4/1 80/4/1 81/4/1
f 85/6/1 84/6/1 83/6/1
f 86/6/1 84/6/1 85/6/1
f 89/5/1 88/5/1 87/5/1
f 90/5/1 88/5/1 89/5/1
f 93/1/1 92/1/1 91/1/1
f 94/1/1 92/1/1 93/1/1
f 97/3/1 96/3/1 95/3/1
f 98/3/1 96/3/1 97/3/1
f 99/1/2 100/1/2 101/1/2
f 101/1/2 100/1/2 102/1/2
f 103/3/2 104/3/2 105/3/2
f 105/3/2 104/3/2 106/3/2
f 107/5/2 108/5/2 109/5/2
f 109/5/2 108/5/2 110/5/2
f 111/6/2 112/6/2 113/6/2
f 113/6/2 112/6/2 114/6/2
f 115/1/2 116/1/2 117/1/2
f 117/1/2 116/1/2 118/1/2
f 117/6/2 118/6/2 120/6/2
f 120/6/2 118/6/2 121/6/2
f 119/6/2 120/6/2 123/6/2
f 123/6/2 120/6/2 124/6/2
f 121/6/2 122/6/2 125/6/2
f 125/6/2 122/6/2 126/6/2
f 127/5/2 128/5/2 131/5/2
f 128/1/2 129/1/2 132/1/2
f 131/5/2 128/5/2 132/5/2
f 129/5/2 130/5/2 133/5/2
f 132/1/2 129/1/2 133/1/2
f 133/5/2 130/5/2 134/5/2
f 135/5/2 136/5/2 138/5/2
f 138/5/2 136/5/2 139/5/2
f 137/6/2 138/6/2 141/6/2
f 139/6/2 140/6/2 141/6/2
f 138/6/2 139/6/2 141/6/2
f 141/6/2 140/6/2 142/6/2
f 142/6/2 140/6/2 143/6/2
f 143/6/2 140/6/2 144/6/2
f 145/6/2 146/6/2 149/6/2
f 149/6/2 146/6/2 150/6/2
f 147/6/2 148/6/2 151/6/2
f 151/6/2 148/6/2 152/6/2
f 153/6/2 154/6/2 157/6/2
f 154/3/2 155/3/2 158/3/2
f 157/6/2 154/6/2 158/6/2
f 155/6/2 156/6/2 159/6/2
f 158/3/2 155/3/2 159/3/2
f 159/6/2 156/6/2 160/6/2
f 157/5/2 158/5/2 161/5/2
f 161/5/2 158/5/2 162/5/2
f 159/5/2 160/5/2 163/5/2
f 163/5/2 160/5/2 164/5/2
f 165/6/2 166/6/2 167/6/2
f 167/6/2 166/6/2 168/6/2
f 167/3/2 168/3/2 169/3/2
f 169/3/2 168/3/2 170/3/2
f 171/4/2 172/4/2 173/4/2
f 173/4/2 172/4/2 174/4/2
f 175/5/2 176/5/2 177/5/2
f 177/5/2 176/5/2 178/5/2
f 179/1/2 180/1/2 181/1/2
f 181/1/2 180/1/2 182/1/2
f 183/6/2 184/6/2 185/6/2
f 185/6/2 184/6/2 186/6/2
f 187/6/2 188/6/2 189/6/2
f 189/6/2 188/6/2 190/6/2
f 191/3/2 192/3/2 193/3/2
f 193/3/2 192/3/2 194/3/2
f 193/6/2 194/6/2 195/6/2
f 195/6/2 194/6/2 196/6/2
f 201/6/3 198/6/3 197/6/3
f 202/5/3 199/5/3 198/5/3
f 202/6/3 198/6/3 201/6/3
f 203/5/3 199/5/3 202/5/3
f 206/6/3 201/6/3 200/6/3
f 207/4/3 202/4/3 201/4/3
f 207/6/3 201/6/3 206/6/3
f 208/3/3 203/3/3 202/3/3
f 208/4/3 202/4/3 207/4/3
f 209/6/3 204/6/3 203/6/3
f 209/3/3 203/3/3 208/3/3
f 210/6/3 204/6/3 209/6/3
f 212/6/3 206/6/3 205/6/3
f 213/3/3 208/3/3 207/3/3
f 213/6/3 206/6/3 212/6/3
f 213/3/3 207/3/3 206/3/3
f 213/3/3 209/3/3 208/3/3
f 214/3/3 209/3/3 213/3/3
f 215/3/3 209/3/3 214/3/3
f 216/1/3 210/1/3 209/1/3
f 216/3/3 209/3/3 215/3/3
f 217/5/3 211/5/3 210/5/3
f 217/1/3 210/1/3 216/1/3
f 218/5/3 211/5/3 217/5/3
f 219/6/3 214/6/3 213/6/3
f 220/4/3 215/4/3 214/4/3
f 220/6/3 214/6/3 219/6/3
f 221/3/3 216/3/3 215/3/3
f 221/4/3 215/4/3 220/4/3
f 222/6/3 217/6/3 216/6/3
f 222/3/3 216/3/3 221/3/3
f 223/6/3 217/6/3 222/6/3
f 224/6/3 221/6/3 220/6/3
f 225/5/3 222/5/3 221/5/3
f 225/6/3 221/6/3 224/6/3
f 226/5/3 222/5/3 225/5/3
f 229/1/3 228/1/3 227/1/3
f 230/1/3 228/1/3 229/1/3
f 233/4/3 230/4/3 229/4/3
f 234/6/3 231/6/3 230/6/3
f 234/4/3 230/4/3 233/4/3
f 235/6/3 231/6/3 234/6/3
f 237/1/3 233/1/3 232/1/3
f 238/5/3 234/5/3 233/5/3
f 238/1/3 233/1/3 237/1/3
f 238/5/3 235/5/3 234/5/3
f 239/5/3 235/5/3 238/5/3
f 240/3/3 236/3/3 235/3/3
f 240/5/3 235/5/3 239/5/3
f 241/3/3 236/3/3 240/3/3
f 242/3/3 239/3/3 238/3/3
f 243/6/3 240/6/3 239/6/3
f 243/3/3 239/3/3 242/3/3
f 244/6/3 240/6/3 243/6/3
f 247/4/3 243/4/3 242/4/3
f 248/6/3 245/6/3 244/6/3
f 248/4/3 243/4/3 247/4/3
f 248/6/3 244/6/3 243/6/3
f 249/5/3 246/5/3 245/5/3
f 249/6/3 245/6/3 248/6/3
f 250/5/3 246/5/3 249/5/3
f 253/6/3 249/6/3 248/6/3
f 254/6/3 249/6/3 253/6/3
f 255/6/3 249/6/3 254/6/3
f 258/5/3 252/5/3 251/5/3
f 259/5/3 252/5/3 258/5/3
f 260/1/3 257/1/3 256/1/3
f 261/6/3 258/6/3 257/6/3
f 261/1/3 257/1/3 260/1/3
f 262/6/3 258/6/3 261/6/3
f 264/5/3 263/5/3 262/5/3
f 265/5/3 263/5/3 264/5/3
f 269/6/3 267/6/3 266/6/3
f 270/6/3 267/6/3 269/6/3
f 273/4/3 269/4/3 268/4/3
f 274/6/3 271/6/3 270/6/3
f 274/4/3 269/4/3 273/4/3
f 274/6/3 270/6/3 269/6/3
f 275/6/3 271/6/3 274/6/3
f 276/3/3 272/3/3 271/3/3
f 276/6/3 271/6/3 275/6/3
f 277/3/3 272/3/3 276/3/3
f 279/1/3 274/1/3 273/1/3
f 280/6/3 275/6/3 274/6/3
f 280/1/3 274/1/3 279/1/3
f 281/6/3 275/6/3 280/6/3
f 283/4/3 279/4/3 278/4/3
f 284/5/3 280/5/3 279/5/3
f 284/4/3 279/4/3 283/4/3
f 284/5/3 281/5/3 280/5/3
f 285/5/3 281/5/3 284/5/3
f 286/6/3 282/6/3 281/6/3
f 286/5/3 281/5/3 285/5/3
f 287/6/3 282/6/3 286/6/3
f 289/5/3 288/5/3 287/5/3
f 289/5/3 287/5/3 286/5/3
f 289/6/3 286/6/3 285/6/3
f 290/5/3 288/5/3 289/5/3
f 291/5/3 288/5/3 290/5/3
f 293/3/3 285/3/3 284/3/3
f 294/6/3 289/6/3 285/6/3
f 294/6/3 290/6/3 289/6/3
f 294/3/3 285/3/3 293/3/3
f 295/6/3 290/6/3 294/6/3
f 296/1/3 293/1/3 292/1/3
f 297/5/3 294/5/3 293/5/3
f 297/1/3 293/1/3 296/1/3
f 297/5/3 295/5/3 294/5/3
f 298/5/3 295/5/3 297/5/3
f 299/6/3 290/6/3 295/6/3
f 299/5/3 295/5/3 298/5/3
f 300/6/3 290/6/3 299/6/3
f 302/3/3 298/3/3 297/3/3
f 303/6/3 299/6/3 298/6/3
f 303/3/3 298/3/3 302/3/3
f 304/6/3 299/6/3 303/6/3
f 305/3/3 302/3/3 301/3/3
f 306/6/3 303/6/3 302/6/3
f 306/3/3 302/3/3 305/3/3
f 307/6/3 303/6/3 306/6/3
f 308/1/4 309/1/4 310/1/4
f 310/1/4 309/1/4 311/1/4
f 310/4/4 311/4/4 314/4/4
f 311/6/4 312/6/4 315/6/4
f 314/4/4 311/4/4 315/4/4
f 315/6/4 312/6/4 316/6/4
f 313/1/4 314/1/4 318/1/4
f 314/5/4 315/5/4 319/5/4
f 318/1/4 314/1/4 319/1/4
f 315/5/4 316/5/4 319/5/4
f 319/5/4 316/5/4 320/5/4
f 316/3/4 317/3/4 321/3/4
f 320/5/4 316/5/4 321/5/4
f 321/3/4 317/3/4 322/3/4
f 319/3/4 320/3/4 323/3/4
f 320/6/4 321/6/4 324/6/4
f 323/3/4 320/3/4 324/3/4
f 324/6/4 321/6/4 325/6/4
f 323/4/4 324/4/4 328/4/4
f 325/6/4 326/6/4 329/6/4
f 328/4/4 324/4/4 329/4/4
f 324/6/4 325/6/4 329/6/4
f 326/5/4 327/5/4 330/5/4
f 329/6/4 326/6/4 330/6/4
f 330/5/4 327/5/4 331/5/4
f 329/6/4 330/6/4 334/6/4
f 334/6/4 330/6/4 335/6/4
f 335/6/4 330/6/4 336/6/4
f 332/5/4 333/5/4 339/5/4
f 339/5/4 333/5/4 340/5/4
f 337/1/4 338/1/4 341/1/4
f 338/6/4 339/6/4 342/6/4
f 341/1/4 338/1/4 342/1/4
f 342/6/4 339/6/4 343/6/4
f 343/5/4 344/5/4 345/5/4
f 345/5/4 344/5/4 346/5/4
f 347/6/4 348/6/4 350/6/4
f 350/6/4 348/6/4 351/6/4
f 349/4/4 350/4/4 354/4/4
f 351/6/4 352/6/4 355/6/4
f 354/4/4 350/4/4 355/4/4
f 350/6/4 351/6/4 355/6/4
f 355/6/4 352/6/4 356/6/4
f 352/3/4 353/3/4 357/3/4
f 356/6/4 352/6/4 357/6/4
f 357/3/4 353/3/4 358/3/4
f 354/1/4 355/1/4 360/1/4
f 355/6/4 356/6/4 361/6/4
f 360/1/4 355/1/4 361/1/4
f 361/6/4 356/6/4 362/6/4
f 359/4/4 360/4/4 364/4/4
f 360/5/4 361/5/4 365/5/4
f 364/4/4 360/4/4 365/4/4
f 361/5/4 362/5/4 365/5/4
f 365/5/4 362/5/4 366/5/4
f 362/6/4 363/6/4 367/6/4
f 366/5/4 362/5/4 367/5/4
f 367/6/4 363/6/4 368/6/4
f 368/5/4 369/5/4 370/5/4
f 367/5/4 368/5/4 370/5/4
f 366/6/4 367/6/4 370/6/4
f 370/5/4 369/5/4 371/5/4
f 371/5/4 369/5/4 372/5/4
f 365/3/4 366/3/4 374/3/4
f 366/6/4 370/6/4 375/6/4
f 370/6/4 371/6/4 375/6/4
f 374/3/4 366/3/4 375/3/4
f 375/6/4 371/6/4 376/6/4
f 373/1/4 374/1/4 377/1/4
f 374/5/4 375/5/4 378/5/4
f 377/1/4 374/1/4 378/1/4
f 375/5/4 376/5/4 378/5/4
f 378/5/4 376/5/4 379/5/4
f 376/6/4 371/6/4 380/6/4
f 379/5/4 376/5/4 380/5/4
f 380/6/4 371/6/4 381/6/4
f 378/3/4 379/3/4 383/3/4
f 379/6/4 380/6/4 384/6/4
f 383/3/4 379/3/4 384/3/4
f 384/6/4 380/6/4 385/6/4
f 382/3/4 383/3/4 386/3/4
f 383/6/4 384/6/4 387/6/4
f 386/3/4 383/3/4 387/3/4
f 387/6/4 384/6/4 388/6/4
f 389/6/4 390/6/4 393/6/4
f 390/5/4 391/5/4 394/5/4
f 393/6/4 390/6/4 394/6/4
f 394/5/4 391/5/4 395/5/4
f 392/6/4 393/6/4 398/6/4
f 393/4/4 394/4/4 399/4/4
f 398/6/4 393/6/4 399/6/4
f 394/3/4 395/3/4 400/3/4
f 399/4/4 394/4/4 400/4/4
f 395/6/4 396/6/4 401/6/4
f 400/3/4 395/3/4 401/3/4
f 401/6/4 396/6/4 402/6/4
f 397/6/4 398/6/4 404/6/4
f 399/3/4 400/3/4 405/3/4
f 404/6/4 398/6/4 405/6/4
f 398/3/4 399/3/4 405/3/4
f 400/3/4 401/3/4 405/3/4
f 405/3/4 401/3/4 406/3/4
f 406/3/4 401/3/4 407/3/4
f 401/1/4 402/1/4 408/1/4
f 407/3/4 401/3/4 408/3/4
f 402/5/4 403/5/4 409/5/4
f 408/1/4 402/1/4 409/1/4
f 409/5/4 403/5/4 410/5/4
f 405/6/4 406/6/4 411/6/4
f 406/4/4 407/4/4 412/4/4
f 411/6/4 406/6/4 412/6/4
f 407/3/4 408/3/4 413/3/4
f 412/4/4 407/4/4 413/4/4
f 408/6/4 409/6/4 414/6/4
f 413/3/4 408/3/4 414/3/4
f 414/6/4 409/6/4 415/6/4
f 412/6/4 413/6/4 416/6/4
f 413/5/4 414/5/4 417/5/4
f 416/6/4 413/6/4 417/6/4
f 417/5/4 414/5/4 418/5/4
f 421/1/5 420/1/5 419/1/5
f 422/1/5 420/1/5 421/1/5
f 426/6/5 424/6/5 423/6/5
f 427/6/5 424/6/5 426/6/5
f 429/5/5 426/5/5 425/5/5
f 430/5/5 426/5/5 429/5/5
f 431/5/5 428/5/5 427/5/5
f 432/5/5 428/5/5 431/5/5
f 433/6/5 431/6/5 430/6/5
f 434/6/5 431/6/5 433/6/5
f 439/6/5 436/6/5 435/6/5
f 440/6/5 436/6/5 439/6/5
f 441/6/5 438/6/5 437/6/5
f 442/6/5 438/6/5 441/6/5
f 447/6/5 444/6/5 443/6/5
f 448/6/5 444/6/5 447/6/5
f 449/6/5 446/6/5 445/6/5
f 450/6/5 446/6/5 449/6/5
f 457/6/5 452/6/5 451/6/5
f 458/6/5 452/6/5 457/6/5
f 459/6/5 454/6/5 453/6/5
f 460/6/5 454/6/5 459/6/5
f 467/1/5 456/1/5 455/1/5
f 468/1/5 456/1/5 467/1/5
f 469/3/5 458/3/5 457/3/5
f 470/3/5 458/3/5 469/3/5
f 471/3/5 460/3/5 459/3/5
f 472/3/5 460/3/5 471/3/5
f 473/4/5 462/4/5 461/4/5
f 474/4/5 462/4/5 473/4/5
f 475/1/5 464/1/5 463/1/5
f 476/1/5 464/1/5 475/1/5
f 477/3/5 466/3/5 465/3/5
f 478/3/5 466/3/5 477/3/5
f 479/6/5 470/6/5 469/6/5
f 480/6/5 470/6/5 479/6/5
f 481/6/5 472/6/5 471/6/5
f 482/6/5 472/6/5 481/6/5
f 496/1/5 484/1/5 483/1/5
f 497/4/5 485/4/5 484/4/5
f 497/1/5 484/1/5 496/1/5
f 498/4/5 485/4/5 497/4/5
f 499/3/5 487/3/5 486/3/5
f 500/4/5 488/4/5 487/4/5
f 500/3/5 487/3/5 499/3/5
f 501/4/5 488/4/5 500/4/5
f 502/4/5 490/4/5 489/4/5
f 503/1/5 491/1/5 490/1/5
f 503/4/5 490/4/5 502/4/5
f 504/1/5 491/1/5 503/1/5
f 505/3/5 493/3/5 492/3/5
f 506/3/5 493/3/5 505/3/5
f 507/3/5 495/3/5 494/3/5
f 508/3/5 495/3/5 507/3/5
f 509/5/6 510/5/6 515/5/6
f 515/5/6 510/5/6 516/5/6
f 511/5/6 512/5/6 517/5/6
f 517/5/6 512/5/6 518/5/6
f 513/1/6 514/1/6 521/1/6
f 521/1/6 514/1/6 522/1/6
f 519/6/6 520/6/6 527/6/6
f 527/6/6 520/6/6 528/6/6
f 523/5/6 524/5/6 529/5/6
f 529/5/6 524/5/6 530/5/6
f 525/5/6 526/5/6 531/5/6
f 531/5/6 526/5/6 532/5/6
f 533/6/6 534/6/6 541/6/6
f 541/6/6 534/6/6 542/6/6
f 535/6/6 536/6/6 543/6/6
f 543/6/6 536/6/6 544/6/6
f 537/6/6 538/6/6 550/6/6
f 550/6/6 538/6/6 551/6/6
f 539/6/6 540/6/6 552/6/6
f 552/6/6 540/6/6 553/6/6
f 541/1/6 542/1/6 554/1/6
f 554/1/6 542/1/6 555/1/6
f 543/1/6 544/1/6 556/1/6
f 544/6/6 545/6/6 557/6/6
f 556/1/6 544/1/6 557/1/6
f 557/6/6 545/6/6 558/6/6
f 546/6/6 547/6/6 559/6/6
f 559/6/6 547/6/6 560/6/6
f 548/6/6 549/6/6 561/6/6
f 561/6/6 549/6/6 562/6/6
f 554/6/6 555/6/6 563/6/6
f 563/6/6 555/6/6 564/6/6
f 556/6/6 557/6/6 565/6/6
f 565/6/6 557/6/6 566/6/6
f 567/5/6 568/5/6 573/5/6
f 573/5/6 568/5/6 574/5/6
f 569/3/6 570/3/6 579/3/6
f 579/3/6 570/3/6 580/3/6
f 571/6/6 572/6/6 581/6/6
f 581/6/6 572/6/6 582/6/6
f 573/1/6 574/1/6 583/1/6
f 583/1/6 574/1/6 584/1/6
f 575/6/6 576/6/6 585/6/6
f 585/6/6 576/6/6 586/6/6
f 577/6/6 578/6/6 587/6/6
f 587/6/6 578/6/6 588/6/6
f 583/5/6 584/5/6 589/5/6
f 589/5/6 584/5/6 590/5/6
f 591/5/6 592/5/6 597/5/6
f 597/5/6 592/5/6 598/5/6
f 593/3/6 594/3/6 599/3/6
f 599/3/6 594/3/6 600/3/6
f 595/5/6 596/5/6 601/5/6
f 601/5/6 596/5/6 602/5/6
