# MagicaVoxel @ Ephtracy

# material
mtllib body.mtl
usemtl palette

# normals
vn -1 0 0
vn 1 0 0
vn 0 0 1
vn 0 0 -1
vn 0 -1 0
vn 0 1 0

# texcoords
vt 0.0136719 0.5
vt 0.169922 0.5
vt 0.255859 0.5
vt 0.271484 0.5
vt 0.572266 0.5
vt 0.912109 0.5

# verts
v -2.5 4 3.5
v -2.5 4 2.5
v -2.5 4 1.5
v -2.5 5 2.5
v -2.5 5 1.5
v -2.5 5 0.5
v -2.5 6 1.5
v -2.5 6 0.5
v -2.5 7 2.5
v -2.5 7 0.5
v -2.5 8 3.5
v -2.5 8 2.5
v -2.5 8 0.5
v -2.5 9 2.5
v -2.5 9 0.5
v 2.5 4 3.5
v 2.5 4 1.5
v 2.5 5 3.5
v 2.5 5 1.5
v 2.5 5 0.5
v 2.5 6 2.5
v 2.5 6 1.5
v 2.5 7 2.5
v 2.5 7 1.5
v 2.5 7 0.5
v 2.5 8 3.5
v 2.5 8 2.5
v 2.5 8 1.5
v 2.5 8 0.5
v 2.5 9 2.5
v 2.5 9 1.5
v 2.5 9 0.5
v -2.5 4 3.5
v -2.5 8 3.5
v -1.5 6 3.5
v -1.5 7 3.5
v -0.5 4 3.5
v -0.5 5 3.5
v -0.5 6 3.5
v -0.5 7 3.5
v 0.5 5 3.5
v 0.5 6 3.5
v 1.5 4 3.5
v 1.5 5 3.5
v 1.5 6 3.5
v 2.5 4 3.5
v 2.5 5 3.5
v 2.5 8 3.5
v -2.5 8 2.5
v -2.5 9 2.5
v 2.5 8 2.5
v 2.5 9 2.5
v -2.5 4 1.5
v -2.5 5 1.5
v 1.5 5 1.5
v 2.5 4 1.5
v 2.5 5 1.5
v -2.5 5 0.5
v -2.5 6 0.5
v -2.5 7 0.5
v -2.5 8 0.5
v -2.5 9 0.5
v -1.5 6 0.5
v -1.5 7 0.5
v -1.5 8 0.5
v -1.5 9 0.5
v -0.5 7 0.5
v -0.5 8 0.5
v 0.5 7 0.5
v 0.5 8 0.5
v 1.5 5 0.5
v 1.5 7 0.5
v 1.5 8 0.5
v 1.5 9 0.5
v 2.5 5 0.5
v 2.5 7 0.5
v 2.5 8 0.5
v 2.5 9 0.5
v -2.5 4 3.5
v -0.5 4 3.5
v 1.5 4 3.5
v 2.5 4 3.5
v -2.5 4 2.5
v -0.5 4 2.5
v 1.5 4 2.5
v -2.5 4 1.5
v 2.5 4 1.5
v -2.5 5 1.5
v 1.5 5 1.5
v 2.5 5 1.5
v -2.5 5 0.5
v 1.5 5 0.5
v 2.5 5 0.5
v -2.5 8 3.5
v 2.5 8 3.5
v -2.5 8 2.5
v 2.5 8 2.5
v -2.5 9 2.5
v 2.5 9 2.5
v -1.5 9 1.5
v 1.5 9 1.5
v 2.5 9 1.5
v -2.5 9 0.5
v -1.5 9 0.5
v 1.5 9 0.5
v 2.5 9 0.5

# faces
f 4/4/1 2/4/1 1/4/1
f 4/2/1 3/2/1 2/2/1
f 5/2/1 3/2/1 4/2/1
f 7/4/1 5/4/1 4/4/1
f 7/6/1 6/6/1 5/6/1
f 8/6/1 6/6/1 7/6/1
f 9/4/1 4/4/1 1/4/1
f 9/4/1 7/4/1 4/4/1
f 9/4/1 8/4/1 7/4/1
f 10/4/1 8/4/1 9/4/1
f 11/4/1 9/4/1 1/4/1
f 12/3/1 10/3/1 9/3/1
f 12/4/1 9/4/1 11/4/1
f 13/3/1 10/3/1 12/3/1
f 14/4/1 13/4/1 12/4/1
f 15/4/1 13/4/1 14/4/1
f 16/2/2 17/2/2 18/2/2
f 18/2/2 17/2/2 19/2/2
f 18/4/2 19/4/2 21/4/2
f 19/4/2 20/4/2 21/4/2
f 21/4/2 20/4/2 22/4/2
f 18/4/2 21/4/2 23/4/2
f 21/1/2 22/1/2 23/1/2
f 22/4/2 20/4/2 24/4/2
f 23/1/2 22/1/2 24/1/2
f 24/4/2 20/4/2 25/4/2
f 18/4/2 23/4/2 26/4/2
f 23/4/2 24/4/2 26/4/2
f 26/4/2 24/4/2 27/4/2
f 24/3/2 25/3/2 28/3/2
f 27/4/2 24/4/2 28/4/2
f 28/3/2 25/3/2 29/3/2
f 27/4/2 28/4/2 30/4/2
f 28/1/2 29/1/2 31/1/2
f 30/4/2 28/4/2 31/4/2
f 31/1/2 29/1/2 32/1/2
f 35/4/3 34/4/3 33/4/3
f 36/4/3 34/4/3 35/4/3
f 37/4/3 35/4/3 33/4/3
f 38/4/3 35/4/3 37/4/3
f 39/1/3 36/1/3 35/1/3
f 39/4/3 35/4/3 38/4/3
f 40/4/3 34/4/3 36/4/3
f 40/1/3 36/1/3 39/1/3
f 41/4/3 39/4/3 38/4/3
f 41/1/3 38/1/3 37/1/3
f 41/4/3 40/4/3 39/4/3
f 42/4/3 40/4/3 41/4/3
f 43/1/3 41/1/3 37/1/3
f 43/1/3 42/1/3 41/1/3
f 44/1/3 42/1/3 43/1/3
f 45/4/3 40/4/3 42/4/3
f 45/1/3 42/1/3 44/1/3
f 46/2/3 44/2/3 43/2/3
f 47/4/3 45/4/3 44/4/3
f 47/2/3 44/2/3 46/2/3
f 48/4/3 34/4/3 40/4/3
f 48/4/3 45/4/3 47/4/3
f 48/4/3 40/4/3 45/4/3
f 51/4/3 50/4/3 49/4/3
f 52/4/3 50/4/3 51/4/3
f 53/2/4 54/2/4 55/2/4
f 53/2/4 55/2/4 56/2/4
f 56/2/4 55/2/4 57/2/4
f 58/6/4 59/6/4 63/6/4
f 59/4/4 60/4/4 63/4/4
f 60/3/4 61/3/4 64/3/4
f 63/4/4 60/4/4 64/4/4
f 61/4/4 62/4/4 65/4/4
f 64/3/4 61/3/4 65/3/4
f 65/4/4 62/4/4 66/4/4
f 63/6/4 64/6/4 67/6/4
f 64/6/4 65/6/4 67/6/4
f 65/5/4 66/5/4 68/5/4
f 67/6/4 65/6/4 68/6/4
f 63/6/4 67/6/4 69/6/4
f 67/5/4 68/5/4 69/5/4
f 68/5/4 66/5/4 70/5/4
f 69/5/4 68/5/4 70/5/4
f 58/6/4 63/6/4 71/6/4
f 63/6/4 69/6/4 71/6/4
f 69/6/4 70/6/4 71/6/4
f 71/6/4 70/6/4 72/6/4
f 70/5/4 66/5/4 73/5/4
f 72/6/4 70/6/4 73/6/4
f 73/5/4 66/5/4 74/5/4
f 71/4/4 72/4/4 75/4/4
f 72/3/4 73/3/4 76/3/4
f 75/4/4 72/4/4 76/4/4
f 73/1/4 74/1/4 77/1/4
f 76/3/4 73/3/4 77/3/4
f 77/1/4 74/1/4 78/1/4
f 83/4/5 80/4/5 79/4/5
f 84/1/5 81/1/5 80/1/5
f 84/4/5 80/4/5 83/4/5
f 85/2/5 82/2/5 81/2/5
f 85/1/5 81/1/5 84/1/5
f 86/2/5 84/2/5 83/2/5
f 86/2/5 85/2/5 84/2/5
f 87/2/5 82/2/5 85/2/5
f 87/2/5 85/2/5 86/2/5
f 91/6/5 89/6/5 88/6/5
f 92/4/5 90/4/5 89/4/5
f 92/6/5 89/6/5 91/6/5
f 93/4/5 90/4/5 92/4/5
f 94/4/6 95/4/6 96/4/6
f 96/4/6 95/4/6 97/4/6
f 98/4/6 99/4/6 100/4/6
f 100/4/6 99/4/6 101/4/6
f 101/4/6 99/4/6 102/4/6
f 98/4/6 100/4/6 103/4/6
f 100/5/6 101/5/6 104/5/6
f 103/4/6 100/4/6 104/4/6
f 101/1/6 102/1/6 105/1/6
f 104/5/6 101/5/6 105/5/6
f 105/1/6 102/1/6 106/1/6
