# MagicaVoxel @ Ephtracy

# material
mtllib head.mtl
usemtl palette

# normals
vn -1 0 0
vn 1 0 0
vn 0 0 1
vn 0 0 -1
vn 0 -1 0
vn 0 1 0

# texcoords
vt 0.0136719 0.5
vt 0.263672 0.5
vt 0.529297 0.5
vt 0.533203 0.5
vt 0.572266 0.5

# verts
v -3.5 11 2.5
v -3.5 11 1.5
v -3.5 12 2.5
v -3.5 12 1.5
v -3.5 13 2.5
v -3.5 13 1.5
v -2.5 10 3.5
v -2.5 10 2.5
v -2.5 10 0.5
v -2.5 10 -0.5
v -2.5 11 4.5
v -2.5 11 3.5
v -2.5 11 2.5
v -2.5 11 1.5
v -2.5 11 0.5
v -2.5 11 -0.5
v -2.5 12 3.5
v -2.5 12 2.5
v -2.5 12 1.5
v -2.5 12 0.5
v -2.5 12 -0.5
v -2.5 13 2.5
v -2.5 13 1.5
v -2.5 13 0.5
v -2.5 13 -0.5
v -2.5 14 4.5
v -2.5 14 3.5
v -2.5 14 2.5
v -2.5 14 0.5
v -2.5 14 -0.5
v -2.5 15 3.5
v -2.5 15 0.5
v -1.5 10 4.5
v -1.5 10 3.5
v -1.5 11 4.5
v -1.5 11 3.5
v -1.5 14 4.5
v -1.5 14 3.5
v -1.5 14 0.5
v -1.5 14 -0.5
v -1.5 15 4.5
v -1.5 15 3.5
v -1.5 15 0.5
v -1.5 15 -0.5
v 1.5 10 4.5
v 1.5 10 3.5
v 1.5 11 4.5
v 1.5 11 3.5
v 1.5 14 4.5
v 1.5 14 3.5
v 1.5 14 0.5
v 1.5 14 -0.5
v 1.5 15 4.5
v 1.5 15 3.5
v 1.5 15 0.5
v 1.5 15 -0.5
v 2.5 10 3.5
v 2.5 10 1.5
v 2.5 10 0.5
v 2.5 10 -0.5
v 2.5 11 4.5
v 2.5 11 3.5
v 2.5 11 2.5
v 2.5 11 1.5
v 2.5 11 0.5
v 2.5 11 -0.5
v 2.5 12 4.5
v 2.5 12 3.5
v 2.5 12 2.5
v 2.5 12 1.5
v 2.5 12 0.5
v 2.5 12 -0.5
v 2.5 13 2.5
v 2.5 13 1.5
v 2.5 13 0.5
v 2.5 13 -0.5
v 2.5 14 4.5
v 2.5 14 3.5
v 2.5 14 2.5
v 2.5 14 1.5
v 2.5 14 0.5
v 2.5 14 -0.5
v 2.5 15 3.5
v 2.5 15 0.5
v 3.5 11 2.5
v 3.5 11 1.5
v 3.5 12 2.5
v 3.5 12 1.5
v -2.5 11 4.5
v -2.5 14 4.5
v -1.5 10 4.5
v -1.5 11 4.5
v -1.5 12 4.5
v -1.5 13 4.5
v -1.5 14 4.5
v -1.5 15 4.5
v -0.5 10 4.5
v -0.5 11 4.5
v -0.5 12 4.5
v -0.5 13 4.5
v 0.5 11 4.5
v 0.5 12 4.5
v 0.5 13 4.5
v 0.5 14 4.5
v 1.5 10 4.5
v 1.5 11 4.5
v 1.5 12 4.5
v 1.5 13 4.5
v 1.5 14 4.5
v 1.5 15 4.5
v 2.5 11 4.5
v 2.5 12 4.5
v 2.5 14 4.5
v -2.5 10 3.5
v -2.5 11 3.5
v -2.5 14 3.5
v -2.5 15 3.5
v -1.5 10 3.5
v -1.5 11 3.5
v -1.5 14 3.5
v -1.5 15 3.5
v 1.5 10 3.5
v 1.5 11 3.5
v 1.5 14 3.5
v 1.5 15 3.5
v 2.5 10 3.5
v 2.5 11 3.5
v 2.5 14 3.5
v 2.5 15 3.5
v -3.5 11 2.5
v -3.5 12 2.5
v -3.5 13 2.5
v -2.5 11 2.5
v -2.5 12 2.5
v -2.5 13 2.5
v 2.5 11 2.5
v 2.5 12 2.5
v 3.5 11 2.5
v 3.5 12 2.5
v -3.5 11 1.5
v -3.5 12 1.5
v -3.5 13 1.5
v -2.5 11 1.5
v -2.5 12 1.5
v -2.5 13 1.5
v 2.5 11 1.5
v 2.5 12 1.5
v 3.5 11 1.5
v 3.5 12 1.5
v -2.5 14 0.5
v -2.5 15 0.5
v -1.5 14 0.5
v -1.5 15 0.5
v 1.5 14 0.5
v 1.5 15 0.5
v 2.5 14 0.5
v 2.5 15 0.5
v -2.5 10 -0.5
v -2.5 11 -0.5
v -2.5 12 -0.5
v -2.5 13 -0.5
v -2.5 14 -0.5
v -1.5 10 -0.5
v -1.5 11 -0.5
v -1.5 12 -0.5
v -1.5 13 -0.5
v -1.5 14 -0.5
v -1.5 15 -0.5
v -0.5 11 -0.5
v -0.5 12 -0.5
v -0.5 13 -0.5
v 0.5 11 -0.5
v 0.5 12 -0.5
v 0.5 13 -0.5
v 0.5 14 -0.5
v 0.5 15 -0.5
v 1.5 10 -0.5
v 1.5 11 -0.5
v 1.5 14 -0.5
v 1.5 15 -0.5
v 2.5 10 -0.5
v 2.5 11 -0.5
v 2.5 12 -0.5
v 2.5 13 -0.5
v 2.5 14 -0.5
v -1.5 10 4.5
v -0.5 10 4.5
v 1.5 10 4.5
v -2.5 10 3.5
v -1.5 10 3.5
v -0.5 10 3.5
v 1.5 10 3.5
v 2.5 10 3.5
v -2.5 10 2.5
v -1.5 10 2.5
v 1.5 10 1.5
v 2.5 10 1.5
v -2.5 10 0.5
v -1.5 10 0.5
v 1.5 10 0.5
v 2.5 10 0.5
v -2.5 10 -0.5
v -1.5 10 -0.5
v 1.5 10 -0.5
v 2.5 10 -0.5
v -2.5 11 4.5
v -1.5 11 4.5
v 1.5 11 4.5
v 2.5 11 4.5
v -2.5 11 3.5
v -1.5 11 3.5
v 1.5 11 3.5
v 2.5 11 3.5
v -3.5 11 2.5
v -2.5 11 2.5
v 2.5 11 2.5
v 3.5 11 2.5
v -3.5 11 1.5
v -2.5 11 1.5
v 2.5 11 1.5
v 3.5 11 1.5
v 2.5 12 2.5
v 3.5 12 2.5
v 2.5 12 1.5
v 3.5 12 1.5
v -3.5 13 2.5
v -2.5 13 2.5
v -3.5 13 1.5
v -2.5 13 1.5
v -2.5 14 4.5
v -1.5 14 4.5
v 1.5 14 4.5
v 2.5 14 4.5
v -2.5 14 3.5
v -1.5 14 3.5
v 1.5 14 3.5
v 2.5 14 3.5
v -2.5 14 0.5
v -1.5 14 0.5
v 1.5 14 0.5
v 2.5 14 0.5
v -2.5 14 -0.5
v -1.5 14 -0.5
v 1.5 14 -0.5
v 2.5 14 -0.5
v -1.5 15 4.5
v 1.5 15 4.5
v -2.5 15 3.5
v -1.5 15 3.5
v 1.5 15 3.5
v 2.5 15 3.5
v -2.5 15 0.5
v -1.5 15 0.5
v 0.5 15 0.5
v 1.5 15 0.5
v 2.5 15 0.5
v -1.5 15 -0.5
v 0.5 15 -0.5
v 1.5 15 -0.5

# faces
f 3/5/1 2/5/1 1/5/1
f 4/5/1 2/5/1 3/5/1
f 5/3/1 4/3/1 3/3/1
f 6/3/1 4/3/1 5/3/1
f 12/2/1 8/2/1 7/2/1
f 13/5/1 9/5/1 8/5/1
f 13/2/1 8/2/1 12/2/1
f 14/5/1 9/5/1 13/5/1
f 15/3/1 10/3/1 9/3/1
f 15/5/1 9/5/1 14/5/1
f 16/3/1 10/3/1 15/3/1
f 17/2/1 12/2/1 11/2/1
f 17/5/1 13/5/1 12/5/1
f 18/5/1 13/5/1 17/5/1
f 19/5/1 15/5/1 14/5/1
f 20/4/1 16/4/1 15/4/1
f 20/5/1 15/5/1 19/5/1
f 21/4/1 16/4/1 20/4/1
f 22/2/1 18/2/1 17/2/1
f 23/5/1 20/5/1 19/5/1
f 23/5/1 21/5/1 20/5/1
f 24/5/1 21/5/1 23/5/1
f 25/5/1 21/5/1 24/5/1
f 26/2/1 17/2/1 11/2/1
f 26/2/1 22/2/1 17/2/1
f 27/2/1 22/2/1 26/2/1
f 28/5/1 23/5/1 22/5/1
f 28/2/1 22/2/1 27/2/1
f 28/5/1 24/5/1 23/5/1
f 29/3/1 25/3/1 24/3/1
f 29/5/1 24/5/1 28/5/1
f 30/3/1 25/3/1 29/3/1
f 31/2/1 28/2/1 27/2/1
f 31/2/1 29/2/1 28/2/1
f 32/2/1 29/2/1 31/2/1
f 35/2/1 34/2/1 33/2/1
f 36/2/1 34/2/1 35/2/1
f 41/2/1 38/2/1 37/2/1
f 42/2/1 38/2/1 41/2/1
f 43/2/1 40/2/1 39/2/1
f 44/2/1 40/2/1 43/2/1
f 45/3/2 46/3/2 47/3/2
f 47/3/2 46/3/2 48/3/2
f 49/2/2 50/2/2 53/2/2
f 53/2/2 50/2/2 54/2/2
f 51/5/2 52/5/2 55/5/2
f 55/5/2 52/5/2 56/5/2
f 57/5/2 58/5/2 62/5/2
f 62/5/2 58/5/2 63/5/2
f 58/3/2 59/3/2 64/3/2
f 63/5/2 58/5/2 64/5/2
f 59/5/2 60/5/2 65/5/2
f 64/3/2 59/3/2 65/3/2
f 65/5/2 60/5/2 66/5/2
f 62/5/2 63/5/2 67/5/2
f 61/5/2 62/5/2 67/5/2
f 67/5/2 63/5/2 68/5/2
f 68/5/2 63/5/2 69/5/2
f 64/5/2 65/5/2 70/5/2
f 65/4/2 66/4/2 71/4/2
f 70/5/2 65/5/2 71/5/2
f 71/4/2 66/4/2 72/4/2
f 69/5/2 70/5/2 73/5/2
f 68/5/2 69/5/2 73/5/2
f 70/5/2 71/5/2 73/5/2
f 73/5/2 71/5/2 74/5/2
f 71/3/2 72/3/2 75/3/2
f 74/5/2 71/5/2 75/5/2
f 75/3/2 72/3/2 76/3/2
f 67/2/2 68/2/2 77/2/2
f 68/5/2 73/5/2 78/5/2
f 77/2/2 68/2/2 78/2/2
f 73/3/2 74/3/2 79/3/2
f 78/5/2 73/5/2 79/5/2
f 74/5/2 75/5/2 80/5/2
f 79/3/2 74/3/2 80/3/2
f 75/5/2 76/5/2 80/5/2
f 80/5/2 76/5/2 81/5/2
f 81/5/2 76/5/2 82/5/2
f 78/2/2 79/2/2 83/2/2
f 80/2/2 81/2/2 83/2/2
f 79/2/2 80/2/2 83/2/2
f 83/2/2 81/2/2 84/2/2
f 85/5/2 86/5/2 87/5/2
f 87/5/2 86/5/2 88/5/2
f 92/2/3 90/2/3 89/2/3
f 93/2/3 90/2/3 92/2/3
f 94/2/3 90/2/3 93/2/3
f 95/2/3 90/2/3 94/2/3
f 97/2/3 92/2/3 91/2/3
f 97/2/3 93/2/3 92/2/3
f 98/2/3 93/2/3 97/2/3
f 99/5/3 94/5/3 93/5/3
f 99/2/3 93/2/3 98/2/3
f 100/2/3 96/2/3 95/2/3
f 100/5/3 94/5/3 99/5/3
f 100/2/3 95/2/3 94/2/3
f 101/5/3 99/5/3 98/5/3
f 101/3/3 98/3/3 97/3/3
f 102/2/3 100/2/3 99/2/3
f 102/5/3 99/5/3 101/5/3
f 103/2/3 96/2/3 100/2/3
f 103/2/3 100/2/3 102/2/3
f 104/2/3 96/2/3 103/2/3
f 105/3/3 101/3/3 97/3/3
f 106/2/3 102/2/3 101/2/3
f 106/3/3 101/3/3 105/3/3
f 107/3/3 103/3/3 102/3/3
f 107/2/3 102/2/3 106/2/3
f 108/5/3 104/5/3 103/5/3
f 108/3/3 103/3/3 107/3/3
f 109/2/3 96/2/3 104/2/3
f 109/5/3 104/5/3 108/5/3
f 110/2/3 96/2/3 109/2/3
f 111/5/3 107/5/3 106/5/3
f 112/2/3 108/2/3 107/2/3
f 112/5/3 107/5/3 111/5/3
f 112/2/3 109/2/3 108/2/3
f 113/2/3 109/2/3 112/2/3
f 118/2/3 115/2/3 114/2/3
f 119/2/3 115/2/3 118/2/3
f 120/2/3 117/2/3 116/2/3
f 121/2/3 117/2/3 120/2/3
f 126/5/3 123/5/3 122/5/3
f 127/5/3 123/5/3 126/5/3
f 128/2/3 125/2/3 124/2/3
f 129/2/3 125/2/3 128/2/3
f 133/5/3 131/5/3 130/5/3
f 134/3/3 132/3/3 131/3/3
f 134/5/3 131/5/3 133/5/3
f 135/3/3 132/3/3 134/3/3
f 138/5/3 137/5/3 136/5/3
f 139/5/3 137/5/3 138/5/3
f 140/5/4 141/5/4 143/5/4
f 141/3/4 142/3/4 144/3/4
f 143/5/4 141/5/4 144/5/4
f 144/3/4 142/3/4 145/3/4
f 146/5/4 147/5/4 148/5/4
f 148/5/4 147/5/4 149/5/4
f 150/2/4 151/2/4 152/2/4
f 152/2/4 151/2/4 153/2/4
f 154/2/4 155/2/4 156/2/4
f 156/2/4 155/2/4 157/2/4
f 158/3/4 159/3/4 163/3/4
f 159/4/4 160/4/4 164/4/4
f 163/3/4 159/3/4 164/3/4
f 160/5/4 161/5/4 165/5/4
f 164/4/4 160/4/4 165/4/4
f 161/3/4 162/3/4 166/3/4
f 165/5/4 161/5/4 166/5/4
f 166/3/4 162/3/4 167/3/4
f 164/4/4 165/4/4 169/4/4
f 163/1/4 164/1/4 169/1/4
f 165/3/4 166/3/4 170/3/4
f 169/4/4 165/4/4 170/4/4
f 166/5/4 167/5/4 171/5/4
f 170/3/4 166/3/4 171/3/4
f 169/5/4 170/5/4 172/5/4
f 163/1/4 169/1/4 172/1/4
f 170/5/4 171/5/4 172/5/4
f 172/5/4 171/5/4 173/5/4
f 171/5/4 167/5/4 174/5/4
f 173/5/4 171/5/4 174/5/4
f 167/2/4 168/2/4 175/2/4
f 174/5/4 167/5/4 175/5/4
f 175/2/4 168/2/4 176/2/4
f 163/1/4 172/1/4 177/1/4
f 172/4/4 173/4/4 178/4/4
f 177/1/4 172/1/4 178/1/4
f 174/5/4 175/5/4 179/5/4
f 175/5/4 176/5/4 179/5/4
f 179/5/4 176/5/4 180/5/4
f 177/5/4 178/5/4 181/5/4
f 178/4/4 173/4/4 182/4/4
f 181/5/4 178/5/4 182/5/4
f 173/3/4 174/3/4 183/3/4
f 182/4/4 173/4/4 183/4/4
f 174/5/4 179/5/4 184/5/4
f 183/3/4 174/3/4 184/3/4
f 184/5/4 179/5/4 185/5/4
f 190/2/5 187/2/5 186/2/5
f 191/3/5 188/3/5 187/3/5
f 191/2/5 187/2/5 190/2/5
f 192/3/5 188/3/5 191/3/5
f 194/2/5 190/2/5 189/2/5
f 195/5/5 193/5/5 192/5/5
f 195/2/5 190/2/5 194/2/5
f 195/5/5 191/5/5 190/5/5
f 195/5/5 192/5/5 191/5/5
f 196/5/5 195/5/5 194/5/5
f 196/5/5 193/5/5 195/5/5
f 197/5/5 193/5/5 196/5/5
f 198/5/5 196/5/5 194/5/5
f 199/5/5 196/5/5 198/5/5
f 200/3/5 197/3/5 196/3/5
f 200/5/5 196/5/5 199/5/5
f 201/3/5 197/3/5 200/3/5
f 202/3/5 199/3/5 198/3/5
f 203/1/5 200/1/5 199/1/5
f 203/3/5 199/3/5 202/3/5
f 204/5/5 201/5/5 200/5/5
f 204/1/5 200/1/5 203/1/5
f 205/5/5 201/5/5 204/5/5
f 210/2/5 207/2/5 206/2/5
f 211/2/5 207/2/5 210/2/5
f 212/5/5 209/5/5 208/5/5
f 213/5/5 209/5/5 212/5/5
f 218/5/5 215/5/5 214/5/5
f 219/5/5 215/5/5 218/5/5
f 220/5/5 217/5/5 216/5/5
f 221/5/5 217/5/5 220/5/5
f 222/5/6 223/5/6 224/5/6
f 224/5/6 223/5/6 225/5/6
f 226/3/6 227/3/6 228/3/6
f 228/3/6 227/3/6 229/3/6
f 230/2/6 231/2/6 234/2/6
f 234/2/6 231/2/6 235/2/6
f 232/2/6 233/2/6 236/2/6
f 236/2/6 233/2/6 237/2/6
f 238/3/6 239/3/6 242/3/6
f 242/3/6 239/3/6 243/3/6
f 240/5/6 241/5/6 244/5/6
f 244/5/6 241/5/6 245/5/6
f 246/2/6 247/2/6 249/2/6
f 249/2/6 247/2/6 250/2/6
f 248/2/6 249/2/6 252/2/6
f 250/2/6 251/2/6 252/2/6
f 249/2/6 250/2/6 252/2/6
f 252/2/6 251/2/6 253/2/6
f 253/2/6 251/2/6 254/2/6
f 254/2/6 251/2/6 255/2/6
f 255/2/6 251/2/6 256/2/6
f 253/2/6 254/2/6 257/2/6
f 254/5/6 255/5/6 258/5/6
f 257/2/6 254/2/6 258/2/6
f 258/5/6 255/5/6 259/5/6
