# MagicaVoxel @ Ephtracy

# material
mtllib Body.mtl
usemtl palette

# normals
vn -1 0 0
vn 1 0 0
vn 0 0 1
vn 0 0 -1
vn 0 -1 0
vn 0 1 0

# texcoords
vt 0.400391 0.5
vt 0.837891 0.5
vt 0.845703 0.5
vt 0.958984 0.5

# verts
v -2 4 1
v -2 4 -2
v -2 5 1
v -2 5 -2
v -2 6 1
v -2 6 -0
v -2 6 -1
v -2 6 -2
v -2 7 -0
v -2 7 -1
v -2 8 -0
v -2 8 -1
v -1 4 2
v -1 4 1
v -1 5 2
v -1 5 1
v 1 4 2
v 1 4 1
v 1 5 2
v 1 5 1
v 2 4 1
v 2 4 -2
v 2 5 1
v 2 5 -2
v 2 6 1
v 2 6 -0
v 2 6 -1
v 2 6 -2
v 2 7 -0
v 2 7 -1
v 2 8 -0
v 2 8 -1
v -1 4 2
v -1 5 2
v 1 4 2
v 1 5 2
v -2 4 1
v -2 5 1
v -2 6 1
v -1 4 1
v -1 5 1
v 1 4 1
v 1 5 1
v 2 4 1
v 2 5 1
v 2 6 1
v -2 6 -0
v -2 7 -0
v -2 8 -0
v 2 6 -0
v 2 7 -0
v 2 8 -0
v -2 6 -1
v -2 7 -1
v -2 8 -1
v 2 6 -1
v 2 7 -1
v 2 8 -1
v -2 4 -2
v -2 5 -2
v -2 6 -2
v 2 4 -2
v 2 5 -2
v 2 6 -2
v -1 4 2
v 1 4 2
v -2 4 1
v -1 4 1
v 1 4 1
v 2 4 1
v -2 4 -2
v 2 4 -2
v -1 5 2
v 1 5 2
v -1 5 1
v 1 5 1
v -2 6 1
v 2 6 1
v -2 6 -0
v 2 6 -0
v -2 6 -1
v 2 6 -1
v -2 6 -2
v 2 6 -2
v -2 8 -0
v 2 8 -0
v -2 8 -1
v 2 8 -1

# faces
f 3/3/1 2/3/1 1/3/1
f 4/3/1 2/3/1 3/3/1
f 5/1/1 4/1/1 3/1/1
f 6/1/1 4/1/1 5/1/1
f 7/1/1 4/1/1 6/1/1
f 8/1/1 4/1/1 7/1/1
f 9/3/1 7/3/1 6/3/1
f 10/3/1 7/3/1 9/3/1
f 11/1/1 10/1/1 9/1/1
f 12/1/1 10/1/1 11/1/1
f 15/4/1 14/4/1 13/4/1
f 16/4/1 14/4/1 15/4/1
f 17/4/2 18/4/2 19/4/2
f 19/4/2 18/4/2 20/4/2
f 21/3/2 22/3/2 23/3/2
f 23/3/2 22/3/2 24/3/2
f 23/1/2 24/1/2 25/1/2
f 25/1/2 24/1/2 26/1/2
f 26/1/2 24/1/2 27/1/2
f 27/1/2 24/1/2 28/1/2
f 26/3/2 27/3/2 29/3/2
f 29/3/2 27/3/2 30/3/2
f 29/1/2 30/1/2 31/1/2
f 31/1/2 30/1/2 32/1/2
f 35/4/3 34/4/3 33/4/3
f 36/4/3 34/4/3 35/4/3
f 40/3/3 38/3/3 37/3/3
f 41/1/3 39/1/3 38/1/3
f 41/3/3 38/3/3 40/3/3
f 43/1/3 39/1/3 41/1/3
f 44/3/3 43/3/3 42/3/3
f 45/1/3 39/1/3 43/1/3
f 45/3/3 43/3/3 44/3/3
f 46/1/3 39/1/3 45/1/3
f 50/3/3 48/3/3 47/3/3
f 51/1/3 49/1/3 48/1/3
f 51/3/3 48/3/3 50/3/3
f 52/1/3 49/1/3 51/1/3
f 53/3/4 54/3/4 56/3/4
f 54/1/4 55/1/4 57/1/4
f 56/3/4 54/3/4 57/3/4
f 57/1/4 55/1/4 58/1/4
f 59/3/4 60/3/4 62/3/4
f 60/1/4 61/1/4 63/1/4
f 62/3/4 60/3/4 63/3/4
f 63/1/4 61/1/4 64/1/4
f 68/4/5 66/4/5 65/4/5
f 69/4/5 66/4/5 68/4/5
f 71/3/5 68/3/5 67/3/5
f 71/3/5 70/3/5 69/3/5
f 71/3/5 69/3/5 68/3/5
f 72/3/5 70/3/5 71/3/5
f 73/4/6 74/4/6 75/4/6
f 75/4/6 74/4/6 76/4/6
f 77/1/6 78/1/6 79/1/6
f 79/1/6 78/1/6 80/1/6
f 81/1/6 82/1/6 83/1/6
f 83/1/6 82/1/6 84/1/6
f 85/1/6 86/1/6 87/1/6
f 87/1/6 86/1/6 88/1/6
