# MagicaVoxel @ Ephtracy

# material
mtllib 6.mtl
usemtl palette

# normals
vn -1 0 0
vn 1 0 0
vn 0 0 1
vn 0 0 -1
vn 0 -1 0
vn 0 1 0

# texcoords
vt 0.572266 0.5
vt 0.615234 0.5
vt 0.623047 0.5
vt 0.873047 0.5
vt 0.892578 0.5
vt 0.904297 0.5
vt 0.962891 0.5
vt 0.978516 0.5
vt 0.982422 0.5

# verts
v -5.5 11 0.5
v -5.5 11 -0.5
v -5.5 12 0.5
v -5.5 12 -0.5
v -5.5 14 0.5
v -5.5 14 -0.5
v -5.5 15 0.5
v -5.5 15 -0.5
v -5.5 17 0.5
v -5.5 17 -0.5
v -5.5 18 0.5
v -5.5 18 -0.5
v -4.5 9 0.5
v -4.5 9 -0.5
v -4.5 10 0.5
v -4.5 10 -0.5
v -4.5 12 0.5
v -4.5 12 -0.5
v -4.5 14 0.5
v -4.5 14 -0.5
v -4.5 15 0.5
v -4.5 15 -0.5
v -4.5 17 0.5
v -4.5 17 -0.5
v -3.5 3 0.5
v -3.5 3 -0.5
v -3.5 4 0.5
v -3.5 4 -0.5
v -3.5 6 1.5
v -3.5 6 0.5
v -3.5 6 -0.5
v -3.5 6 -1.5
v -3.5 7 0.5
v -3.5 7 -0.5
v -3.5 8 1.5
v -3.5 8 0.5
v -3.5 8 -0.5
v -3.5 8 -1.5
v -3.5 9 0.5
v -3.5 9 -0.5
v -3.5 10 0.5
v -3.5 10 -0.5
v -3.5 11 0.5
v -3.5 11 -0.5
v -3.5 18 0.5
v -3.5 18 -0.5
v -3.5 19 0.5
v -3.5 19 -0.5
v -2.5 5 1.5
v -2.5 5 0.5
v -2.5 5 -0.5
v -2.5 5 -1.5
v -2.5 6 1.5
v -2.5 6 0.5
v -2.5 6 -0.5
v -2.5 6 -1.5
v -2.5 8 1.5
v -2.5 8 0.5
v -2.5 8 -0.5
v -2.5 8 -1.5
v -2.5 9 1.5
v -2.5 9 0.5
v -2.5 9 -0.5
v -2.5 9 -1.5
v -1.5 1 0.5
v -1.5 1 -0.5
v -1.5 2 0.5
v -1.5 2 -0.5
v -1.5 3 0.5
v -1.5 3 -0.5
v -1.5 5 0.5
v -1.5 5 -0.5
v -1.5 6 0.5
v -1.5 6 -0.5
v -1.5 7 0.5
v -1.5 7 -0.5
v -1.5 19 0.5
v -1.5 19 -0.5
v -1.5 20 0.5
v -1.5 20 -0.5
v -0.5 5 1.5
v -0.5 5 0.5
v -0.5 5 -0.5
v -0.5 5 -1.5
v -0.5 6 1.5
v -0.5 6 0.5
v -0.5 6 -0.5
v -0.5 6 -1.5
v 0.5 15 0.5
v 0.5 15 -0.5
v 0.5 17 0.5
v 0.5 17 -0.5
v -2.5 3 0.5
v -2.5 3 -0.5
v -2.5 4 0.5
v -2.5 4 -0.5
v -2.5 5 0.5
v -2.5 5 -0.5
v -2.5 7 0.5
v -2.5 7 -0.5
v -2.5 15 0.5
v -2.5 15 -0.5
v -2.5 17 0.5
v -2.5 17 -0.5
v -1.5 5 1.5
v -1.5 5 0.5
v -1.5 5 -0.5
v -1.5 5 -1.5
v -1.5 6 1.5
v -1.5 6 0.5
v -1.5 6 -0.5
v -1.5 6 -1.5
v -0.5 1 0.5
v -0.5 1 -0.5
v -0.5 2 0.5
v -0.5 2 -0.5
v -0.5 3 0.5
v -0.5 3 -0.5
v -0.5 5 0.5
v -0.5 5 -0.5
v -0.5 6 0.5
v -0.5 6 -0.5
v -0.5 19 0.5
v -0.5 19 -0.5
v -0.5 20 0.5
v -0.5 20 -0.5
v 0.5 2 0.5
v 0.5 2 -0.5
v 0.5 3 0.5
v 0.5 3 -0.5
v 0.5 5 1.5
v 0.5 5 0.5
v 0.5 5 -0.5
v 0.5 5 -1.5
v 0.5 6 1.5
v 0.5 6 0.5
v 0.5 6 -0.5
v 0.5 6 -1.5
v 0.5 7 0.5
v 0.5 7 -0.5
v 0.5 8 1.5
v 0.5 8 0.5
v 0.5 8 -0.5
v 0.5 8 -1.5
v 0.5 9 1.5
v 0.5 9 0.5
v 0.5 9 -0.5
v 0.5 9 -1.5
v 1.5 6 1.5
v 1.5 6 0.5
v 1.5 6 -0.5
v 1.5 6 -1.5
v 1.5 8 1.5
v 1.5 8 0.5
v 1.5 8 -0.5
v 1.5 8 -1.5
v 1.5 10 0.5
v 1.5 10 -0.5
v 1.5 11 0.5
v 1.5 11 -0.5
v 1.5 18 0.5
v 1.5 18 -0.5
v 1.5 19 0.5
v 1.5 19 -0.5
v 2.5 9 0.5
v 2.5 9 -0.5
v 2.5 10 0.5
v 2.5 10 -0.5
v 2.5 12 0.5
v 2.5 12 -0.5
v 2.5 14 0.5
v 2.5 14 -0.5
v 2.5 15 0.5
v 2.5 15 -0.5
v 2.5 17 0.5
v 2.5 17 -0.5
v 3.5 11 0.5
v 3.5 11 -0.5
v 3.5 12 0.5
v 3.5 12 -0.5
v 3.5 14 0.5
v 3.5 14 -0.5
v 3.5 15 0.5
v 3.5 15 -0.5
v 3.5 17 0.5
v 3.5 17 -0.5
v 3.5 18 0.5
v 3.5 18 -0.5
v -3.5 6 1.5
v -3.5 8 1.5
v -2.5 5 1.5
v -2.5 6 1.5
v -2.5 7 1.5
v -2.5 8 1.5
v -2.5 9 1.5
v -1.5 5 1.5
v -1.5 6 1.5
v -1.5 7 1.5
v -1.5 8 1.5
v -0.5 5 1.5
v -0.5 6 1.5
v -0.5 7 1.5
v -0.5 8 1.5
v 0.5 5 1.5
v 0.5 6 1.5
v 0.5 7 1.5
v 0.5 8 1.5
v 0.5 9 1.5
v 1.5 6 1.5
v 1.5 8 1.5
v -5.5 11 0.5
v -5.5 12 0.5
v -5.5 14 0.5
v -5.5 15 0.5
v -5.5 17 0.5
v -5.5 18 0.5
v -4.5 9 0.5
v -4.5 10 0.5
v -4.5 12 0.5
v -4.5 14 0.5
v -4.5 15 0.5
v -4.5 17 0.5
v -3.5 3 0.5
v -3.5 4 0.5
v -3.5 6 0.5
v -3.5 8 0.5
v -3.5 9 0.5
v -3.5 10 0.5
v -3.5 11 0.5
v -3.5 12 0.5
v -3.5 14 0.5
v -3.5 15 0.5
v -3.5 17 0.5
v -3.5 18 0.5
v -3.5 19 0.5
v -2.5 3 0.5
v -2.5 4 0.5
v -2.5 5 0.5
v -2.5 6 0.5
v -2.5 8 0.5
v -2.5 9 0.5
v -2.5 10 0.5
v -2.5 11 0.5
v -2.5 15 0.5
v -2.5 17 0.5
v -2.5 18 0.5
v -1.5 1 0.5
v -1.5 2 0.5
v -1.5 3 0.5
v -1.5 5 0.5
v -1.5 6 0.5
v -1.5 9 0.5
v -1.5 11 0.5
v -1.5 15 0.5
v -1.5 18 0.5
v -1.5 19 0.5
v -1.5 20 0.5
v -0.5 1 0.5
v -0.5 2 0.5
v -0.5 3 0.5
v -0.5 5 0.5
v -0.5 6 0.5
v -0.5 9 0.5
v -0.5 11 0.5
v -0.5 15 0.5
v -0.5 18 0.5
v -0.5 19 0.5
v -0.5 20 0.5
v 0.5 2 0.5
v 0.5 3 0.5
v 0.5 9 0.5
v 0.5 10 0.5
v 0.5 11 0.5
v 0.5 15 0.5
v 0.5 17 0.5
v 0.5 18 0.5
v 1.5 10 0.5
v 1.5 11 0.5
v 1.5 12 0.5
v 1.5 14 0.5
v 1.5 15 0.5
v 1.5 17 0.5
v 1.5 18 0.5
v 1.5 19 0.5
v 2.5 9 0.5
v 2.5 10 0.5
v 2.5 12 0.5
v 2.5 14 0.5
v 2.5 15 0.5
v 2.5 17 0.5
v 3.5 11 0.5
v 3.5 12 0.5
v 3.5 14 0.5
v 3.5 15 0.5
v 3.5 17 0.5
v 3.5 18 0.5
v -2.5 5 -0.5
v -2.5 7 -0.5
v -1.5 5 -0.5
v -1.5 6 -0.5
v -1.5 7 -0.5
v -0.5 5 -0.5
v -0.5 6 -0.5
v 0.5 5 -0.5
v 0.5 6 -0.5
v 0.5 7 -0.5
v 0.5 8 -0.5
v 1.5 6 -0.5
v 1.5 8 -0.5
v -2.5 5 0.5
v -2.5 7 0.5
v -1.5 5 0.5
v -1.5 6 0.5
v -1.5 7 0.5
v -0.5 5 0.5
v -0.5 6 0.5
v 0.5 5 0.5
v 0.5 6 0.5
v 0.5 7 0.5
v 0.5 8 0.5
v 1.5 6 0.5
v 1.5 8 0.5
v -5.5 11 -0.5
v -5.5 12 -0.5
v -5.5 14 -0.5
v -5.5 15 -0.5
v -5.5 17 -0.5
v -5.5 18 -0.5
v -4.5 9 -0.5
v -4.5 10 -0.5
v -4.5 12 -0.5
v -4.5 14 -0.5
v -4.5 15 -0.5
v -4.5 17 -0.5
v -3.5 3 -0.5
v -3.5 4 -0.5
v -3.5 6 -0.5
v -3.5 8 -0.5
v -3.5 9 -0.5
v -3.5 10 -0.5
v -3.5 11 -0.5
v -3.5 12 -0.5
v -3.5 14 -0.5
v -3.5 15 -0.5
v -3.5 17 -0.5
v -3.5 18 -0.5
v -3.5 19 -0.5
v -2.5 3 -0.5
v -2.5 4 -0.5
v -2.5 5 -0.5
v -2.5 6 -0.5
v -2.5 8 -0.5
v -2.5 9 -0.5
v -2.5 10 -0.5
v -2.5 11 -0.5
v -2.5 15 -0.5
v -2.5 17 -0.5
v -2.5 18 -0.5
v -1.5 1 -0.5
v -1.5 2 -0.5
v -1.5 3 -0.5
v -1.5 5 -0.5
v -1.5 6 -0.5
v -1.5 9 -0.5
v -1.5 11 -0.5
v -1.5 15 -0.5
v -1.5 18 -0.5
v -1.5 19 -0.5
v -1.5 20 -0.5
v -0.5 1 -0.5
v -0.5 2 -0.5
v -0.5 3 -0.5
v -0.5 5 -0.5
v -0.5 6 -0.5
v -0.5 9 -0.5
v -0.5 11 -0.5
v -0.5 15 -0.5
v -0.5 18 -0.5
v -0.5 19 -0.5
v -0.5 20 -0.5
v 0.5 2 -0.5
v 0.5 3 -0.5
v 0.5 9 -0.5
v 0.5 10 -0.5
v 0.5 11 -0.5
v 0.5 15 -0.5
v 0.5 17 -0.5
v 0.5 18 -0.5
v 1.5 10 -0.5
v 1.5 11 -0.5
v 1.5 12 -0.5
v 1.5 14 -0.5
v 1.5 15 -0.5
v 1.5 17 -0.5
v 1.5 18 -0.5
v 1.5 19 -0.5
v 2.5 9 -0.5
v 2.5 10 -0.5
v 2.5 12 -0.5
v 2.5 14 -0.5
v 2.5 15 -0.5
v 2.5 17 -0.5
v 3.5 11 -0.5
v 3.5 12 -0.5
v 3.5 14 -0.5
v 3.5 15 -0.5
v 3.5 17 -0.5
v 3.5 18 -0.5
v -3.5 6 -1.5
v -3.5 8 -1.5
v -2.5 5 -1.5
v -2.5 6 -1.5
v -2.5 7 -1.5
v -2.5 8 -1.5
v -2.5 9 -1.5
v -1.5 5 -1.5
v -1.5 6 -1.5
v -1.5 7 -1.5
v -1.5 8 -1.5
v -0.5 5 -1.5
v -0.5 6 -1.5
v -0.5 7 -1.5
v -0.5 8 -1.5
v 0.5 5 -1.5
v 0.5 6 -1.5
v 0.5 7 -1.5
v 0.5 8 -1.5
v 0.5 9 -1.5
v 1.5 6 -1.5
v 1.5 8 -1.5
v -1.5 1 0.5
v -0.5 1 0.5
v -1.5 1 -0.5
v -0.5 1 -0.5
v -0.5 2 0.5
v 0.5 2 0.5
v -0.5 2 -0.5
v 0.5 2 -0.5
v -3.5 3 0.5
v -2.5 3 0.5
v -3.5 3 -0.5
v -2.5 3 -0.5
v -2.5 5 1.5
v -1.5 5 1.5
v -0.5 5 1.5
v 0.5 5 1.5
v -2.5 5 0.5
v -1.5 5 0.5
v -0.5 5 0.5
v 0.5 5 0.5
v -2.5 5 -0.5
v -1.5 5 -0.5
v -0.5 5 -0.5
v 0.5 5 -0.5
v -2.5 5 -1.5
v -1.5 5 -1.5
v -0.5 5 -1.5
v 0.5 5 -1.5
v -3.5 6 1.5
v -2.5 6 1.5
v -1.5 6 1.5
v -0.5 6 1.5
v 0.5 6 1.5
v 1.5 6 1.5
v -3.5 6 0.5
v -2.5 6 0.5
v -1.5 6 0.5
v -0.5 6 0.5
v 0.5 6 0.5
v 1.5 6 0.5
v -3.5 6 -0.5
v -2.5 6 -0.5
v -1.5 6 -0.5
v -0.5 6 -0.5
v 0.5 6 -0.5
v 1.5 6 -0.5
v -3.5 6 -1.5
v -2.5 6 -1.5
v -1.5 6 -1.5
v -0.5 6 -1.5
v 0.5 6 -1.5
v 1.5 6 -1.5
v -2.5 7 0.5
v -1.5 7 0.5
v -2.5 7 -0.5
v -1.5 7 -0.5
v -4.5 9 0.5
v -3.5 9 0.5
v 0.5 9 0.5
v 2.5 9 0.5
v -4.5 9 -0.5
v -3.5 9 -0.5
v 0.5 9 -0.5
v 2.5 9 -0.5
v -5.5 11 0.5
v -3.5 11 0.5
v 1.5 11 0.5
v 3.5 11 0.5
v -5.5 11 -0.5
v -3.5 11 -0.5
v 1.5 11 -0.5
v 3.5 11 -0.5
v -5.5 14 0.5
v -4.5 14 0.5
v 2.5 14 0.5
v 3.5 14 0.5
v -5.5 14 -0.5
v -4.5 14 -0.5
v 2.5 14 -0.5
v 3.5 14 -0.5
v -5.5 17 0.5
v -4.5 17 0.5
v -2.5 17 0.5
v 0.5 17 0.5
v 2.5 17 0.5
v 3.5 17 0.5
v -5.5 17 -0.5
v -4.5 17 -0.5
v -2.5 17 -0.5
v 0.5 17 -0.5
v 2.5 17 -0.5
v 3.5 17 -0.5
v -0.5 3 0.5
v 0.5 3 0.5
v -0.5 3 -0.5
v 0.5 3 -0.5
v -3.5 8 1.5
v -2.5 8 1.5
v 0.5 8 1.5
v 1.5 8 1.5
v -3.5 8 0.5
v -2.5 8 0.5
v 0.5 8 0.5
v 1.5 8 0.5
v -3.5 8 -0.5
v -2.5 8 -0.5
v 0.5 8 -0.5
v 1.5 8 -0.5
v -3.5 8 -1.5
v -2.5 8 -1.5
v 0.5 8 -1.5
v 1.5 8 -1.5
v -2.5 9 1.5
v 0.5 9 1.5
v -2.5 9 0.5
v -1.5 9 0.5
v -0.5 9 0.5
v 0.5 9 0.5
v -2.5 9 -0.5
v -1.5 9 -0.5
v -0.5 9 -0.5
v 0.5 9 -0.5
v -2.5 9 -1.5
v 0.5 9 -1.5
v -4.5 10 0.5
v -3.5 10 0.5
v 1.5 10 0.5
v 2.5 10 0.5
v -4.5 10 -0.5
v -3.5 10 -0.5
v 1.5 10 -0.5
v 2.5 10 -0.5
v -5.5 12 0.5
v -4.5 12 0.5
v 2.5 12 0.5
v 3.5 12 0.5
v -5.5 12 -0.5
v -4.5 12 -0.5
v 2.5 12 -0.5
v 3.5 12 -0.5
v -5.5 15 0.5
v -4.5 15 0.5
v -2.5 15 0.5
v -1.5 15 0.5
v -0.5 15 0.5
v 0.5 15 0.5
v 2.5 15 0.5
v 3.5 15 0.5
v -5.5 15 -0.5
v -4.5 15 -0.5
v -2.5 15 -0.5
v -1.5 15 -0.5
v -0.5 15 -0.5
v 0.5 15 -0.5
v 2.5 15 -0.5
v 3.5 15 -0.5
v -5.5 18 0.5
v -3.5 18 0.5
v 1.5 18 0.5
v 3.5 18 0.5
v -5.5 18 -0.5
v -3.5 18 -0.5
v 1.5 18 -0.5
v 3.5 18 -0.5
v -3.5 19 0.5
v -1.5 19 0.5
v -0.5 19 0.5
v 1.5 19 0.5
v -3.5 19 -0.5
v -1.5 19 -0.5
v -0.5 19 -0.5
v 1.5 19 -0.5
v -1.5 20 0.5
v -0.5 20 0.5
v -1.5 20 -0.5
v -0.5 20 -0.5

# faces
f 3/6/1 2/6/1 1/6/1
f 4/6/1 2/6/1 3/6/1
f 7/6/1 6/6/1 5/6/1
f 8/6/1 6/6/1 7/6/1
f 11/6/1 10/6/1 9/6/1
f 12/6/1 10/6/1 11/6/1
f 15/6/1 14/6/1 13/6/1
f 16/6/1 14/6/1 15/6/1
f 19/7/1 18/7/1 17/7/1
f 20/7/1 18/7/1 19/7/1
f 23/7/1 22/7/1 21/7/1
f 24/7/1 22/7/1 23/7/1
f 27/6/1 26/6/1 25/6/1
f 28/6/1 26/6/1 27/6/1
f 30/4/1 28/4/1 27/4/1
f 31/4/1 28/4/1 30/4/1
f 33/4/1 31/4/1 30/4/1
f 33/7/1 30/7/1 29/7/1
f 34/7/1 32/7/1 31/7/1
f 34/4/1 31/4/1 33/4/1
f 35/7/1 33/7/1 29/7/1
f 36/1/1 34/1/1 33/1/1
f 36/7/1 33/7/1 35/7/1
f 37/7/1 32/7/1 34/7/1
f 37/1/1 34/1/1 36/1/1
f 38/7/1 32/7/1 37/7/1
f 39/9/1 37/9/1 36/9/1
f 40/9/1 37/9/1 39/9/1
f 43/7/1 42/7/1 41/7/1
f 44/7/1 42/7/1 43/7/1
f 47/7/1 46/7/1 45/7/1
f 48/7/1 46/7/1 47/7/1
f 53/7/1 50/7/1 49/7/1
f 54/7/1 50/7/1 53/7/1
f 55/7/1 52/7/1 51/7/1
f 56/7/1 52/7/1 55/7/1
f 61/7/1 58/7/1 57/7/1
f 62/7/1 58/7/1 61/7/1
f 63/7/1 60/7/1 59/7/1
f 64/7/1 60/7/1 63/7/1
f 67/6/1 66/6/1 65/6/1
f 68/6/1 66/6/1 67/6/1
f 69/4/1 68/4/1 67/4/1
f 70/4/1 68/4/1 69/4/1
f 71/9/1 70/9/1 69/9/1
f 72/9/1 70/9/1 71/9/1
f 73/9/1 72/9/1 71/9/1
f 74/9/1 72/9/1 73/9/1
f 75/8/1 74/8/1 73/8/1
f 76/8/1 74/8/1 75/8/1
f 79/6/1 78/6/1 77/6/1
f 80/6/1 78/6/1 79/6/1
f 85/7/1 82/7/1 81/7/1
f 86/7/1 82/7/1 85/7/1
f 87/7/1 84/7/1 83/7/1
f 88/7/1 84/7/1 87/7/1
f 91/5/1 90/5/1 89/5/1
f 92/5/1 90/5/1 91/5/1
f 93/6/2 94/6/2 95/6/2
f 95/6/2 94/6/2 96/6/2
f 95/4/2 96/4/2 97/4/2
f 97/4/2 96/4/2 98/4/2
f 97/4/2 98/4/2 99/4/2
f 99/4/2 98/4/2 100/4/2
f 101/5/2 102/5/2 103/5/2
f 103/5/2 102/5/2 104/5/2
f 105/7/2 106/7/2 109/7/2
f 109/7/2 106/7/2 110/7/2
f 107/7/2 108/7/2 111/7/2
f 111/7/2 108/7/2 112/7/2
f 113/6/2 114/6/2 115/6/2
f 115/6/2 114/6/2 116/6/2
f 117/9/2 118/9/2 119/9/2
f 119/9/2 118/9/2 120/9/2
f 119/9/2 120/9/2 121/9/2
f 121/9/2 120/9/2 122/9/2
f 123/6/2 124/6/2 125/6/2
f 125/6/2 124/6/2 126/6/2
f 127/6/2 128/6/2 129/6/2
f 129/6/2 128/6/2 130/6/2
f 131/7/2 132/7/2 135/7/2
f 135/7/2 132/7/2 136/7/2
f 133/7/2 134/7/2 137/7/2
f 137/7/2 134/7/2 138/7/2
f 136/9/2 137/9/2 139/9/2
f 139/9/2 137/9/2 140/9/2
f 139/8/2 140/8/2 142/8/2
f 142/8/2 140/8/2 143/8/2
f 141/7/2 142/7/2 145/7/2
f 142/8/2 143/8/2 146/8/2
f 145/7/2 142/7/2 146/7/2
f 143/7/2 144/7/2 147/7/2
f 146/8/2 143/8/2 147/8/2
f 147/7/2 144/7/2 148/7/2
f 149/7/2 150/7/2 153/7/2
f 153/7/2 150/7/2 154/7/2
f 151/7/2 152/7/2 155/7/2
f 155/7/2 152/7/2 156/7/2
f 157/7/2 158/7/2 159/7/2
f 159/7/2 158/7/2 160/7/2
f 161/7/2 162/7/2 163/7/2
f 163/7/2 162/7/2 164/7/2
f 165/6/2 166/6/2 167/6/2
f 167/6/2 166/6/2 168/6/2
f 169/7/2 170/7/2 171/7/2
f 171/7/2 170/7/2 172/7/2
f 173/7/2 174/7/2 175/7/2
f 175/7/2 174/7/2 176/7/2
f 177/6/2 178/6/2 179/6/2
f 179/6/2 178/6/2 180/6/2
f 181/6/2 182/6/2 183/6/2
f 183/6/2 182/6/2 184/6/2
f 185/6/2 186/6/2 187/6/2
f 187/6/2 186/6/2 188/6/2
f 192/7/3 190/7/3 189/7/3
f 193/7/3 190/7/3 192/7/3
f 194/7/3 190/7/3 193/7/3
f 196/7/3 192/7/3 191/7/3
f 196/7/3 193/7/3 192/7/3
f 197/7/3 193/7/3 196/7/3
f 198/6/3 194/6/3 193/6/3
f 198/7/3 193/7/3 197/7/3
f 199/7/3 195/7/3 194/7/3
f 199/6/3 194/6/3 198/6/3
f 201/7/3 198/7/3 197/7/3
f 201/7/3 199/7/3 198/7/3
f 202/7/3 199/7/3 201/7/3
f 203/7/3 195/7/3 199/7/3
f 203/7/3 199/7/3 202/7/3
f 204/7/3 202/7/3 201/7/3
f 204/7/3 201/7/3 200/7/3
f 205/7/3 202/7/3 204/7/3
f 206/6/3 203/6/3 202/6/3
f 206/7/3 202/7/3 205/7/3
f 207/7/3 195/7/3 203/7/3
f 207/6/3 203/6/3 206/6/3
f 208/7/3 195/7/3 207/7/3
f 209/7/3 206/7/3 205/7/3
f 209/7/3 207/7/3 206/7/3
f 210/7/3 207/7/3 209/7/3
f 219/6/3 212/6/3 211/6/3
f 220/6/3 214/6/3 213/6/3
f 221/6/3 214/6/3 220/6/3
f 222/6/3 216/6/3 215/6/3
f 227/6/3 218/6/3 217/6/3
f 228/6/3 218/6/3 227/6/3
f 229/6/3 219/6/3 211/6/3
f 230/7/3 220/7/3 219/7/3
f 230/6/3 219/6/3 229/6/3
f 231/6/3 221/6/3 220/6/3
f 231/7/3 220/7/3 230/7/3
f 232/7/3 222/7/3 221/7/3
f 232/6/3 221/6/3 231/6/3
f 233/6/3 216/6/3 222/6/3
f 233/7/3 222/7/3 232/7/3
f 234/6/3 216/6/3 233/6/3
f 236/6/3 224/6/3 223/6/3
f 237/4/3 225/4/3 224/4/3
f 237/6/3 224/6/3 236/6/3
f 238/4/3 225/4/3 237/4/3
f 239/4/3 225/4/3 238/4/3
f 240/9/3 227/9/3 226/9/3
f 241/6/3 228/6/3 227/6/3
f 241/9/3 227/9/3 240/9/3
f 242/7/3 229/7/3 228/7/3
f 242/6/3 228/6/3 241/6/3
f 243/5/3 230/5/3 229/5/3
f 243/7/3 229/7/3 242/7/3
f 243/5/3 232/5/3 231/5/3
f 243/5/3 231/5/3 230/5/3
f 243/5/3 233/5/3 232/5/3
f 244/5/3 233/5/3 243/5/3
f 245/6/3 234/6/3 233/6/3
f 245/5/3 233/5/3 244/5/3
f 246/7/3 235/7/3 234/7/3
f 246/6/3 234/6/3 245/6/3
f 252/5/3 242/5/3 241/5/3
f 252/5/3 243/5/3 242/5/3
f 253/9/3 244/9/3 243/9/3
f 253/5/3 243/5/3 252/5/3
f 254/9/3 244/9/3 253/9/3
f 255/7/3 235/7/3 246/7/3
f 255/5/3 246/5/3 245/5/3
f 256/7/3 235/7/3 255/7/3
f 258/6/3 248/6/3 247/6/3
f 259/4/3 249/4/3 248/4/3
f 259/6/3 248/6/3 258/6/3
f 260/9/3 251/9/3 250/9/3
f 260/4/3 249/4/3 259/4/3
f 260/9/3 250/9/3 249/9/3
f 261/9/3 251/9/3 260/9/3
f 262/9/3 251/9/3 261/9/3
f 263/9/3 253/9/3 252/9/3
f 264/4/3 254/4/3 253/4/3
f 264/9/3 253/9/3 263/9/3
f 265/4/3 254/4/3 264/4/3
f 266/6/3 256/6/3 255/6/3
f 266/6/3 257/6/3 256/6/3
f 266/5/3 255/5/3 245/5/3
f 267/6/3 257/6/3 266/6/3
f 268/6/3 257/6/3 267/6/3
f 269/6/3 260/6/3 259/6/3
f 270/6/3 260/6/3 269/6/3
f 271/5/3 264/5/3 263/5/3
f 272/5/3 264/5/3 271/5/3
f 273/9/3 265/9/3 264/9/3
f 273/5/3 264/5/3 272/5/3
f 274/9/3 265/9/3 273/9/3
f 275/5/3 266/5/3 245/5/3
f 276/7/3 267/7/3 266/7/3
f 276/5/3 266/5/3 275/5/3
f 277/6/3 272/6/3 271/6/3
f 277/7/3 273/7/3 272/7/3
f 278/5/3 275/5/3 274/5/3
f 278/7/3 273/7/3 277/7/3
f 278/5/3 274/5/3 273/5/3
f 279/5/3 275/5/3 278/5/3
f 280/5/3 275/5/3 279/5/3
f 281/5/3 275/5/3 280/5/3
f 282/6/3 276/6/3 275/6/3
f 282/5/3 275/5/3 281/5/3
f 283/7/3 267/7/3 276/7/3
f 283/6/3 276/6/3 282/6/3
f 284/7/3 267/7/3 283/7/3
f 285/6/3 277/6/3 271/6/3
f 286/6/3 277/6/3 285/6/3
f 287/6/3 279/6/3 278/6/3
f 287/7/3 280/7/3 279/7/3
f 288/6/3 281/6/3 280/6/3
f 288/7/3 280/7/3 287/7/3
f 289/7/3 282/7/3 281/7/3
f 289/6/3 281/6/3 288/6/3
f 290/6/3 283/6/3 282/6/3
f 290/7/3 282/7/3 289/7/3
f 291/6/3 287/6/3 278/6/3
f 292/6/3 287/6/3 291/6/3
f 293/6/3 289/6/3 288/6/3
f 294/6/3 289/6/3 293/6/3
f 295/6/3 283/6/3 290/6/3
f 296/6/3 283/6/3 295/6/3
f 299/7/3 298/7/3 297/7/3
f 300/7/3 298/7/3 299/7/3
f 301/7/3 298/7/3 300/7/3
f 304/7/3 303/7/3 302/7/3
f 305/7/3 303/7/3 304/7/3
f 308/7/3 306/7/3 305/7/3
f 308/7/3 307/7/3 306/7/3
f 309/7/3 307/7/3 308/7/3
f 310/7/4 311/7/4 312/7/4
f 312/7/4 311/7/4 313/7/4
f 313/7/4 311/7/4 314/7/4
f 315/7/4 316/7/4 317/7/4
f 317/7/4 316/7/4 318/7/4
f 318/7/4 319/7/4 321/7/4
f 319/7/4 320/7/4 321/7/4
f 321/7/4 320/7/4 322/7/4
f 323/6/4 324/6/4 331/6/4
f 325/6/4 326/6/4 332/6/4
f 332/6/4 326/6/4 333/6/4
f 327/6/4 328/6/4 334/6/4
f 329/6/4 330/6/4 339/6/4
f 339/6/4 330/6/4 340/6/4
f 323/6/4 331/6/4 341/6/4
f 331/7/4 332/7/4 342/7/4
f 341/6/4 331/6/4 342/6/4
f 332/6/4 333/6/4 343/6/4
f 342/7/4 332/7/4 343/7/4
f 333/7/4 334/7/4 344/7/4
f 343/6/4 333/6/4 344/6/4
f 334/6/4 328/6/4 345/6/4
f 344/7/4 334/7/4 345/7/4
f 345/6/4 328/6/4 346/6/4
f 335/6/4 336/6/4 348/6/4
f 336/4/4 337/4/4 349/4/4
f 348/6/4 336/6/4 349/6/4
f 349/4/4 337/4/4 350/4/4
f 350/4/4 337/4/4 351/4/4
f 338/9/4 339/9/4 352/9/4
f 339/6/4 340/6/4 353/6/4
f 352/9/4 339/9/4 353/9/4
f 340/7/4 341/7/4 354/7/4
f 353/6/4 340/6/4 354/6/4
f 341/5/4 342/5/4 355/5/4
f 354/7/4 341/7/4 355/7/4
f 343/5/4 344/5/4 355/5/4
f 342/5/4 343/5/4 355/5/4
f 344/5/4 345/5/4 355/5/4
f 355/5/4 345/5/4 356/5/4
f 345/6/4 346/6/4 357/6/4
f 356/5/4 345/5/4 357/5/4
f 346/7/4 347/7/4 358/7/4
f 357/6/4 346/6/4 358/6/4
f 353/5/4 354/5/4 364/5/4
f 354/5/4 355/5/4 364/5/4
f 355/9/4 356/9/4 365/9/4
f 364/5/4 355/5/4 365/5/4
f 365/9/4 356/9/4 366/9/4
f 358/7/4 347/7/4 367/7/4
f 357/5/4 358/5/4 367/5/4
f 367/7/4 347/7/4 368/7/4
f 359/6/4 360/6/4 370/6/4
f 360/4/4 361/4/4 371/4/4
f 370/6/4 360/6/4 371/6/4
f 362/9/4 363/9/4 372/9/4
f 371/4/4 361/4/4 372/4/4
f 361/9/4 362/9/4 372/9/4
f 372/9/4 363/9/4 373/9/4
f 373/9/4 363/9/4 374/9/4
f 364/9/4 365/9/4 375/9/4
f 365/4/4 366/4/4 376/4/4
f 375/9/4 365/9/4 376/9/4
f 376/4/4 366/4/4 377/4/4
f 367/6/4 368/6/4 378/6/4
f 368/6/4 369/6/4 378/6/4
f 357/5/4 367/5/4 378/5/4
f 378/6/4 369/6/4 379/6/4
f 379/6/4 369/6/4 380/6/4
f 371/6/4 372/6/4 381/6/4
f 381/6/4 372/6/4 382/6/4
f 375/5/4 376/5/4 383/5/4
f 383/5/4 376/5/4 384/5/4
f 376/9/4 377/9/4 385/9/4
f 384/5/4 376/5/4 385/5/4
f 385/9/4 377/9/4 386/9/4
f 357/5/4 378/5/4 387/5/4
f 378/7/4 379/7/4 388/7/4
f 387/5/4 378/5/4 388/5/4
f 383/6/4 384/6/4 389/6/4
f 384/7/4 385/7/4 389/7/4
f 386/5/4 387/5/4 390/5/4
f 389/7/4 385/7/4 390/7/4
f 385/5/4 386/5/4 390/5/4
f 390/5/4 387/5/4 391/5/4
f 391/5/4 387/5/4 392/5/4
f 392/5/4 387/5/4 393/5/4
f 387/6/4 388/6/4 394/6/4
f 393/5/4 387/5/4 394/5/4
f 388/7/4 379/7/4 395/7/4
f 394/6/4 388/6/4 395/6/4
f 395/7/4 379/7/4 396/7/4
f 383/6/4 389/6/4 397/6/4
f 397/6/4 389/6/4 398/6/4
f 390/6/4 391/6/4 399/6/4
f 391/7/4 392/7/4 399/7/4
f 392/6/4 393/6/4 400/6/4
f 399/7/4 392/7/4 400/7/4
f 393/7/4 394/7/4 401/7/4
f 400/6/4 393/6/4 401/6/4
f 394/6/4 395/6/4 402/6/4
f 401/7/4 394/7/4 402/7/4
f 390/6/4 399/6/4 403/6/4
f 403/6/4 399/6/4 404/6/4
f 400/6/4 401/6/4 405/6/4
f 405/6/4 401/6/4 406/6/4
f 402/6/4 395/6/4 407/6/4
f 407/6/4 395/6/4 408/6/4
f 409/7/4 410/7/4 412/7/4
f 412/7/4 410/7/4 413/7/4
f 413/7/4 410/7/4 414/7/4
f 411/7/4 412/7/4 416/7/4
f 412/7/4 413/7/4 416/7/4
f 416/7/4 413/7/4 417/7/4
f 413/6/4 414/6/4 418/6/4
f 417/7/4 413/7/4 418/7/4
f 414/7/4 415/7/4 419/7/4
f 418/6/4 414/6/4 419/6/4
f 417/7/4 418/7/4 421/7/4
f 418/7/4 419/7/4 421/7/4
f 421/7/4 419/7/4 422/7/4
f 419/7/4 415/7/4 423/7/4
f 422/7/4 419/7/4 423/7/4
f 421/7/4 422/7/4 424/7/4
f 420/7/4 421/7/4 424/7/4
f 424/7/4 422/7/4 425/7/4
f 422/6/4 423/6/4 426/6/4
f 425/7/4 422/7/4 426/7/4
f 423/7/4 415/7/4 427/7/4
f 426/6/4 423/6/4 427/6/4
f 427/7/4 415/7/4 428/7/4
f 425/7/4 426/7/4 429/7/4
f 426/7/4 427/7/4 429/7/4
f 429/7/4 427/7/4 430/7/4
f 433/6/5 432/6/5 431/6/5
f 434/6/5 432/6/5 433/6/5
f 437/6/5 436/6/5 435/6/5
f 438/6/5 436/6/5 437/6/5
f 441/6/5 440/6/5 439/6/5
f 442/6/5 440/6/5 441/6/5
f 447/7/5 444/7/5 443/7/5
f 448/7/5 444/7/5 447/7/5
f 449/7/5 446/7/5 445/7/5
f 450/7/5 446/7/5 449/7/5
f 455/7/5 452/7/5 451/7/5
f 456/7/5 452/7/5 455/7/5
f 457/7/5 454/7/5 453/7/5
f 458/7/5 454/7/5 457/7/5
f 465/7/5 460/7/5 459/7/5
f 466/7/5 460/7/5 465/7/5
f 467/7/5 462/7/5 461/7/5
f 468/7/5 462/7/5 467/7/5
f 469/7/5 464/7/5 463/7/5
f 470/7/5 464/7/5 469/7/5
f 474/9/5 469/9/5 468/9/5
f 475/9/5 469/9/5 474/9/5
f 477/7/5 472/7/5 471/7/5
f 478/7/5 472/7/5 477/7/5
f 479/7/5 474/7/5 473/7/5
f 480/7/5 474/7/5 479/7/5
f 481/7/5 476/7/5 475/7/5
f 482/7/5 476/7/5 481/7/5
f 485/2/5 484/2/5 483/2/5
f 486/2/5 484/2/5 485/2/5
f 491/6/5 488/6/5 487/6/5
f 492/6/5 488/6/5 491/6/5
f 493/6/5 490/6/5 489/6/5
f 494/6/5 490/6/5 493/6/5
f 499/6/5 496/6/5 495/6/5
f 500/6/5 496/6/5 499/6/5
f 501/6/5 498/6/5 497/6/5
f 502/6/5 498/6/5 501/6/5
f 507/6/5 504/6/5 503/6/5
f 508/6/5 504/6/5 507/6/5
f 509/6/5 506/6/5 505/6/5
f 510/6/5 506/6/5 509/6/5
f 517/6/5 512/6/5 511/6/5
f 518/6/5 512/6/5 517/6/5
f 519/5/5 514/5/5 513/5/5
f 520/5/5 514/5/5 519/5/5
f 521/6/5 516/6/5 515/6/5
f 522/6/5 516/6/5 521/6/5
f 523/6/6 524/6/6 525/6/6
f 525/6/6 524/6/6 526/6/6
f 527/7/6 528/7/6 531/7/6
f 531/7/6 528/7/6 532/7/6
f 529/7/6 530/7/6 533/7/6
f 533/7/6 530/7/6 534/7/6
f 535/7/6 536/7/6 539/7/6
f 539/7/6 536/7/6 540/7/6
f 537/7/6 538/7/6 541/7/6
f 541/7/6 538/7/6 542/7/6
f 543/7/6 544/7/6 545/7/6
f 545/7/6 544/7/6 546/7/6
f 546/7/6 544/7/6 547/7/6
f 547/7/6 544/7/6 548/7/6
f 549/7/6 550/7/6 553/7/6
f 551/7/6 552/7/6 553/7/6
f 550/7/6 551/7/6 553/7/6
f 553/7/6 552/7/6 554/7/6
f 555/6/6 556/6/6 559/6/6
f 559/6/6 556/6/6 560/6/6
f 557/6/6 558/6/6 561/6/6
f 561/6/6 558/6/6 562/6/6
f 563/6/6 564/6/6 567/6/6
f 567/6/6 564/6/6 568/6/6
f 565/6/6 566/6/6 569/6/6
f 569/6/6 566/6/6 570/6/6
f 571/6/6 572/6/6 579/6/6
f 579/6/6 572/6/6 580/6/6
f 573/9/6 574/9/6 581/9/6
f 574/4/6 575/4/6 582/4/6
f 581/9/6 574/9/6 582/9/6
f 575/9/6 576/9/6 583/9/6
f 582/4/6 575/4/6 583/4/6
f 583/9/6 576/9/6 584/9/6
f 577/6/6 578/6/6 585/6/6
f 585/6/6 578/6/6 586/6/6
f 587/6/6 588/6/6 591/6/6
f 591/6/6 588/6/6 592/6/6
f 589/6/6 590/6/6 593/6/6
f 593/6/6 590/6/6 594/6/6
f 595/7/6 596/7/6 599/7/6
f 599/7/6 596/7/6 600/7/6
f 597/7/6 598/7/6 601/7/6
f 601/7/6 598/7/6 602/7/6
f 603/6/6 604/6/6 605/6/6
f 605/6/6 604/6/6 606/6/6
