# MagicaVoxel @ Ephtracy

# material
mtllib RightArm.mtl
usemtl palette

# normals
vn -1 0 0
vn 1 0 0
vn 0 0 1
vn 0 0 -1
vn 0 -1 0
vn 0 1 0

# texcoords
vt 0.845703 0.5
vt 0.958984 0.5
vt 0.994141 0.5

# verts
v 3 7 -0
v 3 7 -1
v 3 8 -0
v 3 8 -1
v 5 7 1
v 5 7 -0
v 5 7 -1
v 5 7 -2
v 5 8 1
v 5 8 -0
v 5 8 -1
v 5 8 -2
v 5 9 -0
v 5 9 -1
v 6 7 1
v 6 7 -0
v 6 7 -1
v 6 7 -2
v 6 8 1
v 6 8 -0
v 6 8 -1
v 6 8 -2
v 6 9 -0
v 6 9 -1
v 7 7 -0
v 7 7 -1
v 7 8 -0
v 7 8 -1
v 5 7 1
v 5 8 1
v 6 7 1
v 6 8 1
v 3 7 -0
v 3 8 -0
v 4 7 -0
v 4 8 -0
v 5 7 -0
v 5 8 -0
v 5 9 -0
v 6 7 -0
v 6 8 -0
v 6 9 -0
v 7 7 -0
v 7 8 -0
v 3 7 -1
v 3 8 -1
v 4 7 -1
v 4 8 -1
v 5 7 -1
v 5 8 -1
v 5 9 -1
v 6 7 -1
v 6 8 -1
v 6 9 -1
v 7 7 -1
v 7 8 -1
v 5 7 -2
v 5 8 -2
v 6 7 -2
v 6 8 -2
v 5 7 1
v 6 7 1
v 3 7 -0
v 4 7 -0
v 5 7 -0
v 6 7 -0
v 7 7 -0
v 3 7 -1
v 4 7 -1
v 5 7 -1
v 6 7 -1
v 7 7 -1
v 5 7 -2
v 6 7 -2
v 5 8 1
v 6 8 1
v 3 8 -0
v 4 8 -0
v 5 8 -0
v 6 8 -0
v 7 8 -0
v 3 8 -1
v 4 8 -1
v 5 8 -1
v 6 8 -1
v 7 8 -1
v 5 8 -2
v 6 8 -2
v 5 9 -0
v 6 9 -0
v 5 9 -1
v 6 9 -1

# faces
f 3/2/1 2/2/1 1/2/1
f 4/2/1 2/2/1 3/2/1
f 9/3/1 6/3/1 5/3/1
f 10/3/1 6/3/1 9/3/1
f 11/3/1 8/3/1 7/3/1
f 12/3/1 8/3/1 11/3/1
f 13/3/1 11/3/1 10/3/1
f 14/3/1 11/3/1 13/3/1
f 15/3/2 16/3/2 19/3/2
f 19/3/2 16/3/2 20/3/2
f 17/3/2 18/3/2 21/3/2
f 21/3/2 18/3/2 22/3/2
f 20/3/2 21/3/2 23/3/2
f 23/3/2 21/3/2 24/3/2
f 25/2/2 26/2/2 27/2/2
f 27/2/2 26/2/2 28/2/2
f 31/3/3 30/3/3 29/3/3
f 32/3/3 30/3/3 31/3/3
f 35/2/3 34/2/3 33/2/3
f 36/2/3 34/2/3 35/2/3
f 37/1/3 36/1/3 35/1/3
f 38/1/3 36/1/3 37/1/3
f 41/3/3 39/3/3 38/3/3
f 42/3/3 39/3/3 41/3/3
f 43/2/3 41/2/3 40/2/3
f 44/2/3 41/2/3 43/2/3
f 45/2/4 46/2/4 47/2/4
f 47/2/4 46/2/4 48/2/4
f 47/1/4 48/1/4 49/1/4
f 49/1/4 48/1/4 50/1/4
f 50/3/4 51/3/4 53/3/4
f 53/3/4 51/3/4 54/3/4
f 52/2/4 53/2/4 55/2/4
f 55/2/4 53/2/4 56/2/4
f 57/3/4 58/3/4 59/3/4
f 59/3/4 58/3/4 60/3/4
f 65/3/5 62/3/5 61/3/5
f 66/3/5 62/3/5 65/3/5
f 68/2/5 64/2/5 63/2/5
f 69/1/5 65/1/5 64/1/5
f 69/2/5 64/2/5 68/2/5
f 70/3/5 66/3/5 65/3/5
f 70/1/5 65/1/5 69/1/5
f 71/2/5 67/2/5 66/2/5
f 71/3/5 66/3/5 70/3/5
f 72/2/5 67/2/5 71/2/5
f 73/3/5 71/3/5 70/3/5
f 74/3/5 71/3/5 73/3/5
f 75/3/6 76/3/6 79/3/6
f 79/3/6 76/3/6 80/3/6
f 77/2/6 78/2/6 82/2/6
f 78/1/6 79/1/6 83/1/6
f 82/2/6 78/2/6 83/2/6
f 83/1/6 79/1/6 84/1/6
f 80/2/6 81/2/6 85/2/6
f 85/2/6 81/2/6 86/2/6
f 84/3/6 85/3/6 87/3/6
f 87/3/6 85/3/6 88/3/6
f 89/3/6 90/3/6 91/3/6
f 91/3/6 90/3/6 92/3/6
