# MagicaVoxel @ Ephtracy

# material
mtllib medical_kit.mtl
usemtl palette

# normals
vn -1 0 0
vn 1 0 0
vn 0 0 1
vn 0 0 -1
vn 0 -1 0
vn 0 1 0

# texcoords
vt 0.904297 0.5
vt 0.908203 0.5
vt 0.912109 0.5
vt 0.962891 0.5

# verts
v -3.5 2 4.5
v -3.5 2 -4.5
v -3.5 3 5.5
v -3.5 3 4.5
v -3.5 3 -4.5
v -3.5 3 -5.5
v -3.5 4 1.5
v -3.5 4 -1.5
v -3.5 6 3.5
v -3.5 6 1.5
v -3.5 6 -1.5
v -3.5 6 -3.5
v -3.5 9 3.5
v -3.5 9 1.5
v -3.5 9 -1.5
v -3.5 9 -3.5
v -3.5 11 1.5
v -3.5 11 -1.5
v -3.5 12 5.5
v -3.5 12 4.5
v -3.5 12 -4.5
v -3.5 12 -5.5
v -3.5 13 4.5
v -3.5 13 -4.5
v -1.5 13 1.5
v -1.5 13 -1.5
v -1.5 15 1.5
v -1.5 15 -1.5
v -0.5 13 2.5
v -0.5 13 1.5
v -0.5 13 -1.5
v -0.5 13 -2.5
v -0.5 15 2.5
v -0.5 15 1.5
v -0.5 15 -1.5
v -0.5 15 -2.5
v 1.5 13 2.5
v 1.5 13 1.5
v 1.5 13 -1.5
v 1.5 13 -2.5
v 1.5 15 2.5
v 1.5 15 1.5
v 1.5 15 -1.5
v 1.5 15 -2.5
v 2.5 13 1.5
v 2.5 13 -1.5
v 2.5 15 1.5
v 2.5 15 -1.5
v 4.5 2 4.5
v 4.5 2 -4.5
v 4.5 3 5.5
v 4.5 3 4.5
v 4.5 3 -4.5
v 4.5 3 -5.5
v 4.5 12 5.5
v 4.5 12 4.5
v 4.5 12 -4.5
v 4.5 12 -5.5
v 4.5 13 4.5
v 4.5 13 -4.5
v -3.5 3 5.5
v -3.5 12 5.5
v 4.5 3 5.5
v 4.5 12 5.5
v -3.5 2 4.5
v -3.5 3 4.5
v -3.5 12 4.5
v -3.5 13 4.5
v 4.5 2 4.5
v 4.5 3 4.5
v 4.5 12 4.5
v 4.5 13 4.5
v -0.5 13 2.5
v -0.5 15 2.5
v 1.5 13 2.5
v 1.5 15 2.5
v -1.5 13 1.5
v -1.5 15 1.5
v -0.5 13 1.5
v -0.5 15 1.5
v 1.5 13 1.5
v 1.5 15 1.5
v 2.5 13 1.5
v 2.5 15 1.5
v -1.5 13 -1.5
v -1.5 15 -1.5
v -0.5 13 -1.5
v -0.5 15 -1.5
v 1.5 13 -1.5
v 1.5 15 -1.5
v 2.5 13 -1.5
v 2.5 15 -1.5
v -0.5 13 -2.5
v -0.5 15 -2.5
v 1.5 13 -2.5
v 1.5 15 -2.5
v -3.5 2 -4.5
v -3.5 3 -4.5
v -3.5 12 -4.5
v -3.5 13 -4.5
v 4.5 2 -4.5
v 4.5 3 -4.5
v 4.5 12 -4.5
v 4.5 13 -4.5
v -3.5 3 -5.5
v -3.5 12 -5.5
v 4.5 3 -5.5
v 4.5 12 -5.5
v -3.5 2 4.5
v 4.5 2 4.5
v -3.5 2 -4.5
v 4.5 2 -4.5
v -3.5 3 5.5
v 4.5 3 5.5
v -3.5 3 4.5
v 4.5 3 4.5
v -3.5 3 -4.5
v 4.5 3 -4.5
v -3.5 3 -5.5
v 4.5 3 -5.5
v -3.5 12 5.5
v 4.5 12 5.5
v -3.5 12 4.5
v 4.5 12 4.5
v -3.5 12 -4.5
v 4.5 12 -4.5
v -3.5 12 -5.5
v 4.5 12 -5.5
v -3.5 13 4.5
v 4.5 13 4.5
v -0.5 13 2.5
v 1.5 13 2.5
v -1.5 13 1.5
v -0.5 13 1.5
v 1.5 13 1.5
v 2.5 13 1.5
v -1.5 13 -1.5
v -0.5 13 -1.5
v 1.5 13 -1.5
v 2.5 13 -1.5
v -0.5 13 -2.5
v 1.5 13 -2.5
v -3.5 13 -4.5
v 4.5 13 -4.5
v -0.5 15 2.5
v 1.5 15 2.5
v -1.5 15 1.5
v -0.5 15 1.5
v 1.5 15 1.5
v 2.5 15 1.5
v -1.5 15 -1.5
v -0.5 15 -1.5
v 1.5 15 -1.5
v 2.5 15 -1.5
v -0.5 15 -2.5
v 1.5 15 -2.5

# faces
f 4/4/1 2/4/1 1/4/1
f 5/4/1 2/4/1 4/4/1
f 7/4/1 4/4/1 3/4/1
f 7/4/1 6/4/1 5/4/1
f 7/4/1 5/4/1 4/4/1
f 8/4/1 6/4/1 7/4/1
f 9/4/1 7/4/1 3/4/1
f 10/3/1 8/3/1 7/3/1
f 10/4/1 7/4/1 9/4/1
f 11/4/1 6/4/1 8/4/1
f 11/3/1 8/3/1 10/3/1
f 12/4/1 6/4/1 11/4/1
f 13/3/1 10/3/1 9/3/1
f 13/4/1 9/4/1 3/4/1
f 13/3/1 12/3/1 11/3/1
f 13/3/1 11/3/1 10/3/1
f 14/3/1 12/3/1 13/3/1
f 15/3/1 12/3/1 14/3/1
f 16/4/1 6/4/1 12/4/1
f 16/3/1 12/3/1 15/3/1
f 17/3/1 15/3/1 14/3/1
f 17/4/1 14/4/1 13/4/1
f 18/4/1 16/4/1 15/4/1
f 18/3/1 15/3/1 17/3/1
f 19/4/1 13/4/1 3/4/1
f 19/4/1 17/4/1 13/4/1
f 19/4/1 18/4/1 17/4/1
f 20/4/1 18/4/1 19/4/1
f 21/4/1 6/4/1 16/4/1
f 21/4/1 18/4/1 20/4/1
f 21/4/1 16/4/1 18/4/1
f 22/4/1 6/4/1 21/4/1
f 23/4/1 21/4/1 20/4/1
f 24/4/1 21/4/1 23/4/1
f 27/1/1 26/1/1 25/1/1
f 28/1/1 26/1/1 27/1/1
f 33/1/1 30/1/1 29/1/1
f 34/1/1 30/1/1 33/1/1
f 35/1/1 32/1/1 31/1/1
f 36/1/1 32/1/1 35/1/1
f 37/1/2 38/1/2 41/1/2
f 41/1/2 38/1/2 42/1/2
f 39/1/2 40/1/2 43/1/2
f 43/1/2 40/1/2 44/1/2
f 45/1/2 46/1/2 47/1/2
f 47/1/2 46/1/2 48/1/2
f 49/4/2 50/4/2 52/4/2
f 52/4/2 50/4/2 53/4/2
f 51/4/2 52/4/2 55/4/2
f 53/4/2 54/4/2 55/4/2
f 52/4/2 53/4/2 55/4/2
f 55/4/2 54/4/2 56/4/2
f 56/4/2 54/4/2 57/4/2
f 57/4/2 54/4/2 58/4/2
f 56/4/2 57/4/2 59/4/2
f 59/4/2 57/4/2 60/4/2
f 63/4/3 62/4/3 61/4/3
f 64/4/3 62/4/3 63/4/3
f 69/4/3 66/4/3 65/4/3
f 70/4/3 66/4/3 69/4/3
f 71/4/3 68/4/3 67/4/3
f 72/4/3 68/4/3 71/4/3
f 75/1/3 74/1/3 73/1/3
f 76/1/3 74/1/3 75/1/3
f 79/1/3 78/1/3 77/1/3
f 80/1/3 78/1/3 79/1/3
f 83/1/3 82/1/3 81/1/3
f 84/1/3 82/1/3 83/1/3
f 85/1/4 86/1/4 87/1/4
f 87/1/4 86/1/4 88/1/4
f 89/1/4 90/1/4 91/1/4
f 91/1/4 90/1/4 92/1/4
f 93/1/4 94/1/4 95/1/4
f 95/1/4 94/1/4 96/1/4
f 97/4/4 98/4/4 101/4/4
f 101/4/4 98/4/4 102/4/4
f 99/4/4 100/4/4 103/4/4
f 103/4/4 100/4/4 104/4/4
f 105/4/4 106/4/4 107/4/4
f 107/4/4 106/4/4 108/4/4
f 111/4/5 110/4/5 109/4/5
f 112/4/5 110/4/5 111/4/5
f 115/4/5 114/4/5 113/4/5
f 116/4/5 114/4/5 115/4/5
f 119/4/5 118/4/5 117/4/5
f 120/4/5 118/4/5 119/4/5
f 121/4/6 122/4/6 123/4/6
f 123/4/6 122/4/6 124/4/6
f 125/4/6 126/4/6 127/4/6
f 127/4/6 126/4/6 128/4/6
f 129/4/6 130/4/6 131/4/6
f 131/4/6 130/4/6 132/4/6
f 129/4/6 131/4/6 133/4/6
f 133/4/6 131/4/6 134/4/6
f 132/4/6 130/4/6 135/4/6
f 135/4/6 130/4/6 136/4/6
f 129/4/6 133/4/6 137/4/6
f 136/4/6 130/4/6 140/4/6
f 137/4/6 138/4/6 141/4/6
f 139/4/6 140/4/6 142/4/6
f 137/4/6 141/4/6 143/4/6
f 141/4/6 142/4/6 143/4/6
f 129/4/6 137/4/6 143/4/6
f 142/4/6 140/4/6 144/4/6
f 143/4/6 142/4/6 144/4/6
f 140/4/6 130/4/6 144/4/6
f 145/1/6 146/1/6 148/1/6
f 148/1/6 146/1/6 149/1/6
f 147/1/6 148/1/6 151/1/6
f 149/1/6 150/1/6 151/1/6
f 148/1/6 149/1/6 151/1/6
f 151/1/6 150/1/6 152/1/6
f 152/1/6 150/1/6 153/1/6
f 153/1/6 150/1/6 154/1/6
f 152/1/6 153/1/6 155/1/6
f 155/1/6 153/1/6 156/1/6
