# MagicaVoxel @ Ephtracy

# material
mtllib liulian-D-5.mtl
usemtl palette

# normals
vn -1 0 0
vn 1 0 0
vn 0 0 1
vn 0 0 -1
vn 0 -1 0
vn 0 1 0

# texcoords
vt 0.384766 0.5
vt 0.982422 0.5

# verts
v -7.5 0 7.5
v -7.5 0 -7.5
v -7.5 14 -3.5
v -7.5 14 -6.5
v -7.5 15 7.5
v -7.5 15 -3.5
v -7.5 15 -6.5
v -7.5 15 -7.5
v 7.5 0 7.5
v 7.5 0 -7.5
v 7.5 15 7.5
v 7.5 15 -7.5
v -7.5 0 7.5
v -7.5 15 7.5
v 3.5 14 7.5
v 3.5 15 7.5
v 6.5 14 7.5
v 6.5 15 7.5
v 7.5 0 7.5
v 7.5 15 7.5
v -7.5 0 -7.5
v -7.5 15 -7.5
v 7.5 0 -7.5
v 7.5 15 -7.5
v -7.5 0 7.5
v 7.5 0 7.5
v -7.5 0 -7.5
v 7.5 0 -7.5
v -7.5 15 7.5
v 3.5 15 7.5
v 6.5 15 7.5
v 7.5 15 7.5
v -3.5 15 5.5
v 0.5 15 5.5
v -3.5 15 4.5
v -2.5 15 4.5
v -0.5 15 4.5
v 0.5 15 4.5
v -3.5 15 -0.5
v -2.5 15 -0.5
v -3.5 15 -1.5
v -2.5 15 -1.5
v -2.5 15 -2.5
v -0.5 15 -2.5
v -7.5 15 -3.5
v 3.5 15 -3.5
v -7.5 15 -6.5
v 6.5 15 -6.5
v -7.5 15 -7.5
v 7.5 15 -7.5

# faces
f 3/2/1 2/2/1 1/2/1
f 4/2/1 2/2/1 3/2/1
f 5/2/1 3/2/1 1/2/1
f 6/1/1 4/1/1 3/1/1
f 6/2/1 3/2/1 5/2/1
f 7/2/1 2/2/1 4/2/1
f 7/1/1 4/1/1 6/1/1
f 8/2/1 2/2/1 7/2/1
f 9/2/2 10/2/2 11/2/2
f 11/2/2 10/2/2 12/2/2
f 15/2/3 14/2/3 13/2/3
f 16/2/3 14/2/3 15/2/3
f 17/2/3 15/2/3 13/2/3
f 17/1/3 16/1/3 15/1/3
f 18/1/3 16/1/3 17/1/3
f 19/2/3 17/2/3 13/2/3
f 19/2/3 18/2/3 17/2/3
f 20/2/3 18/2/3 19/2/3
f 21/2/4 22/2/4 23/2/4
f 23/2/4 22/2/4 24/2/4
f 27/2/5 26/2/5 25/2/5
f 28/2/5 26/2/5 27/2/5
f 29/2/6 30/2/6 33/2/6
f 33/2/6 30/2/6 34/2/6
f 29/2/6 33/2/6 35/2/6
f 33/1/6 34/1/6 35/1/6
f 35/1/6 34/1/6 36/1/6
f 36/1/6 34/1/6 37/1/6
f 34/2/6 30/2/6 38/2/6
f 37/1/6 34/1/6 38/1/6
f 29/2/6 35/2/6 39/2/6
f 35/2/6 36/2/6 39/2/6
f 36/1/6 37/1/6 40/1/6
f 39/2/6 36/2/6 40/2/6
f 29/2/6 39/2/6 41/2/6
f 39/1/6 40/1/6 41/1/6
f 40/1/6 37/1/6 42/1/6
f 41/1/6 40/1/6 42/1/6
f 41/2/6 42/2/6 43/2/6
f 42/1/6 37/1/6 43/1/6
f 37/2/6 38/2/6 44/2/6
f 43/1/6 37/1/6 44/1/6
f 29/2/6 41/2/6 45/2/6
f 41/2/6 43/2/6 45/2/6
f 43/2/6 44/2/6 45/2/6
f 30/1/6 31/1/6 46/1/6
f 45/2/6 44/2/6 46/2/6
f 44/2/6 38/2/6 46/2/6
f 38/2/6 30/2/6 46/2/6
f 45/1/6 46/1/6 47/1/6
f 31/2/6 32/2/6 48/2/6
f 47/1/6 46/1/6 48/1/6
f 46/1/6 31/1/6 48/1/6
f 47/2/6 48/2/6 49/2/6
f 48/2/6 32/2/6 50/2/6
f 49/2/6 48/2/6 50/2/6
