# MagicaVoxel @ Ephtracy

# material
mtllib rabbit hammer.mtl
usemtl palette

# normals
vn -1 0 0
vn 1 0 0
vn 0 0 1
vn 0 0 -1
vn 0 -1 0
vn 0 1 0

# texcoords
vt 0.0136719 0.5
vt 0.248047 0.5
vt 0.841797 0.5
vt 0.865234 0.5
vt 0.919922 0.5
vt 0.923828 0.5
vt 0.958984 0.5
vt 0.966797 0.5

# verts
v -2 13 1
v -2 13 -0
v -2 13 -1
v -2 13 -2
v -2 14 2
v -2 14 1
v -2 14 -0
v -2 14 -1
v -2 14 -2
v -2 14 -3
v -2 15 1
v -2 15 -0
v -2 15 -1
v -2 15 -2
v -2 15 -3
v -2 16 2
v -2 16 1
v -2 16 -0
v -2 16 -1
v -2 16 -2
v -2 16 -3
v -2 17 1
v -2 17 -1
v -2 17 -2
v -1 9 -5
v -1 9 -6
v -1 10 -5
v -1 10 -6
v -1 12 -0
v -1 12 -1
v -1 13 3
v -1 13 1
v -1 13 -0
v -1 13 -1
v -1 13 -2
v -1 13 -5
v -1 14 3
v -1 14 2
v -1 14 1
v -1 14 -0
v -1 14 -1
v -1 14 -2
v -1 14 -3
v -1 14 -4
v -1 15 1
v -1 15 -0
v -1 15 -1
v -1 15 -2
v -1 15 -3
v -1 15 -4
v -1 15 -5
v -1 16 3
v -1 16 2
v -1 16 1
v -1 16 -0
v -1 16 -1
v -1 16 -2
v -1 16 -3
v -1 16 -5
v -1 17 -5
v -1 17 -6
v 0 1 -0
v 0 1 -1
v 0 2 1
v 0 2 -0
v 0 2 -1
v 0 2 -2
v 0 3 2
v 0 3 1
v 0 3 -0
v 0 3 -1
v 0 3 -2
v 0 3 -3
v 0 4 2
v 0 4 1
v 0 4 -0
v 0 4 -1
v 0 4 -2
v 0 4 -3
v 0 5 1
v 0 5 -0
v 0 5 -1
v 0 5 -2
v 0 6 -0
v 0 6 -1
v 0 11 -0
v 0 11 -1
v 0 12 4
v 0 12 3
v 0 12 1
v 0 12 -0
v 0 12 -1
v 0 12 -2
v 0 13 5
v 0 13 4
v 0 13 3
v 0 13 1
v 0 13 -0
v 0 13 -1
v 0 13 -2
v 0 14 6
v 0 14 5
v 0 14 3
v 0 15 6
v 0 15 5
v 0 15 3
v 0 16 5
v 0 16 4
v 0 16 3
v 0 17 4
v 0 17 3
v 0 17 -0
v 0 17 -1
v 0 18 -0
v 0 18 -1
v 1 9 -5
v 1 9 -6
v 1 10 -5
v 1 10 -6
v 1 13 -4
v 1 13 -5
v 1 14 -4
v 1 14 -5
v 1 15 -4
v 1 15 -5
v 1 16 -4
v 1 16 -5
v 1 17 -5
v 1 17 -6
v 0 9 -5
v 0 9 -6
v 0 10 -5
v 0 10 -6
v 0 13 -4
v 0 13 -5
v 0 14 -4
v 0 14 -5
v 0 15 -4
v 0 15 -5
v 0 16 -4
v 0 16 -5
v 0 17 -5
v 0 17 -6
v 1 1 -0
v 1 1 -1
v 1 2 1
v 1 2 -0
v 1 2 -1
v 1 2 -2
v 1 3 2
v 1 3 1
v 1 3 -0
v 1 3 -1
v 1 3 -2
v 1 3 -3
v 1 4 2
v 1 4 1
v 1 4 -0
v 1 4 -1
v 1 4 -2
v 1 4 -3
v 1 5 1
v 1 5 -0
v 1 5 -1
v 1 5 -2
v 1 6 -0
v 1 6 -1
v 1 11 -0
v 1 11 -1
v 1 12 4
v 1 12 3
v 1 12 1
v 1 12 -0
v 1 12 -1
v 1 12 -2
v 1 13 5
v 1 13 4
v 1 13 3
v 1 13 1
v 1 13 -0
v 1 13 -1
v 1 13 -2
v 1 14 6
v 1 14 5
v 1 14 3
v 1 15 6
v 1 15 5
v 1 15 3
v 1 16 5
v 1 16 4
v 1 16 3
v 1 17 4
v 1 17 3
v 1 17 -0
v 1 17 -1
v 1 18 -0
v 1 18 -1
v 2 9 -5
v 2 9 -6
v 2 10 -5
v 2 10 -6
v 2 12 -0
v 2 12 -1
v 2 13 3
v 2 13 1
v 2 13 -0
v 2 13 -1
v 2 13 -2
v 2 13 -3
v 2 13 -5
v 2 14 2
v 2 14 1
v 2 14 -0
v 2 14 -1
v 2 14 -2
v 2 14 -3
v 2 14 -5
v 2 15 3
v 2 15 2
v 2 15 1
v 2 15 -0
v 2 15 -1
v 2 15 -2
v 2 15 -3
v 2 15 -4
v 2 16 3
v 2 16 2
v 2 16 1
v 2 16 -0
v 2 16 -1
v 2 16 -2
v 2 16 -3
v 2 16 -4
v 2 16 -5
v 2 17 -5
v 2 17 -6
v 3 13 1
v 3 13 -0
v 3 13 -1
v 3 13 -2
v 3 14 2
v 3 14 1
v 3 14 -0
v 3 14 -1
v 3 14 -2
v 3 14 -3
v 3 15 2
v 3 15 1
v 3 15 -0
v 3 15 -1
v 3 15 -2
v 3 15 -3
v 3 16 2
v 3 16 1
v 3 16 -0
v 3 16 -1
v 3 16 -2
v 3 16 -3
v 3 17 1
v 3 17 -0
v 3 17 -2
v 0 14 6
v 0 15 6
v 1 14 6
v 1 15 6
v 0 13 5
v 0 14 5
v 0 15 5
v 0 16 5
v 1 13 5
v 1 14 5
v 1 15 5
v 1 16 5
v 0 12 4
v 0 13 4
v 0 16 4
v 0 17 4
v 1 12 4
v 1 13 4
v 1 16 4
v 1 17 4
v -1 13 3
v -1 14 3
v -1 16 3
v 0 13 3
v 0 14 3
v 0 15 3
v 0 16 3
v 1 13 3
v 1 14 3
v 1 15 3
v 1 16 3
v 2 13 3
v 2 15 3
v 2 16 3
v -2 14 2
v -2 16 2
v -1 14 2
v -1 16 2
v 0 3 2
v 0 4 2
v 1 3 2
v 1 4 2
v 2 14 2
v 2 15 2
v 2 16 2
v 3 14 2
v 3 15 2
v 3 16 2
v -2 13 1
v -2 14 1
v -2 16 1
v -2 17 1
v -1 13 1
v -1 14 1
v -1 16 1
v -1 17 1
v 0 2 1
v 0 3 1
v 0 4 1
v 0 5 1
v 0 12 1
v 0 13 1
v 1 2 1
v 1 3 1
v 1 4 1
v 1 5 1
v 1 12 1
v 1 13 1
v 2 13 1
v 2 14 1
v 3 13 1
v 3 14 1
v 3 16 1
v 3 17 1
v -2 15 -0
v -2 16 -0
v -1 12 -0
v -1 13 -0
v -1 15 -0
v -1 16 -0
v 0 1 -0
v 0 2 -0
v 0 5 -0
v 0 6 -0
v 0 11 -0
v 0 12 -0
v 0 13 -0
v 0 17 -0
v 0 18 -0
v 1 1 -0
v 1 2 -0
v 1 5 -0
v 1 6 -0
v 1 11 -0
v 1 12 -0
v 1 13 -0
v 1 17 -0
v 1 18 -0
v 2 12 -0
v 2 13 -0
v 2 15 -0
v 2 16 -0
v 3 15 -0
v 3 16 -0
v -2 13 -1
v -2 14 -1
v -1 13 -1
v -1 14 -1
v 2 13 -1
v 2 14 -1
v 3 13 -1
v 3 14 -1
v -2 15 -2
v -2 16 -2
v -1 15 -2
v -1 16 -2
v 2 15 -2
v 2 16 -2
v 3 15 -2
v 3 16 -2
v -1 9 -5
v -1 10 -5
v -1 13 -5
v -1 16 -5
v -1 17 -5
v 0 9 -5
v 0 10 -5
v 0 13 -5
v 0 16 -5
v 0 17 -5
v 1 9 -5
v 1 10 -5
v 1 13 -5
v 1 16 -5
v 1 17 -5
v 2 9 -5
v 2 10 -5
v 2 13 -5
v 2 16 -5
v 2 17 -5
v 0 12 3
v 0 13 3
v 0 16 3
v 0 17 3
v 1 12 3
v 1 13 3
v 1 16 3
v 1 17 3
v -2 15 1
v -2 16 1
v -1 15 1
v -1 16 1
v 2 15 1
v 2 16 1
v 3 15 1
v 3 16 1
v -2 13 -0
v -2 14 -0
v -1 13 -0
v -1 14 -0
v 2 13 -0
v 2 14 -0
v 3 13 -0
v 3 14 -0
v -2 15 -1
v -2 16 -1
v -1 12 -1
v -1 13 -1
v -1 15 -1
v -1 16 -1
v 0 1 -1
v 0 2 -1
v 0 5 -1
v 0 6 -1
v 0 11 -1
v 0 12 -1
v 0 13 -1
v 0 17 -1
v 0 18 -1
v 1 1 -1
v 1 2 -1
v 1 5 -1
v 1 6 -1
v 1 11 -1
v 1 12 -1
v 1 13 -1
v 1 17 -1
v 1 18 -1
v 2 12 -1
v 2 13 -1
v 2 15 -1
v 2 16 -1
v 3 15 -1
v 3 16 -1
v -2 13 -2
v -2 14 -2
v -2 16 -2
v -2 17 -2
v -1 13 -2
v -1 14 -2
v -1 16 -2
v -1 17 -2
v 0 2 -2
v 0 3 -2
v 0 4 -2
v 0 5 -2
v 0 12 -2
v 0 13 -2
v 0 16 -2
v 0 17 -2
v 1 2 -2
v 1 3 -2
v 1 4 -2
v 1 5 -2
v 1 12 -2
v 1 13 -2
v 1 16 -2
v 2 13 -2
v 2 14 -2
v 2 16 -2
v 2 17 -2
v 3 13 -2
v 3 14 -2
v 3 16 -2
v 3 17 -2
v -2 14 -3
v -2 15 -3
v -2 16 -3
v -1 14 -3
v -1 15 -3
v -1 16 -3
v 0 3 -3
v 0 4 -3
v 1 3 -3
v 1 4 -3
v 2 14 -3
v 2 15 -3
v 2 16 -3
v 3 14 -3
v 3 15 -3
v 3 16 -3
v 0 13 -4
v 0 14 -4
v 0 15 -4
v 0 16 -4
v 1 13 -4
v 1 14 -4
v 1 15 -4
v 1 16 -4
v 0 14 -5
v 0 15 -5
v 1 14 -5
v 1 15 -5
v -1 9 -6
v -1 10 -6
v -1 17 -6
v 0 9 -6
v 0 10 -6
v 0 17 -6
v 1 9 -6
v 1 10 -6
v 1 17 -6
v 2 9 -6
v 2 10 -6
v 2 17 -6
v 0 1 -0
v 1 1 -0
v 0 1 -1
v 1 1 -1
v 0 2 1
v 1 2 1
v 0 2 -0
v 1 2 -0
v 0 2 -1
v 1 2 -1
v 0 2 -2
v 1 2 -2
v 0 3 2
v 1 3 2
v 0 3 1
v 1 3 1
v 0 3 -2
v 1 3 -2
v 0 3 -3
v 1 3 -3
v -1 9 -5
v 0 9 -5
v 1 9 -5
v 2 9 -5
v -1 9 -6
v 0 9 -6
v 1 9 -6
v 2 9 -6
v 0 12 4
v 1 12 4
v 0 12 3
v 1 12 3
v 0 12 1
v 1 12 1
v -1 12 -0
v 0 12 -0
v 1 12 -0
v 2 12 -0
v -1 12 -1
v 0 12 -1
v 1 12 -1
v 2 12 -1
v 0 12 -2
v 1 12 -2
v 0 13 5
v 1 13 5
v 0 13 4
v 1 13 4
v -1 13 3
v 0 13 3
v 1 13 3
v 2 13 3
v -2 13 1
v -1 13 1
v 0 13 1
v 1 13 1
v 2 13 1
v 3 13 1
v -2 13 -0
v -1 13 -0
v 0 13 -0
v 1 13 -0
v 2 13 -0
v 3 13 -0
v -2 13 -1
v -1 13 -1
v 0 13 -1
v 1 13 -1
v 2 13 -1
v 3 13 -1
v -2 13 -2
v -1 13 -2
v 0 13 -2
v 1 13 -2
v 2 13 -2
v 3 13 -2
v 1 13 -3
v 2 13 -3
v 0 13 -4
v 1 13 -4
v -1 13 -5
v 0 13 -5
v 1 13 -5
v 2 13 -5
v 0 14 6
v 1 14 6
v 0 14 5
v 1 14 5
v -2 14 2
v -1 14 2
v 2 14 2
v 3 14 2
v -2 14 1
v -1 14 1
v 2 14 1
v 3 14 1
v -2 14 -0
v -1 14 -0
v 2 14 -0
v 3 14 -0
v -2 14 -1
v -1 14 -1
v 2 14 -1
v 3 14 -1
v -2 14 -2
v -1 14 -2
v 2 14 -2
v 3 14 -2
v -2 14 -3
v -1 14 -3
v 2 14 -3
v 3 14 -3
v 0 14 -4
v 1 14 -4
v 0 14 -5
v 1 14 -5
v -2 16 1
v -1 16 1
v 2 16 1
v 3 16 1
v -2 16 -0
v -1 16 -0
v 2 16 -0
v 3 16 -0
v -2 16 -1
v -1 16 -1
v 2 16 -1
v 3 16 -1
v -2 16 -2
v -1 16 -2
v 2 16 -2
v 3 16 -2
v 0 4 2
v 1 4 2
v 0 4 1
v 1 4 1
v 0 4 -2
v 1 4 -2
v 0 4 -3
v 1 4 -3
v 0 5 1
v 1 5 1
v 0 5 -0
v 1 5 -0
v 0 5 -1
v 1 5 -1
v 0 5 -2
v 1 5 -2
v 0 15 6
v 1 15 6
v 0 15 5
v 1 15 5
v -2 15 1
v -1 15 1
v 2 15 1
v 3 15 1
v -2 15 -0
v -1 15 -0
v 2 15 -0
v 3 15 -0
v -2 15 -1
v -1 15 -1
v 2 15 -1
v 3 15 -1
v -2 15 -2
v -1 15 -2
v 2 15 -2
v 3 15 -2
v 0 15 -4
v 1 15 -4
v 0 15 -5
v 1 15 -5
v 0 16 5
v 1 16 5
v 0 16 4
v 1 16 4
v -1 16 3
v 0 16 3
v 1 16 3
v 2 16 3
v -2 16 2
v -1 16 2
v 0 16 2
v 2 16 2
v 3 16 2
v -2 16 1
v -1 16 1
v 3 16 1
v -2 16 -2
v -1 16 -2
v 0 16 -2
v 1 16 -2
v 2 16 -2
v 3 16 -2
v -2 16 -3
v -1 16 -3
v 0 16 -3
v 2 16 -3
v 3 16 -3
v 0 16 -4
v 1 16 -4
v 2 16 -4
v -1 16 -5
v 0 16 -5
v 1 16 -5
v 2 16 -5
v 0 17 4
v 1 17 4
v 0 17 3
v 1 17 3
v -2 17 1
v -1 17 1
v 3 17 1
v 0 17 -0
v 1 17 -0
v 2 17 -0
v 3 17 -0
v -2 17 -1
v -1 17 -1
v 0 17 -1
v 1 17 -1
v 2 17 -1
v -2 17 -2
v -1 17 -2
v 0 17 -2
v 2 17 -2
v 3 17 -2
v -1 17 -5
v 0 17 -5
v 1 17 -5
v 2 17 -5
v -1 17 -6
v 0 17 -6
v 1 17 -6
v 2 17 -6
v 0 18 -0
v 1 18 -0
v 0 18 -1
v 1 18 -1

# faces
f 6/6/1 2/6/1 1/6/1
f 7/6/1 2/6/1 6/6/1
f 8/6/1 4/6/1 3/6/1
f 9/6/1 4/6/1 8/6/1
f 11/5/1 7/5/1 6/5/1
f 11/5/1 6/5/1 5/5/1
f 11/5/1 9/5/1 8/5/1
f 11/5/1 8/5/1 7/5/1
f 12/5/1 9/5/1 11/5/1
f 13/5/1 9/5/1 12/5/1
f 14/6/1 10/6/1 9/6/1
f 14/5/1 9/5/1 13/5/1
f 15/6/1 10/6/1 14/6/1
f 16/5/1 11/5/1 5/5/1
f 17/5/1 11/5/1 16/5/1
f 18/5/1 13/5/1 12/5/1
f 19/5/1 13/5/1 18/5/1
f 20/5/1 15/5/1 14/5/1
f 21/5/1 15/5/1 20/5/1
f 22/5/1 19/5/1 18/5/1
f 22/5/1 18/5/1 17/5/1
f 23/6/1 20/6/1 19/6/1
f 23/5/1 19/5/1 22/5/1
f 24/6/1 20/6/1 23/6/1
f 27/3/1 26/3/1 25/3/1
f 28/3/1 26/3/1 27/3/1
f 33/4/1 30/4/1 29/4/1
f 34/4/1 30/4/1 33/4/1
f 36/7/1 28/7/1 27/7/1
f 37/7/1 32/7/1 31/7/1
f 38/7/1 32/7/1 37/7/1
f 39/7/1 32/7/1 38/7/1
f 40/2/1 34/2/1 33/2/1
f 41/2/1 34/2/1 40/2/1
f 42/7/1 36/7/1 35/7/1
f 43/7/1 36/7/1 42/7/1
f 44/7/1 36/7/1 43/7/1
f 49/6/1 44/6/1 43/6/1
f 50/7/1 36/7/1 44/7/1
f 50/6/1 44/6/1 49/6/1
f 51/7/1 28/7/1 36/7/1
f 51/7/1 36/7/1 50/7/1
f 52/5/1 38/5/1 37/5/1
f 53/5/1 38/5/1 52/5/1
f 54/1/1 46/1/1 45/1/1
f 55/1/1 46/1/1 54/1/1
f 56/6/1 48/6/1 47/6/1
f 57/6/1 48/6/1 56/6/1
f 58/6/1 50/6/1 49/6/1
f 58/6/1 51/6/1 50/6/1
f 59/7/1 28/7/1 51/7/1
f 59/6/1 51/6/1 58/6/1
f 60/7/1 28/7/1 59/7/1
f 61/7/1 28/7/1 60/7/1
f 65/7/1 63/7/1 62/7/1
f 66/7/1 63/7/1 65/7/1
f 69/7/1 65/7/1 64/7/1
f 70/1/1 66/1/1 65/1/1
f 70/7/1 65/7/1 69/7/1
f 71/7/1 67/7/1 66/7/1
f 71/1/1 66/1/1 70/1/1
f 72/7/1 67/7/1 71/7/1
f 74/7/1 69/7/1 68/7/1
f 75/4/1 70/4/1 69/4/1
f 75/7/1 69/7/1 74/7/1
f 76/3/1 71/3/1 70/3/1
f 76/4/1 70/4/1 75/4/1
f 77/4/1 72/4/1 71/4/1
f 77/3/1 71/3/1 76/3/1
f 78/7/1 73/7/1 72/7/1
f 78/4/1 72/4/1 77/4/1
f 79/7/1 73/7/1 78/7/1
f 80/7/1 76/7/1 75/7/1
f 81/1/1 77/1/1 76/1/1
f 81/7/1 76/7/1 80/7/1
f 82/7/1 78/7/1 77/7/1
f 82/1/1 77/1/1 81/1/1
f 83/7/1 78/7/1 82/7/1
f 84/1/1 82/1/1 81/1/1
f 85/1/1 82/1/1 84/1/1
f 86/6/1 85/6/1 84/6/1
f 87/6/1 85/6/1 86/6/1
f 91/1/1 87/1/1 86/1/1
f 92/1/1 87/1/1 91/1/1
f 95/7/1 89/7/1 88/7/1
f 96/7/1 89/7/1 95/7/1
f 97/7/1 91/7/1 90/7/1
f 98/7/1 91/7/1 97/7/1
f 99/7/1 93/7/1 92/7/1
f 100/7/1 93/7/1 99/7/1
f 102/7/1 96/7/1 95/7/1
f 102/7/1 95/7/1 94/7/1
f 103/7/1 96/7/1 102/7/1
f 104/7/1 102/7/1 101/7/1
f 105/3/1 103/3/1 102/3/1
f 105/7/1 102/7/1 104/7/1
f 106/3/1 103/3/1 105/3/1
f 107/7/1 106/7/1 105/7/1
f 108/7/1 106/7/1 107/7/1
f 109/7/1 106/7/1 108/7/1
f 110/7/1 109/7/1 108/7/1
f 111/7/1 109/7/1 110/7/1
f 114/6/1 113/6/1 112/6/1
f 115/6/1 113/6/1 114/6/1
f 118/3/1 117/3/1 116/3/1
f 119/3/1 117/3/1 118/3/1
f 121/7/1 119/7/1 118/7/1
f 122/7/1 121/7/1 120/7/1
f 123/7/1 119/7/1 121/7/1
f 123/7/1 121/7/1 122/7/1
f 125/7/1 119/7/1 123/7/1
f 126/8/1 125/8/1 124/8/1
f 127/7/1 119/7/1 125/7/1
f 127/8/1 125/8/1 126/8/1
f 128/7/1 119/7/1 127/7/1
f 129/7/1 119/7/1 128/7/1
f 130/3/2 131/3/2 132/3/2
f 132/3/2 131/3/2 133/3/2
f 132/7/2 133/7/2 135/7/2
f 134/7/2 135/7/2 136/7/2
f 135/7/2 133/7/2 137/7/2
f 136/7/2 135/7/2 137/7/2
f 137/7/2 133/7/2 139/7/2
f 138/6/2 139/6/2 140/6/2
f 139/7/2 133/7/2 141/7/2
f 140/6/2 139/6/2 141/6/2
f 141/7/2 133/7/2 142/7/2
f 142/7/2 133/7/2 143/7/2
f 144/7/2 145/7/2 147/7/2
f 147/7/2 145/7/2 148/7/2
f 146/7/2 147/7/2 151/7/2
f 147/1/2 148/1/2 152/1/2
f 151/7/2 147/7/2 152/7/2
f 148/7/2 149/7/2 153/7/2
f 152/1/2 148/1/2 153/1/2
f 153/7/2 149/7/2 154/7/2
f 150/7/2 151/7/2 156/7/2
f 151/4/2 152/4/2 157/4/2
f 156/7/2 151/7/2 157/7/2
f 152/3/2 153/3/2 158/3/2
f 157/4/2 152/4/2 158/4/2
f 153/4/2 154/4/2 159/4/2
f 158/3/2 153/3/2 159/3/2
f 154/7/2 155/7/2 160/7/2
f 159/4/2 154/4/2 160/4/2
f 160/7/2 155/7/2 161/7/2
f 157/7/2 158/7/2 162/7/2
f 158/1/2 159/1/2 163/1/2
f 162/7/2 158/7/2 163/7/2
f 159/7/2 160/7/2 164/7/2
f 163/1/2 159/1/2 164/1/2
f 164/7/2 160/7/2 165/7/2
f 163/1/2 164/1/2 166/1/2
f 166/1/2 164/1/2 167/1/2
f 166/6/2 167/6/2 168/6/2
f 168/6/2 167/6/2 169/6/2
f 168/1/2 169/1/2 173/1/2
f 173/1/2 169/1/2 174/1/2
f 170/7/2 171/7/2 177/7/2
f 177/7/2 171/7/2 178/7/2
f 172/7/2 173/7/2 179/7/2
f 179/7/2 173/7/2 180/7/2
f 174/7/2 175/7/2 181/7/2
f 181/7/2 175/7/2 182/7/2
f 177/7/2 178/7/2 184/7/2
f 176/7/2 177/7/2 184/7/2
f 184/7/2 178/7/2 185/7/2
f 183/7/2 184/7/2 186/7/2
f 184/3/2 185/3/2 187/3/2
f 186/7/2 184/7/2 187/7/2
f 187/3/2 185/3/2 188/3/2
f 187/7/2 188/7/2 189/7/2
f 189/7/2 188/7/2 190/7/2
f 190/7/2 188/7/2 191/7/2
f 190/7/2 191/7/2 192/7/2
f 192/7/2 191/7/2 193/7/2
f 194/6/2 195/6/2 196/6/2
f 196/6/2 195/6/2 197/6/2
f 198/3/2 199/3/2 200/3/2
f 200/3/2 199/3/2 201/3/2
f 202/4/2 203/4/2 206/4/2
f 206/4/2 203/4/2 207/4/2
f 200/7/2 201/7/2 210/7/2
f 204/7/2 205/7/2 211/7/2
f 211/7/2 205/7/2 212/7/2
f 206/4/2 207/4/2 213/4/2
f 213/4/2 207/4/2 214/4/2
f 208/8/2 209/8/2 215/8/2
f 209/7/2 210/7/2 216/7/2
f 215/8/2 209/8/2 216/8/2
f 210/7/2 201/7/2 217/7/2
f 216/7/2 210/7/2 217/7/2
f 204/7/2 211/7/2 218/7/2
f 218/7/2 211/7/2 219/7/2
f 216/8/2 217/8/2 224/8/2
f 224/8/2 217/8/2 225/8/2
f 218/6/2 219/6/2 226/6/2
f 226/6/2 219/6/2 227/6/2
f 220/1/2 221/1/2 228/1/2
f 228/1/2 221/1/2 229/1/2
f 222/1/2 223/1/2 230/1/2
f 230/1/2 223/1/2 231/1/2
f 224/6/2 225/6/2 232/6/2
f 225/8/2 217/8/2 233/8/2
f 232/6/2 225/6/2 233/6/2
f 217/7/2 201/7/2 234/7/2
f 233/8/2 217/8/2 234/8/2
f 234/7/2 201/7/2 235/7/2
f 235/7/2 201/7/2 236/7/2
f 237/7/2 238/7/2 242/7/2
f 242/7/2 238/7/2 243/7/2
f 239/7/2 240/7/2 244/7/2
f 244/7/2 240/7/2 245/7/2
f 241/7/2 242/7/2 247/7/2
f 242/8/2 243/8/2 248/8/2
f 247/7/2 242/7/2 248/7/2
f 243/8/2 244/8/2 248/8/2
f 248/8/2 244/8/2 249/8/2
f 244/6/2 245/6/2 250/6/2
f 249/8/2 244/8/2 250/8/2
f 245/8/2 246/8/2 251/8/2
f 250/6/2 245/6/2 251/6/2
f 251/8/2 246/8/2 252/8/2
f 247/6/2 248/6/2 253/6/2
f 253/6/2 248/6/2 254/6/2
f 249/6/2 250/6/2 255/6/2
f 255/6/2 250/6/2 256/6/2
f 251/6/2 252/6/2 257/6/2
f 257/6/2 252/6/2 258/6/2
f 254/6/2 255/6/2 259/6/2
f 255/8/2 256/8/2 260/8/2
f 259/6/2 255/6/2 260/6/2
f 256/8/2 257/8/2 260/8/2
f 260/8/2 257/8/2 261/8/2
f 264/7/3 263/7/3 262/7/3
f 265/7/3 263/7/3 264/7/3
f 270/7/3 267/7/3 266/7/3
f 271/7/3 267/7/3 270/7/3
f 272/7/3 269/7/3 268/7/3
f 273/7/3 269/7/3 272/7/3
f 278/7/3 275/7/3 274/7/3
f 279/7/3 275/7/3 278/7/3
f 280/7/3 277/7/3 276/7/3
f 281/7/3 277/7/3 280/7/3
f 285/7/3 283/7/3 282/7/3
f 286/5/3 284/5/3 283/5/3
f 286/7/3 283/7/3 285/7/3
f 287/5/3 284/5/3 286/5/3
f 288/5/3 284/5/3 287/5/3
f 293/7/3 290/7/3 289/7/3
f 293/7/3 291/7/3 290/7/3
f 294/6/3 292/6/3 291/6/3
f 294/7/3 291/7/3 293/7/3
f 295/6/3 292/6/3 294/6/3
f 298/5/3 297/5/3 296/5/3
f 299/5/3 297/5/3 298/5/3
f 302/7/3 301/7/3 300/7/3
f 303/7/3 301/7/3 302/7/3
f 307/7/3 305/7/3 304/7/3
f 308/6/3 306/6/3 305/6/3
f 308/7/3 305/7/3 307/7/3
f 309/6/3 306/6/3 308/6/3
f 314/6/3 311/6/3 310/6/3
f 315/6/3 311/6/3 314/6/3
f 316/5/3 313/5/3 312/5/3
f 317/5/3 313/5/3 316/5/3
f 324/7/3 319/7/3 318/7/3
f 325/7/3 319/7/3 324/7/3
f 326/7/3 321/7/3 320/7/3
f 327/7/3 321/7/3 326/7/3
f 328/7/3 323/7/3 322/7/3
f 329/7/3 323/7/3 328/7/3
f 332/7/3 331/7/3 330/7/3
f 333/7/3 331/7/3 332/7/3
f 334/6/3 317/6/3 316/6/3
f 335/6/3 317/6/3 334/6/3
f 340/5/3 337/5/3 336/5/3
f 341/5/3 337/5/3 340/5/3
f 347/4/3 339/4/3 338/4/3
f 348/4/3 339/4/3 347/4/3
f 351/7/3 343/7/3 342/7/3
f 352/7/3 343/7/3 351/7/3
f 353/1/3 345/1/3 344/1/3
f 354/6/3 346/6/3 345/6/3
f 354/1/3 345/1/3 353/1/3
f 355/1/3 347/1/3 346/1/3
f 355/6/3 346/6/3 354/6/3
f 356/1/3 347/1/3 355/1/3
f 358/6/3 350/6/3 349/6/3
f 359/6/3 350/6/3 358/6/3
f 360/4/3 357/4/3 356/4/3
f 361/4/3 357/4/3 360/4/3
f 364/6/3 363/6/3 362/6/3
f 365/6/3 363/6/3 364/6/3
f 368/6/3 367/6/3 366/6/3
f 369/6/3 367/6/3 368/6/3
f 372/7/3 371/7/3 370/7/3
f 373/7/3 371/7/3 372/7/3
f 376/5/3 375/5/3 374/5/3
f 377/5/3 375/5/3 376/5/3
f 380/6/3 379/6/3 378/6/3
f 381/6/3 379/6/3 380/6/3
f 387/3/3 383/3/3 382/3/3
f 388/7/3 384/7/3 383/7/3
f 388/3/3 383/3/3 387/3/3
f 389/7/3 384/7/3 388/7/3
f 390/7/3 386/7/3 385/7/3
f 391/7/3 386/7/3 390/7/3
f 397/3/3 393/3/3 392/3/3
f 398/7/3 394/7/3 393/7/3
f 398/3/3 393/3/3 397/3/3
f 399/7/3 394/7/3 398/7/3
f 400/7/3 396/7/3 395/7/3
f 401/7/3 396/7/3 400/7/3
f 402/7/4 403/7/4 406/7/4
f 406/7/4 403/7/4 407/7/4
f 404/7/4 405/7/4 408/7/4
f 408/7/4 405/7/4 409/7/4
f 410/5/4 411/5/4 412/5/4
f 412/5/4 411/5/4 413/5/4
f 414/6/4 415/6/4 416/6/4
f 416/6/4 415/6/4 417/6/4
f 418/6/4 419/6/4 420/6/4
f 420/6/4 419/6/4 421/6/4
f 422/7/4 423/7/4 424/7/4
f 424/7/4 423/7/4 425/7/4
f 426/5/4 427/5/4 430/5/4
f 430/5/4 427/5/4 431/5/4
f 428/4/4 429/4/4 437/4/4
f 437/4/4 429/4/4 438/4/4
f 432/7/4 433/7/4 441/7/4
f 441/7/4 433/7/4 442/7/4
f 434/1/4 435/1/4 443/1/4
f 435/6/4 436/6/4 444/6/4
f 443/1/4 435/1/4 444/1/4
f 436/1/4 437/1/4 445/1/4
f 444/6/4 436/6/4 445/6/4
f 445/1/4 437/1/4 446/1/4
f 439/6/4 440/6/4 448/6/4
f 448/6/4 440/6/4 449/6/4
f 446/4/4 447/4/4 450/4/4
f 450/4/4 447/4/4 451/4/4
f 452/6/4 453/6/4 454/6/4
f 454/6/4 453/6/4 455/6/4
f 456/6/4 457/6/4 460/6/4
f 460/6/4 457/6/4 461/6/4
f 458/6/4 459/6/4 462/6/4
f 462/6/4 459/6/4 463/6/4
f 462/5/4 463/5/4 470/5/4
f 470/5/4 463/5/4 471/5/4
f 464/7/4 465/7/4 472/7/4
f 472/7/4 465/7/4 473/7/4
f 466/7/4 467/7/4 474/7/4
f 474/7/4 467/7/4 475/7/4
f 468/7/4 469/7/4 476/7/4
f 476/7/4 469/7/4 477/7/4
f 470/6/4 471/6/4 478/6/4
f 478/6/4 471/6/4 481/6/4
f 481/6/4 471/6/4 482/6/4
f 479/7/4 480/7/4 483/7/4
f 483/7/4 480/7/4 484/7/4
f 481/8/4 482/8/4 485/8/4
f 485/8/4 482/8/4 486/8/4
f 487/6/4 488/6/4 490/6/4
f 488/5/4 489/5/4 491/5/4
f 490/6/4 488/6/4 491/6/4
f 491/5/4 489/5/4 492/5/4
f 493/7/4 494/7/4 495/7/4
f 495/7/4 494/7/4 496/7/4
f 497/8/4 498/8/4 500/8/4
f 498/6/4 499/6/4 501/6/4
f 500/8/4 498/8/4 501/8/4
f 501/6/4 499/6/4 502/6/4
f 503/4/4 504/4/4 507/4/4
f 507/4/4 504/4/4 508/4/4
f 505/4/4 506/4/4 509/4/4
f 509/4/4 506/4/4 510/4/4
f 511/3/4 512/3/4 513/3/4
f 513/3/4 512/3/4 514/3/4
f 515/3/4 516/3/4 518/3/4
f 516/7/4 517/7/4 519/7/4
f 518/3/4 516/3/4 519/3/4
f 519/7/4 517/7/4 520/7/4
f 521/3/4 522/3/4 524/3/4
f 522/7/4 523/7/4 525/7/4
f 524/3/4 522/3/4 525/3/4
f 525/7/4 523/7/4 526/7/4
f 529/7/5 528/7/5 527/7/5
f 530/7/5 528/7/5 529/7/5
f 533/7/5 532/7/5 531/7/5
f 534/7/5 532/7/5 533/7/5
f 537/7/5 536/7/5 535/7/5
f 538/7/5 536/7/5 537/7/5
f 541/7/5 540/7/5 539/7/5
f 542/7/5 540/7/5 541/7/5
f 545/7/5 544/7/5 543/7/5
f 546/7/5 544/7/5 545/7/5
f 551/3/5 548/3/5 547/3/5
f 552/3/5 548/3/5 551/3/5
f 553/3/5 550/3/5 549/3/5
f 554/3/5 550/3/5 553/3/5
f 557/7/5 556/7/5 555/7/5
f 558/7/5 556/7/5 557/7/5
f 562/7/5 560/7/5 559/7/5
f 563/7/5 560/7/5 562/7/5
f 565/4/5 562/4/5 561/4/5
f 566/4/5 562/4/5 565/4/5
f 567/4/5 564/4/5 563/4/5
f 568/4/5 564/4/5 567/4/5
f 569/7/5 567/7/5 566/7/5
f 570/7/5 567/7/5 569/7/5
f 573/7/5 572/7/5 571/7/5
f 574/7/5 572/7/5 573/7/5
f 580/7/5 576/7/5 575/7/5
f 581/4/5 577/4/5 576/4/5
f 581/7/5 576/7/5 580/7/5
f 582/7/5 578/7/5 577/7/5
f 582/4/5 577/4/5 581/4/5
f 583/7/5 578/7/5 582/7/5
f 585/6/5 580/6/5 579/6/5
f 586/7/5 581/7/5 580/7/5
f 586/6/5 580/6/5 585/6/5
f 587/7/5 581/7/5 586/7/5
f 588/7/5 584/7/5 583/7/5
f 588/7/5 583/7/5 582/7/5
f 589/7/5 584/7/5 588/7/5
f 590/7/5 584/7/5 589/7/5
f 597/6/5 592/6/5 591/6/5
f 598/7/5 593/7/5 592/7/5
f 598/6/5 592/6/5 597/6/5
f 599/7/5 593/7/5 598/7/5
f 600/7/5 596/7/5 595/7/5
f 600/7/5 595/7/5 594/7/5
f 601/7/5 596/7/5 600/7/5
f 602/7/5 596/7/5 601/7/5
f 603/4/5 600/4/5 599/4/5
f 603/8/5 601/8/5 600/8/5
f 604/8/5 601/8/5 603/8/5
f 605/7/5 599/7/5 598/7/5
f 605/4/5 603/4/5 599/4/5
f 606/7/5 604/7/5 603/7/5
f 606/4/5 603/4/5 605/4/5
f 607/7/5 605/7/5 598/7/5
f 608/7/5 605/7/5 607/7/5
f 609/7/5 604/7/5 606/7/5
f 610/7/5 604/7/5 609/7/5
f 613/7/5 612/7/5 611/7/5
f 614/7/5 612/7/5 613/7/5
f 619/5/5 616/5/5 615/5/5
f 620/5/5 616/5/5 619/5/5
f 621/7/5 618/7/5 617/7/5
f 622/7/5 618/7/5 621/7/5
f 627/5/5 624/5/5 623/5/5
f 628/5/5 624/5/5 627/5/5
f 629/8/5 626/8/5 625/8/5
f 630/8/5 626/8/5 629/8/5
f 635/6/5 632/6/5 631/6/5
f 636/6/5 632/6/5 635/6/5
f 637/8/5 634/8/5 633/8/5
f 638/8/5 634/8/5 637/8/5
f 641/3/5 640/3/5 639/3/5
f 642/3/5 640/3/5 641/3/5
f 647/5/5 644/5/5 643/5/5
f 648/5/5 644/5/5 647/5/5
f 649/6/5 646/6/5 645/6/5
f 650/6/5 646/6/5 649/6/5
f 655/6/5 652/6/5 651/6/5
f 656/6/5 652/6/5 655/6/5
f 657/8/5 654/8/5 653/8/5
f 658/8/5 654/8/5 657/8/5
f 659/7/6 660/7/6 661/7/6
f 661/7/6 660/7/6 662/7/6
f 663/7/6 664/7/6 665/7/6
f 665/7/6 664/7/6 666/7/6
f 667/7/6 668/7/6 669/7/6
f 669/7/6 668/7/6 670/7/6
f 671/7/6 672/7/6 673/7/6
f 673/7/6 672/7/6 674/7/6
f 675/7/6 676/7/6 677/7/6
f 677/7/6 676/7/6 678/7/6
f 679/5/6 680/5/6 683/5/6
f 683/5/6 680/5/6 684/5/6
f 681/8/6 682/8/6 685/8/6
f 685/8/6 682/8/6 686/8/6
f 687/5/6 688/5/6 691/5/6
f 691/5/6 688/5/6 692/5/6
f 689/6/6 690/6/6 693/6/6
f 693/6/6 690/6/6 694/6/6
f 695/3/6 696/3/6 697/3/6
f 697/3/6 696/3/6 698/3/6
f 699/7/6 700/7/6 701/7/6
f 701/7/6 700/7/6 702/7/6
f 703/5/6 704/5/6 708/5/6
f 704/6/6 705/6/6 709/6/6
f 705/6/6 706/6/6 709/6/6
f 708/5/6 704/5/6 709/5/6
f 709/6/6 706/6/6 710/6/6
f 707/5/6 708/5/6 712/5/6
f 710/6/6 711/6/6 713/6/6
f 712/5/6 708/5/6 713/5/6
f 708/6/6 709/6/6 713/6/6
f 709/6/6 710/6/6 713/6/6
f 713/6/6 711/6/6 714/6/6
f 715/5/6 716/5/6 721/5/6
f 716/5/6 717/5/6 721/5/6
f 721/5/6 717/5/6 722/5/6
f 717/4/6 718/4/6 723/4/6
f 722/5/6 717/5/6 723/5/6
f 719/6/6 720/6/6 724/6/6
f 718/6/6 719/6/6 724/6/6
f 724/6/6 720/6/6 725/6/6
f 723/4/6 718/4/6 726/4/6
f 722/6/6 723/6/6 726/6/6
f 718/6/6 724/6/6 727/6/6
f 726/4/6 718/4/6 727/4/6
f 727/6/6 724/6/6 728/6/6
f 722/6/6 726/6/6 729/6/6
f 729/6/6 726/6/6 730/6/6
f 727/8/6 728/8/6 731/8/6
f 731/8/6 728/8/6 732/8/6
f 733/7/6 734/7/6 735/7/6
f 735/7/6 734/7/6 736/7/6
f 738/6/6 739/6/6 740/6/6
f 740/6/6 739/6/6 741/6/6
f 741/6/6 739/6/6 742/6/6
f 742/6/6 739/6/6 743/6/6
f 737/5/6 738/5/6 744/5/6
f 738/6/6 740/6/6 745/6/6
f 744/5/6 738/5/6 745/5/6
f 745/6/6 740/6/6 746/6/6
f 741/4/6 742/4/6 747/4/6
f 742/8/6 743/8/6 748/8/6
f 747/4/6 742/4/6 748/4/6
f 744/6/6 745/6/6 749/6/6
f 745/5/6 746/5/6 750/5/6
f 749/6/6 745/6/6 750/6/6
f 746/6/6 747/6/6 751/6/6
f 750/5/6 746/5/6 751/5/6
f 747/6/6 748/6/6 751/6/6
f 748/8/6 743/8/6 752/8/6
f 751/6/6 748/6/6 752/6/6
f 752/8/6 743/8/6 753/8/6
f 754/7/6 755/7/6 758/7/6
f 758/7/6 755/7/6 759/7/6
f 756/7/6 757/7/6 760/7/6
f 760/7/6 757/7/6 761/7/6
f 762/6/6 763/6/6 764/6/6
f 764/6/6 763/6/6 765/6/6
