# MagicaVoxel @ Ephtracy

# material
mtllib Grenade Launcher.mtl
usemtl palette

# normals
vn -1 0 0
vn 1 0 0
vn 0 0 1
vn 0 0 -1
vn 0 -1 0
vn 0 1 0

# texcoords
vt 0.693359 0.5
vt 0.755859 0.5
vt 0.771484 0.5
vt 0.775391 0.5
vt 0.912109 0.5
vt 0.919922 0.5
vt 0.923828 0.5
vt 0.931641 0.5
vt 0.935547 0.5
vt 0.951172 0.5
vt 0.958984 0.5

# verts
v -8 0 0.5
v -8 0 -0.5
v -8 5 0.5
v -8 5 -0.5
v -5 1 0.5
v -5 1 -0.5
v -5 2 0.5
v -5 2 -0.5
v -4 2 0.5
v -4 2 -0.5
v -4 3 0.5
v -4 3 -0.5
v -4 4 0.5
v -4 4 -0.5
v -3 5 0.5
v -3 5 -0.5
v -3 6 0.5
v -3 6 -0.5
v -2 0 0.5
v -2 0 -0.5
v -2 1 0.5
v -2 1 -0.5
v -2 2 0.5
v -2 2 -0.5
v -2 3 1.5
v -2 3 0.5
v -2 3 -0.5
v -2 3 -1.5
v -2 4 1.5
v -2 4 0.5
v -2 4 -0.5
v -2 4 -1.5
v -2 5 1.5
v -2 5 0.5
v -2 5 -0.5
v -2 5 -1.5
v -1 1 1.5
v -1 1 0.5
v -1 1 -0.5
v -1 1 -1.5
v -1 3 1.5
v -1 3 0.5
v -1 3 -0.5
v -1 3 -1.5
v 3 0 0.5
v 3 0 -0.5
v 3 1 0.5
v 3 1 -0.5
v 4 5 0.5
v 4 5 -0.5
v 4 6 0.5
v 4 6 -0.5
v -7 1 0.5
v -7 1 -0.5
v -7 3 0.5
v -7 3 -0.5
v -6 3 0.5
v -6 3 -0.5
v -6 4 0.5
v -6 4 -0.5
v -4 0 0.5
v -4 0 -0.5
v -4 1 0.5
v -4 1 -0.5
v -3 2 0.5
v -3 2 -0.5
v -3 3 0.5
v -3 3 -0.5
v -1 5 0.5
v -1 5 -0.5
v -1 6 0.5
v -1 6 -0.5
v 0 0 0.5
v 0 0 -0.5
v 0 1 0.5
v 0 1 -0.5
v 4 1 1.5
v 4 1 0.5
v 4 1 -0.5
v 4 1 -1.5
v 4 2 1.5
v 4 2 0.5
v 4 2 -0.5
v 4 2 -1.5
v 6 3 0.5
v 6 3 -0.5
v 6 4 0.5
v 6 4 -0.5
v 7 5 0.5
v 7 5 -0.5
v 7 6 0.5
v 7 6 -0.5
v 8 0 0.5
v 8 0 -0.5
v 8 1 0.5
v 8 1 -0.5
v 8 2 1.5
v 8 2 0.5
v 8 2 -0.5
v 8 2 -1.5
v 8 3 0.5
v 8 3 -0.5
v 8 4 0.5
v 8 4 -0.5
v 8 5 1.5
v 8 5 -1.5
v -2 3 1.5
v -2 4 1.5
v -2 5 1.5
v -1 1 1.5
v -1 3 1.5
v -1 4 1.5
v 0 1 1.5
v 0 3 1.5
v 0 4 1.5
v 0 5 1.5
v 3 1 1.5
v 3 3 1.5
v 4 1 1.5
v 4 2 1.5
v 4 3 1.5
v 4 4 1.5
v 4 5 1.5
v 5 3 1.5
v 5 5 1.5
v 7 2 1.5
v 7 5 1.5
v 8 2 1.5
v 8 5 1.5
v -8 0 0.5
v -8 5 0.5
v -7 1 0.5
v -7 3 0.5
v -6 0 0.5
v -6 1 0.5
v -6 3 0.5
v -6 4 0.5
v -5 1 0.5
v -5 2 0.5
v -5 4 0.5
v -5 5 0.5
v -4 0 0.5
v -4 1 0.5
v -4 2 0.5
v -4 3 0.5
v -4 4 0.5
v -3 2 0.5
v -3 3 0.5
v -3 4 0.5
v -3 5 0.5
v -3 6 0.5
v -2 0 0.5
v -2 1 0.5
v -2 2 0.5
v -2 3 0.5
v -2 4 0.5
v -2 5 0.5
v -2 6 0.5
v -1 1 0.5
v -1 3 0.5
v -1 5 0.5
v -1 6 0.5
v 0 0 0.5
v 0 1 0.5
v 3 0 0.5
v 3 1 0.5
v 4 1 0.5
v 4 2 0.5
v 4 5 0.5
v 4 6 0.5
v 5 1 0.5
v 5 2 0.5
v 5 5 0.5
v 5 6 0.5
v 6 1 0.5
v 6 2 0.5
v 7 2 0.5
v 7 5 0.5
v 7 6 0.5
v 8 0 0.5
v 8 1 0.5
v 8 2 0.5
v 6 3 -0.5
v 6 4 -0.5
v 7 3 -0.5
v 7 4 -0.5
v 8 3 -0.5
v 8 4 -0.5
v 6 3 0.5
v 6 4 0.5
v 7 3 0.5
v 7 4 0.5
v 8 3 0.5
v 8 4 0.5
v -8 0 -0.5
v -8 5 -0.5
v -7 1 -0.5
v -7 3 -0.5
v -6 0 -0.5
v -6 1 -0.5
v -6 3 -0.5
v -6 4 -0.5
v -5 1 -0.5
v -5 2 -0.5
v -5 4 -0.5
v -5 5 -0.5
v -4 0 -0.5
v -4 1 -0.5
v -4 2 -0.5
v -4 3 -0.5
v -4 4 -0.5
v -3 2 -0.5
v -3 3 -0.5
v -3 4 -0.5
v -3 5 -0.5
v -3 6 -0.5
v -2 0 -0.5
v -2 1 -0.5
v -2 2 -0.5
v -2 3 -0.5
v -2 4 -0.5
v -2 5 -0.5
v -2 6 -0.5
v -1 1 -0.5
v -1 3 -0.5
v -1 5 -0.5
v -1 6 -0.5
v 0 0 -0.5
v 0 1 -0.5
v 3 0 -0.5
v 3 1 -0.5
v 4 1 -0.5
v 4 2 -0.5
v 4 5 -0.5
v 4 6 -0.5
v 5 1 -0.5
v 5 2 -0.5
v 5 5 -0.5
v 5 6 -0.5
v 6 1 -0.5
v 6 2 -0.5
v 7 2 -0.5
v 7 5 -0.5
v 7 6 -0.5
v 8 0 -0.5
v 8 1 -0.5
v 8 2 -0.5
v -2 3 -1.5
v -2 4 -1.5
v -2 5 -1.5
v -1 1 -1.5
v -1 3 -1.5
v -1 4 -1.5
v 0 1 -1.5
v 0 3 -1.5
v 0 4 -1.5
v 0 5 -1.5
v 3 1 -1.5
v 3 3 -1.5
v 4 1 -1.5
v 4 2 -1.5
v 4 3 -1.5
v 4 4 -1.5
v 4 5 -1.5
v 5 3 -1.5
v 5 5 -1.5
v 7 2 -1.5
v 7 5 -1.5
v 8 2 -1.5
v 8 5 -1.5
v -8 0 0.5
v -6 0 0.5
v -4 0 0.5
v -2 0 0.5
v 0 0 0.5
v 3 0 0.5
v 8 0 0.5
v -8 0 -0.5
v -6 0 -0.5
v -4 0 -0.5
v -2 0 -0.5
v 0 0 -0.5
v 3 0 -0.5
v 8 0 -0.5
v -1 1 1.5
v 0 1 1.5
v 3 1 1.5
v 4 1 1.5
v -4 1 0.5
v -2 1 0.5
v -1 1 0.5
v 0 1 0.5
v 3 1 0.5
v 4 1 0.5
v -4 1 -0.5
v -2 1 -0.5
v -1 1 -0.5
v 0 1 -0.5
v 3 1 -0.5
v 4 1 -0.5
v -1 1 -1.5
v 0 1 -1.5
v 3 1 -1.5
v 4 1 -1.5
v 4 2 1.5
v 7 2 1.5
v 8 2 1.5
v 4 2 0.5
v 5 2 0.5
v 6 2 0.5
v 7 2 0.5
v 8 2 0.5
v 4 2 -0.5
v 5 2 -0.5
v 6 2 -0.5
v 7 2 -0.5
v 8 2 -0.5
v 4 2 -1.5
v 7 2 -1.5
v 8 2 -1.5
v -2 3 1.5
v -1 3 1.5
v -7 3 0.5
v -6 3 0.5
v -3 3 0.5
v -2 3 0.5
v -1 3 0.5
v -7 3 -0.5
v -6 3 -0.5
v -3 3 -0.5
v -2 3 -0.5
v -1 3 -0.5
v -2 3 -1.5
v -1 3 -1.5
v -6 4 0.5
v -5 4 0.5
v -4 4 0.5
v 6 4 0.5
v 7 4 0.5
v 8 4 0.5
v -6 4 -0.5
v -5 4 -0.5
v -4 4 -0.5
v 6 4 -0.5
v 7 4 -0.5
v 8 4 -0.5
v -7 1 0.5
v -6 1 0.5
v -5 1 0.5
v -7 1 -0.5
v -6 1 -0.5
v -5 1 -0.5
v -5 2 0.5
v -4 2 0.5
v -3 2 0.5
v -2 2 0.5
v -5 2 -0.5
v -4 2 -0.5
v -3 2 -0.5
v -2 2 -0.5
v 6 3 0.5
v 7 3 0.5
v 8 3 0.5
v 6 3 -0.5
v 7 3 -0.5
v 8 3 -0.5
v -2 5 1.5
v 0 5 1.5
v 4 5 1.5
v 5 5 1.5
v 7 5 1.5
v 8 5 1.5
v -8 5 0.5
v -5 5 0.5
v -3 5 0.5
v -2 5 0.5
v -1 5 0.5
v 0 5 0.5
v 4 5 0.5
v 5 5 0.5
v 7 5 0.5
v -8 5 -0.5
v -5 5 -0.5
v -3 5 -0.5
v -2 5 -0.5
v -1 5 -0.5
v 0 5 -0.5
v 4 5 -0.5
v 5 5 -0.5
v 7 5 -0.5
v -2 5 -1.5
v 0 5 -1.5
v 4 5 -1.5
v 5 5 -1.5
v 7 5 -1.5
v 8 5 -1.5
v -3 6 0.5
v -2 6 0.5
v -1 6 0.5
v 4 6 0.5
v 5 6 0.5
v 7 6 0.5
v -3 6 -0.5
v -2 6 -0.5
v -1 6 -0.5
v 4 6 -0.5
v 5 6 -0.5
v 7 6 -0.5

# faces
f 3/11/1 2/11/1 1/11/1
f 4/11/1 2/11/1 3/11/1
f 7/8/1 6/8/1 5/8/1
f 8/8/1 6/8/1 7/8/1
f 11/8/1 10/8/1 9/8/1
f 12/8/1 10/8/1 11/8/1
f 13/3/1 12/3/1 11/3/1
f 14/3/1 12/3/1 13/3/1
f 17/5/1 16/5/1 15/5/1
f 18/5/1 16/5/1 17/5/1
f 21/9/1 20/9/1 19/9/1
f 22/9/1 20/9/1 21/9/1
f 26/10/1 24/10/1 23/10/1
f 27/10/1 24/10/1 26/10/1
f 29/10/1 26/10/1 25/10/1
f 30/10/1 26/10/1 29/10/1
f 31/10/1 28/10/1 27/10/1
f 32/10/1 28/10/1 31/10/1
f 33/4/1 30/4/1 29/4/1
f 34/4/1 30/4/1 33/4/1
f 35/4/1 32/4/1 31/4/1
f 36/4/1 32/4/1 35/4/1
f 41/7/1 38/7/1 37/7/1
f 42/7/1 38/7/1 41/7/1
f 43/7/1 40/7/1 39/7/1
f 44/7/1 40/7/1 43/7/1
f 47/9/1 46/9/1 45/9/1
f 48/9/1 46/9/1 47/9/1
f 51/2/1 50/2/1 49/2/1
f 52/2/1 50/2/1 51/2/1
f 53/11/2 54/11/2 55/11/2
f 55/11/2 54/11/2 56/11/2
f 57/11/2 58/11/2 59/11/2
f 59/11/2 58/11/2 60/11/2
f 61/8/2 62/8/2 63/8/2
f 63/8/2 62/8/2 64/8/2
f 65/8/2 66/8/2 67/8/2
f 67/8/2 66/8/2 68/8/2
f 69/2/2 70/2/2 71/2/2
f 71/2/2 70/2/2 72/2/2
f 73/9/2 74/9/2 75/9/2
f 75/9/2 74/9/2 76/9/2
f 77/7/2 78/7/2 81/7/2
f 81/7/2 78/7/2 82/7/2
f 79/7/2 80/7/2 83/7/2
f 83/7/2 80/7/2 84/7/2
f 85/2/2 86/2/2 87/2/2
f 87/2/2 86/2/2 88/2/2
f 89/5/2 90/5/2 91/5/2
f 91/5/2 90/5/2 92/5/2
f 93/9/2 94/9/2 95/9/2
f 95/9/2 94/9/2 96/9/2
f 95/4/2 96/4/2 98/4/2
f 98/4/2 96/4/2 99/4/2
f 98/4/2 99/4/2 101/4/2
f 99/4/2 100/4/2 101/4/2
f 97/4/2 98/4/2 101/4/2
f 101/4/2 100/4/2 102/4/2
f 97/4/2 101/4/2 103/4/2
f 102/4/2 100/4/2 104/4/2
f 97/4/2 103/4/2 105/4/2
f 103/4/2 104/4/2 105/4/2
f 104/4/2 100/4/2 106/4/2
f 105/4/2 104/4/2 106/4/2
f 111/10/3 108/10/3 107/10/3
f 112/4/3 109/4/3 108/4/3
f 112/10/3 108/10/3 111/10/3
f 113/7/3 111/7/3 110/7/3
f 114/4/3 112/4/3 111/4/3
f 114/7/3 111/7/3 113/7/3
f 115/4/3 109/4/3 112/4/3
f 115/4/3 112/4/3 114/4/3
f 116/4/3 109/4/3 115/4/3
f 117/2/3 114/2/3 113/2/3
f 118/4/3 115/4/3 114/4/3
f 118/2/3 114/2/3 117/2/3
f 119/7/3 118/7/3 117/7/3
f 120/7/3 118/7/3 119/7/3
f 121/4/3 115/4/3 118/4/3
f 121/7/3 118/7/3 120/7/3
f 122/11/3 116/11/3 115/11/3
f 122/4/3 115/4/3 121/4/3
f 123/11/3 116/11/3 122/11/3
f 124/5/3 121/5/3 120/5/3
f 124/4/3 123/4/3 122/4/3
f 124/4/3 122/4/3 121/4/3
f 125/4/3 123/4/3 124/4/3
f 126/5/3 124/5/3 120/5/3
f 126/5/3 125/5/3 124/5/3
f 127/5/3 125/5/3 126/5/3
f 128/4/3 127/4/3 126/4/3
f 129/4/3 127/4/3 128/4/3
f 132/11/3 131/11/3 130/11/3
f 133/11/3 131/11/3 132/11/3
f 134/11/3 132/11/3 130/11/3
f 135/11/3 132/11/3 134/11/3
f 136/11/3 131/11/3 133/11/3
f 137/11/3 131/11/3 136/11/3
f 138/8/3 135/8/3 134/8/3
f 140/11/3 131/11/3 137/11/3
f 141/11/3 131/11/3 140/11/3
f 142/8/3 139/8/3 138/8/3
f 142/8/3 138/8/3 134/8/3
f 143/8/3 139/8/3 142/8/3
f 144/8/3 139/8/3 143/8/3
f 146/3/3 141/3/3 140/3/3
f 147/8/3 145/8/3 144/8/3
f 147/8/3 144/8/3 143/8/3
f 148/3/3 146/3/3 145/3/3
f 148/8/3 145/8/3 147/8/3
f 149/3/3 141/3/3 146/3/3
f 149/3/3 146/3/3 148/3/3
f 150/3/3 141/3/3 149/3/3
f 153/8/3 147/8/3 143/8/3
f 154/8/3 147/8/3 153/8/3
f 155/2/3 149/2/3 148/2/3
f 156/6/3 150/6/3 149/6/3
f 156/2/3 149/2/3 155/2/3
f 157/5/3 151/5/3 150/5/3
f 157/6/3 150/6/3 156/6/3
f 158/5/3 151/5/3 157/5/3
f 159/10/3 155/10/3 154/10/3
f 159/10/3 154/10/3 153/10/3
f 159/9/3 153/9/3 152/9/3
f 160/10/3 155/10/3 159/10/3
f 161/2/3 158/2/3 157/2/3
f 162/2/3 158/2/3 161/2/3
f 163/9/3 159/9/3 152/9/3
f 164/9/3 159/9/3 163/9/3
f 167/9/3 166/9/3 165/9/3
f 171/9/3 167/9/3 165/9/3
f 171/9/3 168/9/3 167/9/3
f 172/9/3 168/9/3 171/9/3
f 173/2/3 170/2/3 169/2/3
f 174/2/3 170/2/3 173/2/3
f 175/5/3 172/5/3 171/5/3
f 175/9/3 171/9/3 165/9/3
f 176/5/3 172/5/3 175/5/3
f 177/4/3 176/4/3 175/4/3
f 178/5/3 174/5/3 173/5/3
f 179/5/3 174/5/3 178/5/3
f 180/9/3 175/9/3 165/9/3
f 181/4/3 177/4/3 175/4/3
f 181/9/3 175/9/3 180/9/3
f 182/4/3 177/4/3 181/4/3
f 185/5/3 184/5/3 183/5/3
f 186/5/3 184/5/3 185/5/3
f 187/4/3 186/4/3 185/4/3
f 188/4/3 186/4/3 187/4/3
f 189/5/4 190/5/4 191/5/4
f 191/5/4 190/5/4 192/5/4
f 191/4/4 192/4/4 193/4/4
f 193/4/4 192/4/4 194/4/4
f 195/11/4 196/11/4 197/11/4
f 197/11/4 196/11/4 198/11/4
f 195/11/4 197/11/4 199/11/4
f 199/11/4 197/11/4 200/11/4
f 198/11/4 196/11/4 201/11/4
f 201/11/4 196/11/4 202/11/4
f 199/8/4 200/8/4 203/8/4
f 202/11/4 196/11/4 205/11/4
f 205/11/4 196/11/4 206/11/4
f 203/8/4 204/8/4 207/8/4
f 199/8/4 203/8/4 207/8/4
f 207/8/4 204/8/4 208/8/4
f 208/8/4 204/8/4 209/8/4
f 205/3/4 206/3/4 211/3/4
f 209/8/4 210/8/4 212/8/4
f 208/8/4 209/8/4 212/8/4
f 210/3/4 211/3/4 213/3/4
f 212/8/4 210/8/4 213/8/4
f 211/3/4 206/3/4 214/3/4
f 213/3/4 211/3/4 214/3/4
f 214/3/4 206/3/4 215/3/4
f 208/8/4 212/8/4 218/8/4
f 218/8/4 212/8/4 219/8/4
f 213/2/4 214/2/4 220/2/4
f 214/6/4 215/6/4 221/6/4
f 220/2/4 214/2/4 221/2/4
f 215/5/4 216/5/4 222/5/4
f 221/6/4 215/6/4 222/6/4
f 222/5/4 216/5/4 223/5/4
f 219/10/4 220/10/4 224/10/4
f 218/10/4 219/10/4 224/10/4
f 217/9/4 218/9/4 224/9/4
f 224/10/4 220/10/4 225/10/4
f 222/2/4 223/2/4 226/2/4
f 226/2/4 223/2/4 227/2/4
f 217/9/4 224/9/4 228/9/4
f 228/9/4 224/9/4 229/9/4
f 230/9/4 231/9/4 232/9/4
f 230/9/4 232/9/4 236/9/4
f 232/9/4 233/9/4 236/9/4
f 236/9/4 233/9/4 237/9/4
f 234/2/4 235/2/4 238/2/4
f 238/2/4 235/2/4 239/2/4
f 236/5/4 237/5/4 240/5/4
f 230/9/4 236/9/4 240/9/4
f 240/5/4 237/5/4 241/5/4
f 240/4/4 241/4/4 242/4/4
f 238/5/4 239/5/4 243/5/4
f 243/5/4 239/5/4 244/5/4
f 230/9/4 240/9/4 245/9/4
f 240/4/4 242/4/4 246/4/4
f 245/9/4 240/9/4 246/9/4
f 246/4/4 242/4/4 247/4/4
f 248/10/4 249/10/4 252/10/4
f 249/4/4 250/4/4 253/4/4
f 252/10/4 249/10/4 253/10/4
f 251/7/4 252/7/4 254/7/4
f 252/4/4 253/4/4 255/4/4
f 254/7/4 252/7/4 255/7/4
f 253/4/4 250/4/4 256/4/4
f 255/4/4 253/4/4 256/4/4
f 256/4/4 250/4/4 257/4/4
f 254/2/4 255/2/4 258/2/4
f 255/4/4 256/4/4 259/4/4
f 258/2/4 255/2/4 259/2/4
f 258/7/4 259/7/4 260/7/4
f 260/7/4 259/7/4 261/7/4
f 259/4/4 256/4/4 262/4/4
f 261/7/4 259/7/4 262/7/4
f 256/11/4 257/11/4 263/11/4
f 262/4/4 256/4/4 263/4/4
f 263/11/4 257/11/4 264/11/4
f 261/5/4 262/5/4 265/5/4
f 263/4/4 264/4/4 265/4/4
f 262/4/4 263/4/4 265/4/4
f 265/4/4 264/4/4 266/4/4
f 261/5/4 265/5/4 267/5/4
f 265/5/4 266/5/4 267/5/4
f 267/5/4 266/5/4 268/5/4
f 267/4/4 268/4/4 269/4/4
f 269/4/4 268/4/4 270/4/4
f 278/11/5 272/11/5 271/11/5
f 279/8/5 273/8/5 272/8/5
f 279/11/5 272/11/5 278/11/5
f 280/8/5 273/8/5 279/8/5
f 281/9/5 275/9/5 274/9/5
f 282/9/5 275/9/5 281/9/5
f 283/9/5 277/9/5 276/9/5
f 284/9/5 277/9/5 283/9/5
f 291/7/5 286/7/5 285/7/5
f 292/2/5 287/2/5 286/2/5
f 292/7/5 286/7/5 291/7/5
f 293/7/5 288/7/5 287/7/5
f 293/2/5 287/2/5 292/2/5
f 294/7/5 288/7/5 293/7/5
f 295/8/5 290/8/5 289/8/5
f 296/8/5 290/8/5 295/8/5
f 298/2/5 293/2/5 292/2/5
f 299/2/5 293/2/5 298/2/5
f 301/7/5 298/7/5 297/7/5
f 302/2/5 299/2/5 298/2/5
f 302/7/5 298/7/5 301/7/5
f 303/7/5 300/7/5 299/7/5
f 303/2/5 299/2/5 302/2/5
f 304/7/5 300/7/5 303/7/5
f 308/5/5 306/5/5 305/5/5
f 309/5/5 306/5/5 308/5/5
f 310/5/5 306/5/5 309/5/5
f 311/4/5 307/4/5 306/4/5
f 311/5/5 306/5/5 310/5/5
f 312/4/5 307/4/5 311/4/5
f 318/5/5 314/5/5 313/5/5
f 318/5/5 315/5/5 314/5/5
f 318/5/5 316/5/5 315/5/5
f 319/4/5 317/4/5 316/4/5
f 319/5/5 316/5/5 318/5/5
f 320/4/5 317/4/5 319/4/5
f 326/10/5 322/10/5 321/10/5
f 327/10/5 322/10/5 326/10/5
f 328/11/5 324/11/5 323/11/5
f 329/11/5 324/11/5 328/11/5
f 330/2/5 326/2/5 325/2/5
f 331/2/5 326/2/5 330/2/5
f 333/10/5 332/10/5 331/10/5
f 334/10/5 332/10/5 333/10/5
f 341/11/5 336/11/5 335/11/5
f 342/3/5 337/3/5 336/3/5
f 342/11/5 336/11/5 341/11/5
f 343/3/5 337/3/5 342/3/5
f 344/4/5 340/4/5 339/4/5
f 344/4/5 339/4/5 338/4/5
f 345/4/5 340/4/5 344/4/5
f 346/4/5 340/4/5 345/4/5
f 347/11/6 348/11/6 350/11/6
f 348/8/6 349/8/6 351/8/6
f 350/11/6 348/11/6 351/11/6
f 351/8/6 349/8/6 352/8/6
f 353/8/6 354/8/6 357/8/6
f 357/8/6 354/8/6 358/8/6
f 355/8/6 356/8/6 359/8/6
f 359/8/6 356/8/6 360/8/6
f 361/4/6 362/4/6 364/4/6
f 362/4/6 363/4/6 364/4/6
f 364/4/6 363/4/6 365/4/6
f 365/4/6 363/4/6 366/4/6
f 367/4/6 368/4/6 376/4/6
f 376/4/6 368/4/6 377/4/6
f 368/11/6 369/11/6 378/11/6
f 377/4/6 368/4/6 378/4/6
f 369/4/6 370/4/6 379/4/6
f 378/11/6 369/11/6 379/11/6
f 370/5/6 371/5/6 380/5/6
f 379/4/6 370/4/6 380/4/6
f 371/4/6 372/4/6 381/4/6
f 380/5/6 371/5/6 381/5/6
f 373/11/6 374/11/6 382/11/6
f 374/3/6 375/3/6 383/3/6
f 382/11/6 374/11/6 383/11/6
f 383/3/6 375/3/6 384/3/6
f 377/11/6 378/11/6 386/11/6
f 378/11/6 379/11/6 386/11/6
f 386/11/6 379/11/6 387/11/6
f 387/11/6 379/11/6 388/11/6
f 381/4/6 372/4/6 390/4/6
f 385/4/6 386/4/6 391/4/6
f 386/4/6 387/4/6 391/4/6
f 387/11/6 388/11/6 392/11/6
f 391/4/6 387/4/6 392/4/6
f 388/4/6 389/4/6 393/4/6
f 392/11/6 388/11/6 393/11/6
f 389/5/6 390/5/6 394/5/6
f 393/4/6 389/4/6 394/4/6
f 390/4/6 372/4/6 395/4/6
f 394/5/6 390/5/6 395/5/6
f 395/4/6 372/4/6 396/4/6
f 397/5/6 398/5/6 403/5/6
f 398/2/6 399/2/6 404/2/6
f 403/5/6 398/5/6 404/5/6
f 404/2/6 399/2/6 405/2/6
f 400/2/6 401/2/6 406/2/6
f 401/5/6 402/5/6 407/5/6
f 406/2/6 401/2/6 407/2/6
f 407/5/6 402/5/6 408/5/6
